<svg width="167" height="161" viewBox="0 0 167 161" fill="none" xmlns="http://www.w3.org/2000/svg">
<path d="M83.4804 160.554C129.585 160.554 166.961 138.176 166.961 110.57C166.961 82.9649 129.585 60.5863 83.4804 60.5863C37.3754 60.5863 0 82.9649 0 110.57C0 138.176 37.3754 160.554 83.4804 160.554Z" fill="#F5F5F5"/>
<path d="M128.829 103.551C136.961 103.551 143.553 99.4507 143.553 94.3923C143.553 89.3339 136.961 85.2333 128.829 85.2333C120.697 85.2333 114.104 89.3339 114.104 94.3923C114.104 99.4507 120.697 103.551 128.829 103.551Z" fill="#E0E0E0"/>
<path d="M88.7281 129.782C102.601 129.782 113.847 123.157 113.847 114.984C113.847 106.812 102.601 100.186 88.7281 100.186C74.8554 100.186 63.6094 106.812 63.6094 114.984C63.6094 123.157 74.8554 129.782 88.7281 129.782Z" fill="#E0E0E0"/>
<path d="M132.634 143.862C138.464 143.862 143.19 141.078 143.19 137.643C143.19 134.207 138.464 131.423 132.634 131.423C126.803 131.423 122.077 134.207 122.077 137.643C122.077 141.078 126.803 143.862 132.634 143.862Z" fill="#E0E0E0"/>
<path d="M96.3493 66.5878L22.1864 109.088C19.9618 110.373 17.2232 110.373 14.9986 109.088L11.8517 107.24C9.95439 106.146 9.95439 103.404 11.8517 102.309L86.0146 59.8083C88.2392 58.5235 90.9778 58.5235 93.2024 59.8083L96.3493 61.6563C98.2466 62.751 98.2466 65.4931 96.3493 66.5878Z" fill="#E0E0E0"/>
<path d="M100.602 145.996L115.966 154.866L129.156 147.316L114.235 138.255L100.602 145.996Z" fill="#E0E0E0"/>
<path d="M94.8394 144.162C94.8112 144.162 94.7795 144.155 94.7514 144.137L38.2624 111.524C38.1779 111.475 38.1498 111.369 38.1991 111.285C38.2483 111.2 38.3539 111.172 38.4384 111.221L94.9274 143.834C95.0119 143.883 95.04 143.989 94.9907 144.074C94.9591 144.13 94.8992 144.162 94.8394 144.162Z" fill="#2F2E41"/>
<path d="M101.302 140.652C101.274 140.652 101.242 140.645 101.214 140.627L44.5349 107.906C44.4504 107.856 44.4222 107.751 44.4715 107.666C44.5208 107.582 44.6264 107.554 44.7109 107.603L101.39 140.325C101.474 140.374 101.503 140.48 101.453 140.564C101.422 140.62 101.362 140.652 101.302 140.652Z" fill="#2F2E41"/>
<path d="M107.498 136.991C107.469 136.991 107.438 136.984 107.41 136.967L50.8044 104.284C50.7199 104.234 50.6918 104.129 50.741 104.044C50.7903 103.96 50.8959 103.932 50.9804 103.981L107.586 136.664C107.67 136.713 107.698 136.819 107.649 136.903C107.617 136.96 107.557 136.991 107.498 136.991Z" fill="#2F2E41"/>
<path d="M113.696 133.331C113.668 133.331 113.636 133.324 113.608 133.306L57.073 100.665C56.9885 100.616 56.9603 100.51 57.0096 100.426C57.0589 100.341 57.1645 100.313 57.249 100.362L113.784 133.003C113.868 133.052 113.896 133.158 113.847 133.243C113.815 133.299 113.756 133.331 113.696 133.331Z" fill="#2F2E41"/>
<path d="M119.895 129.67C119.867 129.67 119.835 129.663 119.807 129.645L63.3464 97.0464C63.2619 96.9971 63.2338 96.8915 63.283 96.807C63.3323 96.7225 63.4379 96.6944 63.5224 96.7437L119.983 129.342C120.068 129.392 120.096 129.497 120.047 129.582C120.015 129.638 119.955 129.67 119.895 129.67Z" fill="#2F2E41"/>
<path d="M126.378 126.171C126.35 126.171 126.318 126.164 126.29 126.146L69.7097 93.4806C69.6252 93.4313 69.597 93.3257 69.6463 93.2412C69.6956 93.1568 69.8012 93.1286 69.8857 93.1779L126.466 125.843C126.551 125.893 126.579 125.998 126.53 126.083C126.498 126.139 126.438 126.171 126.378 126.171Z" fill="#2F2E41"/>
<path d="M132.633 122.545C132.605 122.545 132.573 122.538 132.545 122.521L75.8874 89.8093C75.8029 89.76 75.7748 89.6544 75.8241 89.5699C75.8733 89.4854 75.9789 89.4573 76.0634 89.5065L132.721 122.218C132.806 122.267 132.834 122.373 132.785 122.457C132.753 122.514 132.693 122.545 132.633 122.545Z" fill="#2F2E41"/>
<path d="M82.5897 144.038C82.5298 144.038 82.47 144.007 82.4383 143.95C82.389 143.866 82.4172 143.76 82.5017 143.711L132.546 114.819C132.63 114.77 132.736 114.798 132.785 114.882C132.834 114.967 132.806 115.072 132.722 115.122L82.6777 144.014C82.6495 144.031 82.6214 144.038 82.5897 144.038Z" fill="#2F2E41"/>
<path d="M76.3348 140.427C76.2749 140.427 76.2151 140.395 76.1834 140.339C76.1341 140.254 76.1623 140.149 76.2468 140.1L126.284 111.211C126.368 111.162 126.474 111.19 126.523 111.274C126.572 111.359 126.544 111.464 126.46 111.514L76.4228 140.402C76.3946 140.42 76.3665 140.427 76.3348 140.427Z" fill="#2F2E41"/>
<path d="M70.0867 136.815C70.0269 136.815 69.9671 136.784 69.9354 136.727C69.8861 136.643 69.9143 136.537 69.9987 136.488L120.025 107.606C120.109 107.557 120.215 107.585 120.264 107.67C120.314 107.754 120.285 107.86 120.201 107.909L70.1747 136.791C70.1466 136.808 70.1184 136.815 70.0867 136.815Z" fill="#2F2E41"/>
<path d="M63.8211 133.211C63.7613 133.211 63.7014 133.179 63.6698 133.123C63.6205 133.038 63.6486 132.933 63.7331 132.883L113.763 103.998C113.847 103.949 113.953 103.977 114.002 104.062C114.052 104.146 114.023 104.252 113.939 104.301L63.9091 133.186C63.881 133.204 63.8528 133.211 63.8211 133.211Z" fill="#2F2E41"/>
<path d="M57.5594 129.603C57.4996 129.603 57.4397 129.571 57.408 129.515C57.3588 129.43 57.3869 129.325 57.4714 129.275L107.501 100.39C107.586 100.341 107.691 100.369 107.741 100.454C107.79 100.538 107.762 100.644 107.677 100.693L57.6474 129.578C57.6192 129.596 57.5911 129.603 57.5594 129.603Z" fill="#2F2E41"/>
<path d="M51.3397 125.974C51.2798 125.974 51.22 125.942 51.1883 125.886C51.139 125.801 51.1672 125.696 51.2517 125.646L101.243 96.7859C101.327 96.7366 101.433 96.7648 101.482 96.8493C101.531 96.9337 101.503 97.0393 101.419 97.0886L51.4277 125.949C51.3995 125.967 51.3714 125.974 51.3397 125.974Z" fill="#2F2E41"/>
<path d="M45.0565 122.38C44.9966 122.38 44.9368 122.348 44.9051 122.292C44.8558 122.207 44.884 122.102 44.9685 122.052L94.9771 93.1779C95.0616 93.1286 95.1672 93.1568 95.2165 93.2412C95.2657 93.3257 95.2376 93.4313 95.1531 93.4806L45.1445 122.355C45.1163 122.373 45.0881 122.38 45.0565 122.38Z" fill="#2F2E41"/>
<path d="M38.7625 118.789C38.7027 118.789 38.6428 118.758 38.6112 118.701C38.5619 118.617 38.59 118.511 38.6745 118.462L88.7148 89.5699C88.7993 89.5206 88.9049 89.5488 88.9542 89.6333C89.0035 89.7177 88.9753 89.8233 88.8908 89.8726L38.8505 118.765C38.8224 118.782 38.7942 118.789 38.7625 118.789Z" fill="#2F2E41"/>
<path d="M88.7213 147.763C88.6896 147.763 88.6615 147.755 88.6333 147.738L32.0528 115.111C32 115.079 31.9648 115.023 31.9648 114.96C31.9648 114.896 32 114.84 32.0528 114.808L82.2903 85.8105C82.3431 85.7788 82.41 85.7788 82.4663 85.8105L139.268 118.508C139.325 118.539 139.356 118.596 139.356 118.659C139.356 118.723 139.321 118.779 139.268 118.811L88.8128 147.738C88.7847 147.752 88.7565 147.763 88.7248 147.763H88.7213ZM32.4928 114.96L88.7213 147.386L138.825 118.659L82.3783 86.166L32.4928 114.96Z" fill="#2F2E41"/>
<path d="M15.9494 106.839V52.3248L13.7354 51.0471V104.928C13.7354 106.16 14.8406 107.008 15.9494 106.843V106.839Z" fill="#EBEBEB"/>
<path d="M14.7236 106.614L17.0046 107.902V103.882L14.7236 106.614Z" fill="#EBEBEB"/>
<path d="M94.8641 3.1926V60.7305C94.8641 62.839 93.7377 64.7926 91.9073 65.8486L18.8532 107.86C17.5614 108.603 15.9492 107.673 15.9492 106.184V48.6464C15.9492 46.5344 17.0756 44.5843 18.906 43.5283L91.9601 1.51709C93.2484 0.770845 94.8641 1.70364 94.8641 3.1926Z" fill="#FAFAFA"/>
<path d="M92.9246 1.60511C93.6884 1.60511 94.5121 2.21055 94.5121 3.19263V60.7306C94.5121 62.7088 93.4456 64.5533 91.7313 65.5424L18.6772 107.554C18.4308 107.694 18.1633 107.768 17.8887 107.768C17.1249 107.768 16.3012 107.163 16.3012 106.184V48.6464C16.3012 46.6682 17.3678 44.8237 19.082 43.8346L92.1361 1.81983C92.3825 1.67551 92.6465 1.60511 92.9246 1.60511ZM92.9246 1.25311C92.6008 1.25311 92.2699 1.33407 91.9601 1.51711L18.906 43.5283C17.0756 44.5843 15.9492 46.5309 15.9492 48.6464V106.184C15.9492 107.314 16.875 108.12 17.8887 108.12C18.2126 108.12 18.5435 108.039 18.8532 107.86L91.9073 65.8486C93.7377 64.7926 94.8641 62.8426 94.8641 60.7306V3.19263C94.8641 2.06271 93.9348 1.25311 92.9246 1.25311Z" fill="#E0E0E0"/>
<path d="M91.7346 0.29919C91.1608 -0.0598507 90.4111 -0.123211 89.7423 0.260469L16.6882 42.2682C14.8614 43.3242 13.7314 45.2743 13.7314 47.3862V51.0435L15.9455 52.3213L92.6428 8.04319V2.82303L93.9311 1.53471L91.7346 0.292149V0.29919Z" fill="#E54D38"/>
<path d="M94.8641 3.1926V6.76541L15.9492 52.3248V48.6428C15.9492 46.5308 17.0756 44.5808 18.906 43.5248L91.9601 1.51709C93.2484 0.770845 94.8641 1.70364 94.8641 3.1926Z" fill="#E54D38"/>
<g style="mix-blend-mode:overlay" opacity="0.5">
<path d="M94.8641 3.1926V6.76541L15.9492 52.3248V48.6428C15.9492 46.5308 17.0756 44.5808 18.906 43.5248L91.9601 1.51709C93.2484 0.770845 94.8641 1.70364 94.8641 3.1926Z" fill="white"/>
</g>
<path opacity="0.2" d="M14.4957 44.4892C14.0064 45.3587 13.7354 46.3548 13.7354 47.3862V51.0435L15.9494 52.3212V48.6393C15.9494 47.6115 16.217 46.6224 16.7027 45.7564L14.4957 44.4857V44.4892Z" fill="black"/>
<path d="M53.2996 78.5734C52.7012 78.5734 52.1451 78.4326 51.6558 78.151C50.4696 77.4681 49.8184 76.0425 49.8184 74.1382C49.8184 70.2979 52.5252 65.6092 55.8516 63.6873C57.5025 62.7334 59.0619 62.5891 60.2481 63.2719C61.4344 63.9548 62.0856 65.3804 62.0856 67.2883C62.0856 71.1321 59.3787 75.8172 56.0523 77.7391C55.0843 78.2953 54.148 78.5804 53.3032 78.5804L53.2996 78.5734ZM58.6008 63.2438C57.8228 63.2438 56.9534 63.5078 56.0523 64.0287C52.835 65.8873 50.2161 70.4211 50.2161 74.1347C50.2161 75.8911 50.7969 77.1935 51.8529 77.8025C52.9089 78.4115 54.331 78.2636 55.8516 77.3871C59.0689 75.5286 61.6878 70.9948 61.6878 67.2812C61.6878 65.5247 61.107 64.2223 60.051 63.6134C59.6216 63.367 59.1358 63.2438 58.6043 63.2438H58.6008Z" fill="#2F2E41"/>
<path d="M55.9506 79.4182C55.8415 79.4182 55.75 79.3302 55.75 79.2176V60.9276C55.75 60.8185 55.838 60.727 55.9506 60.727C56.0633 60.727 56.1513 60.815 56.1513 60.9276V79.2176C56.1513 79.3267 56.0633 79.4182 55.9506 79.4182Z" fill="#E54D38"/>
<path d="M47.8645 75.6166C47.7941 75.6166 47.7272 75.5814 47.692 75.518C47.6357 75.423 47.6709 75.2998 47.766 75.247L62.7999 66.5667C62.8949 66.5104 63.0181 66.5456 63.0709 66.6406C63.1273 66.7356 63.092 66.8588 62.997 66.9116L47.9631 75.5919C47.9314 75.6095 47.8962 75.6201 47.8645 75.6201V75.6166Z" fill="#E54D38"/>
<path d="M48.9138 76.2045C48.8786 76.2045 48.8469 76.1974 48.8152 76.1763L47.5938 75.4688L48.7096 73.5363C48.7659 73.4413 48.8856 73.4096 48.9806 73.4624C49.0757 73.5187 49.1073 73.6384 49.0545 73.7334L48.1394 75.3209L49.0158 75.8278C49.1109 75.8841 49.1426 76.0038 49.0898 76.0989C49.0546 76.1622 48.9877 76.1974 48.9173 76.1974L48.9138 76.2045Z" fill="#E54D38"/>
<path d="M54.9157 62.9376C54.8805 62.9376 54.8488 62.9305 54.8171 62.9094C54.7221 62.8531 54.6904 62.7334 54.7432 62.6384L55.8943 60.6461L57.084 61.3325C57.179 61.3888 57.2107 61.5085 57.1579 61.6035C57.1016 61.6985 56.9819 61.7302 56.8869 61.6774L56.0421 61.1917L55.0917 62.839C55.0565 62.9024 54.9896 62.9376 54.9192 62.9376H54.9157Z" fill="#E54D38"/>
<path d="M71.6251 56.496L68.7317 58.168C68.5416 58.2771 68.3867 58.161 68.3867 57.9075V54.6867C68.3867 54.4333 68.5416 54.1411 68.7317 54.032L71.6251 52.36C71.8152 52.2509 71.9701 52.3671 71.9701 52.6205V55.8413C71.9701 56.0947 71.8152 56.3869 71.6251 56.496Z" fill="#E54D38"/>
<path d="M77.1095 53.2822L74.2161 54.9542C74.026 55.0633 73.8711 54.9472 73.8711 54.6937V51.4729C73.8711 51.2195 74.026 50.9273 74.2161 50.8182L77.1095 49.1462C77.2996 49.0371 77.4545 49.1533 77.4545 49.4067V52.6275C77.4545 52.8809 77.2996 53.1731 77.1095 53.2822Z" fill="#E54D38"/>
<path d="M71.6251 62.656L68.7317 64.328C68.5416 64.4371 68.3867 64.3209 68.3867 64.0675V60.8467C68.3867 60.5933 68.5416 60.3011 68.7317 60.192L71.6251 58.52C71.8152 58.4109 71.9701 58.527 71.9701 58.7805V62.0013C71.9701 62.2547 71.8152 62.5469 71.6251 62.656Z" fill="#E54D38"/>
<path d="M77.1095 59.4422L74.2161 61.1142C74.026 61.2234 73.8711 61.1072 73.8711 60.8538V57.633C73.8711 57.3795 74.026 57.0874 74.2161 56.9782L77.1095 55.3062C77.2996 55.1971 77.4545 55.3133 77.4545 55.5667V58.7875C77.4545 59.041 77.2996 59.3331 77.1095 59.4422Z" fill="#E54D38"/>
<path d="M71.6251 68.8125L68.7317 70.4845C68.5416 70.5936 68.3867 70.4774 68.3867 70.224V67.0032C68.3867 66.7498 68.5416 66.4576 68.7317 66.3485L71.6251 64.6765C71.8152 64.5674 71.9701 64.6835 71.9701 64.937V68.1578C71.9701 68.4112 71.8152 68.7034 71.6251 68.8125Z" fill="#E54D38"/>
<path d="M77.1095 65.5987L74.2161 67.2707C74.026 67.3798 73.8711 67.2636 73.8711 67.0102V63.7894C73.8711 63.536 74.026 63.2438 74.2161 63.1347L77.1095 61.4627C77.2996 61.3536 77.4545 61.4697 77.4545 61.7232V64.944C77.4545 65.1974 77.2996 65.4896 77.1095 65.5987Z" fill="#E54D38"/>
<path d="M82.5939 50.0685L79.7004 51.7405C79.5103 51.8496 79.3555 51.7334 79.3555 51.48V48.2592C79.3555 48.0057 79.5103 47.7136 79.7004 47.6045L82.5939 45.9325C82.7839 45.8233 82.9388 45.9395 82.9388 46.1929V49.4137C82.9388 49.6672 82.7839 49.9593 82.5939 50.0685Z" fill="#E54D38"/>
<path d="M82.5939 56.2284L79.7004 57.9004C79.5103 58.0096 79.3555 57.8934 79.3555 57.64V54.4192C79.3555 54.1657 79.5103 53.8736 79.7004 53.7644L82.5939 52.0924C82.7839 51.9833 82.9388 52.0995 82.9388 52.3529V55.5737C82.9388 55.8272 82.7839 56.1193 82.5939 56.2284Z" fill="#E54D38"/>
<path d="M82.5939 62.3885L79.7004 64.0605C79.5103 64.1696 79.3555 64.0534 79.3555 63.8V60.5792C79.3555 60.3258 79.5103 60.0336 79.7004 59.9245L82.5939 58.2525C82.7839 58.1434 82.9388 58.2595 82.9388 58.513V61.7338C82.9388 61.9872 82.7839 62.2794 82.5939 62.3885Z" fill="#E54D38"/>
<path d="M88.0743 46.8582L85.1809 48.5302C84.9908 48.6393 84.8359 48.5232 84.8359 48.2697V45.0489C84.8359 44.7955 84.9908 44.5033 85.1809 44.3942L88.0743 42.7222C88.2644 42.6131 88.4193 42.7292 88.4193 42.9827V46.2035C88.4193 46.4569 88.2644 46.7491 88.0743 46.8582Z" fill="#E54D38"/>
<path d="M88.0743 53.0147L85.1809 54.6867C84.9908 54.7958 84.8359 54.6797 84.8359 54.4262V51.2054C84.8359 50.952 84.9908 50.6598 85.1809 50.5507L88.0743 48.8787C88.2644 48.7696 88.4193 48.8857 88.4193 49.1392V52.36C88.4193 52.6134 88.2644 52.9056 88.0743 53.0147Z" fill="#E54D38"/>
<path opacity="0.2" d="M71.6251 62.656L68.7317 64.328C68.5416 64.4371 68.3867 64.3209 68.3867 64.0675V60.8467C68.3867 60.5933 68.5416 60.3011 68.7317 60.192L71.6251 58.52C71.8152 58.4109 71.9701 58.527 71.9701 58.7805V62.0013C71.9701 62.2547 71.8152 62.5469 71.6251 62.656Z" fill="black"/>
<path opacity="0.2" d="M77.1095 59.4422L74.2161 61.1142C74.026 61.2234 73.8711 61.1072 73.8711 60.8538V57.633C73.8711 57.3795 74.026 57.0874 74.2161 56.9782L77.1095 55.3062C77.2996 55.1971 77.4545 55.3133 77.4545 55.5667V58.7875C77.4545 59.041 77.2996 59.3331 77.1095 59.4422Z" fill="black"/>
<path opacity="0.2" d="M82.5939 56.2284L79.7004 57.9004C79.5103 58.0096 79.3555 57.8934 79.3555 57.64V54.4192C79.3555 54.1657 79.5103 53.8736 79.7004 53.7644L82.5939 52.0924C82.7839 51.9833 82.9388 52.0995 82.9388 52.3529V55.5737C82.9388 55.8272 82.7839 56.1193 82.5939 56.2284Z" fill="black"/>
<path opacity="0.2" d="M88.0743 53.0147L85.1809 54.6867C84.9908 54.7958 84.8359 54.6797 84.8359 54.4262V51.2054C84.8359 50.952 84.9908 50.6598 85.1809 50.5507L88.0743 48.8787C88.2644 48.7696 88.4193 48.8857 88.4193 49.1392V52.36C88.4193 52.6134 88.2644 52.9056 88.0743 53.0147Z" fill="black"/>
<path d="M88.0743 59.1747L85.1809 60.8467C84.9908 60.9558 84.8359 60.8397 84.8359 60.5862V57.3655C84.8359 57.112 84.9908 56.8199 85.1809 56.7107L88.0743 55.0387C88.2644 54.9296 88.4193 55.0458 88.4193 55.2992V58.52C88.4193 58.7734 88.2644 59.0656 88.0743 59.1747Z" fill="#E54D38"/>
<path opacity="0.3" d="M71.6251 68.8125L68.7317 70.4845C68.5416 70.5936 68.3867 70.4774 68.3867 70.224V67.0032C68.3867 66.7498 68.5416 66.4576 68.7317 66.3485L71.6251 64.6765C71.8152 64.5674 71.9701 64.6835 71.9701 64.937V68.1578C71.9701 68.4112 71.8152 68.7034 71.6251 68.8125Z" fill="black"/>
<path opacity="0.3" d="M77.1095 65.5987L74.2161 67.2707C74.026 67.3798 73.8711 67.2636 73.8711 67.0102V63.7894C73.8711 63.536 74.026 63.2438 74.2161 63.1347L77.1095 61.4627C77.2996 61.3536 77.4545 61.4697 77.4545 61.7232V64.944C77.4545 65.1974 77.2996 65.4896 77.1095 65.5987Z" fill="black"/>
<path opacity="0.3" d="M82.5939 62.3885L79.7004 64.0605C79.5103 64.1696 79.3555 64.0534 79.3555 63.8V60.5792C79.3555 60.3258 79.5103 60.0336 79.7004 59.9245L82.5939 58.2525C82.7839 58.1434 82.9388 58.2595 82.9388 58.513V61.7338C82.9388 61.9872 82.7839 62.2794 82.5939 62.3885Z" fill="black"/>
<path opacity="0.3" d="M88.0743 59.1747L85.1809 60.8467C84.9908 60.9558 84.8359 60.8397 84.8359 60.5862V57.3655C84.8359 57.112 84.9908 56.8199 85.1809 56.7107L88.0743 55.0387C88.2644 54.9296 88.4193 55.0458 88.4193 55.2992V58.52C88.4193 58.7734 88.2644 59.0656 88.0743 59.1747Z" fill="black"/>
<path d="M38.3998 66.6266L24.2318 74.807C23.3025 75.3421 22.5527 74.7754 22.5527 73.5363V57.7773C22.5527 56.5382 23.306 55.1021 24.2318 54.567L38.3998 46.3866C39.329 45.8515 40.0788 46.4182 40.0788 47.6573V63.4163C40.0788 64.6554 39.3255 66.0915 38.3998 66.6266Z" fill="#2F2E41"/>
<path d="M34.0663 55.7286L26.6426 60.0125L28.568 56.8937L35.9917 52.6064L34.0663 55.7286Z" fill="#E54D38"/>
<path opacity="0.2" d="M34.0663 55.7286L26.6426 60.0125L28.568 56.8937L35.9917 52.6064L34.0663 55.7286Z" fill="white"/>
<path d="M34.0663 64.2998L26.6426 68.5871V60.0124L34.0663 55.7286V64.2998Z" fill="#E54D38"/>
<path d="M34.0664 55.7286L35.9918 52.6064V61.1776L34.0664 64.2998V55.7286Z" fill="#E54D38"/>
<path opacity="0.2" d="M34.0664 55.7286L35.9918 52.6064V61.1776L34.0664 64.2998V55.7286Z" fill="black"/>
<path d="M62.4242 52.7577L48.2562 60.9382C47.3269 61.4732 46.5771 60.9065 46.5771 59.6675V43.9084C46.5771 42.6694 47.3304 41.2332 48.2562 40.6982L62.4242 32.5177C63.3534 31.9827 64.1032 32.5494 64.1032 33.7884V49.5475C64.1032 50.7865 63.3499 52.2227 62.4242 52.7577Z" fill="#2F2E41"/>
<path d="M58.0907 41.8563L50.667 46.1436L52.5924 43.0214L60.0161 38.7375L58.0907 41.8563Z" fill="#E54D38"/>
<path d="M58.0907 50.431L50.667 54.7148V46.1436L58.0907 41.8563V50.431Z" fill="#E54D38"/>
<path d="M58.0908 41.8563L60.0163 38.7375V47.3088L58.0908 50.431V41.8563Z" fill="#E54D38"/>
<path opacity="0.2" d="M58.0908 41.8563L60.0163 38.7375V47.3088L58.0908 50.431V41.8563Z" fill="black"/>
<path opacity="0.2" d="M50.667 46.1437L52.5924 43.0214V51.5926L50.667 54.7149V46.1437Z" fill="black"/>
<path opacity="0.3" d="M58.0907 50.431L50.667 54.7149L52.5924 51.5926L60.0161 47.3088L58.0907 50.431Z" fill="black"/>
<path opacity="0.2" d="M58.0907 41.8563L50.667 46.1436L52.5924 43.0214L60.0161 38.7375L58.0907 41.8563Z" fill="white"/>
<path d="M86.4476 38.8854L72.2796 47.0659C71.3503 47.6009 70.6006 47.0342 70.6006 45.7952V30.0361C70.6006 28.7971 71.3539 27.3609 72.2796 26.8259L86.4476 18.6454C87.3769 18.1104 88.1267 18.6771 88.1267 19.9161V35.6752C88.1267 36.9142 87.3734 38.3504 86.4476 38.8854Z" fill="#2F2E41"/>
<path d="M74.6911 32.422C74.6524 32.422 74.6136 32.4079 74.5855 32.3797C74.5397 32.334 74.5327 32.2601 74.5644 32.2037L76.4898 29.0815C76.5039 29.0604 76.5215 29.0428 76.5391 29.0322L83.9628 24.7449C84.0191 24.7132 84.093 24.7202 84.1388 24.7695C84.1845 24.8153 84.1916 24.8892 84.1599 24.9455L82.2344 28.0677C82.2204 28.0889 82.2028 28.1065 82.1852 28.117L74.7615 32.4044C74.7404 32.4185 74.7122 32.4255 74.6876 32.4255L74.6911 32.422ZM76.7186 29.261L75.1135 31.8623L82.0092 27.8812L83.6143 25.2799L76.7186 29.261Z" fill="#E54D38"/>
<path d="M74.6908 40.9903C74.6662 40.9903 74.6415 40.9833 74.6169 40.9692C74.5711 40.9446 74.543 40.8953 74.543 40.8425V32.2713C74.543 32.2185 74.5711 32.1727 74.6169 32.1446L82.0406 27.8572C82.0863 27.8326 82.1391 27.8326 82.1849 27.8572C82.2306 27.8819 82.2588 27.9311 82.2588 27.9839V36.5551C82.2588 36.6079 82.2306 36.6537 82.1849 36.6819L74.7612 40.9692C74.7401 40.9833 74.7154 40.9903 74.6873 40.9903H74.6908ZM74.8351 32.3558V40.5926L81.9702 36.4742V28.2374L74.8351 32.3558Z" fill="#E54D38"/>
<path d="M76.6166 37.8681C76.5919 37.8681 76.5673 37.8611 76.5427 37.847C76.4969 37.8224 76.4688 37.7731 76.4688 37.7203V29.1491C76.4688 29.0963 76.4969 29.0505 76.5427 29.0224L83.9663 24.735C84.0121 24.7104 84.0649 24.7104 84.1107 24.735C84.1564 24.7597 84.1846 24.809 84.1846 24.8618V33.433C84.1846 33.4858 84.1564 33.5315 84.1107 33.5597L76.687 37.847C76.6659 37.8611 76.6412 37.8681 76.6131 37.8681H76.6166ZM76.7609 29.2336V37.4704L83.8959 33.352V25.1152L76.7609 29.2336Z" fill="#E54D38"/>
<path d="M82.114 36.703C82.114 36.703 82.0859 36.703 82.0753 36.696C82.012 36.6784 81.9697 36.6221 81.9697 36.5552V27.984C81.9697 27.9558 81.9768 27.9312 81.9908 27.9065L83.9163 24.7843C83.9515 24.728 84.0148 24.7033 84.0782 24.7209C84.1416 24.7385 84.1838 24.7948 84.1838 24.8617V33.4329C84.1838 33.4611 84.1768 33.4857 84.1627 33.5104L82.2372 36.6326C82.2091 36.6749 82.1633 36.703 82.114 36.703ZM82.2584 28.0262V36.0448L83.8916 33.3942V25.3757L82.2584 28.0262Z" fill="#E54D38"/>
<path d="M74.6909 40.9904C74.6663 40.9904 74.6381 40.9833 74.6135 40.9693C74.5466 40.927 74.5255 40.839 74.5677 40.7686L76.4932 37.6464C76.5354 37.5795 76.6234 37.5584 76.6938 37.6006C76.7642 37.6429 76.7818 37.7309 76.7396 37.8013L74.8141 40.9235C74.786 40.9693 74.7402 40.9939 74.6909 40.9939V40.9904Z" fill="#E54D38"/>
<path d="M38.3998 75.7857L24.2318 83.9661C23.3025 84.5012 22.5527 83.9345 22.5527 82.6954C22.5527 81.4564 23.306 80.0202 24.2318 79.4852L38.3998 71.3047C39.329 70.7697 40.0788 71.3364 40.0788 72.5754C40.0788 73.8145 39.3255 75.2506 38.3998 75.7857Z" fill="#E54D38"/>
<path d="M38.3998 82.3187L24.2318 90.4992C23.3025 91.0342 22.5527 90.4675 22.5527 89.2284C22.5527 87.9894 23.306 86.5532 24.2318 86.0182L38.3998 77.8377C39.329 77.3027 40.0788 77.8694 40.0788 79.1085C40.0788 80.3475 39.3255 81.7836 38.3998 82.3187Z" fill="#E54D38"/>
<path d="M38.3998 88.8519L24.2318 97.0324C23.3025 97.5674 22.5527 97.0007 22.5527 95.7617C22.5527 94.5226 23.306 93.0865 24.2318 92.5514L38.3998 84.3709C39.329 83.8359 40.0788 84.4026 40.0788 85.6417C40.0788 86.8807 39.3255 88.3169 38.3998 88.8519Z" fill="#E54D38"/>
<path d="M137.78 92.4527C137.78 92.4527 138.72 93.8009 138.185 94.7337C137.938 95.1631 137.601 95.4764 137.305 95.6841C136.844 96.015 136.435 96.4022 136.073 96.8387C135.112 98.0038 133.165 99.9574 131.303 99.366C128.695 98.5388 131.539 96.4303 131.539 96.4303L137.777 92.4492L137.78 92.4527Z" fill="#263238"/>
<path d="M134.479 89.225L134.841 92.4528L132.764 95.3709L131.543 96.4339C131.543 96.4339 132.307 98.4333 134.686 95.8707C136.46 93.9594 137.78 92.4563 137.78 92.4563V89.2285H134.475L134.479 89.225Z" fill="#FFA8A7"/>
<path d="M126.555 90.0134C126.555 90.0134 127.396 91.4249 126.794 92.319C126.516 92.7308 126.157 93.0159 125.851 93.206C125.368 93.5017 124.932 93.8607 124.541 94.2726C123.499 95.3638 121.419 97.1766 119.603 96.455C117.058 95.4447 120.046 93.5439 120.046 93.5439L126.551 90.0169L126.555 90.0134Z" fill="#263238"/>
<path d="M123.488 86.5603L123.622 89.8057L121.341 92.5689L120.046 93.5405C120.046 93.5405 120.665 95.5891 123.221 93.2025C125.125 91.4214 126.551 90.0169 126.551 90.0169L126.78 86.7997L123.485 86.5638L123.488 86.5603Z" fill="#FFA8A7"/>
<path d="M124.404 48.3437L122.37 68.552C122.363 68.6294 122.359 68.7069 122.363 68.7808L123.176 87.9894C123.176 87.9894 124.802 89.0348 127.227 87.9894C127.227 87.9894 128.949 75.8736 128.069 70.9034C128.002 70.5232 128.019 70.136 128.132 69.7699C128.977 67.063 132.476 55.6723 132.764 52.1277L124.404 48.3437Z" fill="#2F2E41"/>
<path d="M130.99 55.8025L125.675 52.3635C125.675 52.3635 125.932 54.7043 128.614 56.8163L129.751 64.4195C130.423 62.1244 131.166 59.502 131.747 57.1894L130.99 55.799V55.8025Z" fill="#37474F"/>
<path d="M125.207 48.3437C125.295 48.4246 123.816 54.2679 129.413 55.9715L131.135 71.3399L134.211 90.457C134.211 90.457 136.457 91.2948 137.946 89.8445C137.946 89.8445 138.9 77.1549 137.013 71.2132C136.862 70.7379 136.812 70.2416 136.886 69.7488C137.39 66.4717 139.16 53.5955 136.707 49.009L125.21 48.3437H125.207Z" fill="#2F2E41"/>
<path d="M136.946 22.6019L139.952 35.5907C140.146 36.4284 140.037 37.3049 139.646 38.0723C138.689 39.9379 136.358 40.6137 134.553 39.5472L127.787 35.552V22.6019H136.946Z" fill="#263238"/>
<path d="M128.185 32.8381C126.801 32.7184 125.453 33.3238 124.619 34.4361C123.5 35.9005 119.209 41.4762 119.209 41.4762C119.209 41.4762 112.873 38.3082 112.573 37.935C112.274 37.5619 112.44 36.8016 112.524 36.3862C112.609 35.9709 112.753 35.0381 112.845 34.7776C113.006 34.3235 112.334 34.4467 111.936 34.8726C111.539 35.2985 111.366 36.1293 111.165 36.2806C110.965 36.432 109.465 34.6931 108.733 33.8589C108.001 33.0246 107.677 32.4509 107.174 32.7853C106.822 33.0317 107.047 33.528 107.572 34.2425C107.814 34.5453 108.04 34.8621 108.247 35.1929C108.307 35.3197 108.117 35.4217 108.04 35.4921C107.899 35.6189 107.645 35.8441 107.628 36.0237C107.631 36.1328 107.628 36.2419 107.607 36.3475C107.54 36.5869 107.255 36.6995 107.163 36.9318C107.103 37.0973 107.163 37.2838 107.135 37.4634C107.114 37.576 107.051 37.6781 107.029 37.7942C107.015 38.023 107.1 38.2483 107.265 38.4067C107.776 39.0192 108.476 39.2515 109.149 39.6246C109.708 39.9344 110.285 40.0681 110.93 40.3533C111.574 40.6384 119.043 45.8198 120.226 45.1651C121.409 44.5104 128.054 37.7133 128.054 37.7133C129.814 34.7881 128.185 32.8381 128.185 32.8381Z" fill="#E9A5A5"/>
<path d="M127.498 32.3558C127.498 32.3558 125.939 32.1587 124.031 34.4291C122.123 36.696 121.184 37.8611 121.184 37.8611C121.184 37.8611 122.666 39.695 124.44 40.6489L127.498 32.3558Z" fill="#E54D38"/>
<path opacity="0.2" d="M127.498 32.3558C127.498 32.3558 125.939 32.1587 124.031 34.4291C122.123 36.696 121.184 37.8611 121.184 37.8611C121.184 37.8611 122.666 39.695 124.44 40.6489L127.498 32.3558Z" fill="black"/>
<path d="M127.498 32.3558L133.972 32.7994C135.556 32.9085 136.759 34.2707 136.668 35.8547C136.531 38.1709 136.094 41.5642 134.809 44.8026C134.809 44.8026 136.365 47.1258 136.707 49.009C136.707 49.009 134.968 50.6493 130.364 50.6493C125.759 50.6493 124.408 48.3437 124.408 48.3437L125.063 42.4653C125.063 42.4653 123.623 40.4061 124.197 37.8083C124.77 35.2106 127.502 32.3558 127.502 32.3558H127.498Z" fill="#E54D38"/>
<path d="M135.035 19.807C135.035 19.807 135.433 18.2934 135.704 18.318C135.975 18.3427 135.939 19.6697 135.939 19.6697C135.939 19.6697 137.2 19.5571 137.066 19.9196C136.932 20.2822 135.464 20.6518 135.464 20.6518L135.031 19.8035L135.035 19.807Z" fill="#263238"/>
<path d="M137.002 25.0835C136.425 29.3638 132.824 29.3638 132.824 29.3638L125.263 26.0374C125.263 26.0374 124.693 25.5375 124.52 24.39C124.46 23.9958 124.446 23.5241 124.52 22.9715C124.52 22.9679 124.52 22.9609 124.52 22.9574C124.763 21.1587 126.108 19.2227 129.04 18.6278C129.624 18.5081 130.275 18.4412 130.99 18.4412C131.317 18.4412 131.63 18.4553 131.933 18.4905C134.221 18.7123 135.809 19.7788 136.569 21.4297C136.734 21.7923 136.861 22.183 136.946 22.5983C137.101 23.3481 137.122 24.1788 137.002 25.0799V25.0835Z" fill="#263238"/>
<path d="M132.821 32.6972L129.156 35.5519V26.4598H132.821V32.6972Z" fill="#FFA8A7"/>
<path d="M129.156 31.2892C130.568 30.7436 132.039 29.6524 132.821 27.8044V26.4633H129.156V31.2928V31.2892Z" fill="#F28F8F"/>
<path d="M129.948 19.719C128.557 19.719 125.601 20.4934 125.259 24.1331C124.918 27.7692 125.249 30.5923 127.125 30.8633C129.001 31.1343 133.362 29.7756 133.943 25.0659C134.527 20.3561 131.303 19.719 129.944 19.719H129.948Z" fill="#FFA8A7"/>
<path d="M127.759 25.6713V27.8185L126.502 27.4313L127.759 25.6713Z" fill="#F28F8F"/>
<path d="M129.156 26.4809C129.397 26.4809 129.593 26.2855 129.593 26.0445C129.593 25.8034 129.397 25.608 129.156 25.608C128.915 25.608 128.72 25.8034 128.72 26.0445C128.72 26.2855 128.915 26.4809 129.156 26.4809Z" fill="#263238"/>
<path d="M126.717 25.7382C126.717 25.9811 126.52 26.1747 126.28 26.1747C126.041 26.1747 125.844 25.9776 125.844 25.7382C125.844 25.4989 126.041 25.3018 126.28 25.3018C126.52 25.3018 126.717 25.4989 126.717 25.7382Z" fill="#263238"/>
<path d="M125.749 24.8265L126.604 24.3197C126.604 24.3197 126.277 23.9782 125.949 24.1824C125.622 24.3865 125.749 24.8265 125.749 24.8265Z" fill="#263238"/>
<path d="M127.167 28.688C127.167 28.688 127.86 28.7513 128.342 28.3712C128.342 28.3712 128.423 28.9907 127.902 29.1104C127.381 29.23 127.163 28.688 127.163 28.688H127.167Z" fill="#F28F8F"/>
<path d="M126.421 20.958C126.421 20.958 126.942 25.9811 133.774 26.1395C133.774 26.1395 135.837 21.1481 131.761 19.5254C127.681 17.9027 126.424 20.958 126.424 20.958H126.421Z" fill="#263238"/>
<path d="M132.633 26.319C132.193 27.0793 132.306 28.0015 132.918 28.3183C133.313 28.5225 134.474 28.0825 134.914 27.3222C135.354 26.5619 135.108 25.9107 134.51 25.5657C133.911 25.2207 133.073 25.5587 132.633 26.319Z" fill="#FFA8A7"/>
<path d="M129.156 32.472C129.156 32.472 126.674 35.552 129.156 35.552C131.637 35.552 132.82 32.6973 132.82 32.6973L129.156 32.472Z" fill="#FFA8A7"/>
<path d="M141.526 43.8064C140.949 41.3353 139.446 38.4067 138.618 36.9705L135.151 39.174C135.151 39.174 137.168 42.6377 137.788 44.2675C138.122 46.207 137.985 49.6988 137.591 51.6032C137.517 51.9375 137.334 52.2262 137.077 52.4163C136.387 52.9337 136.126 53.4511 135.619 54.0953C135.222 54.5987 134.866 54.7324 134.933 54.8838C135.123 55.2358 135.521 55.3766 135.848 55.2041C136.2 55.0351 136.531 54.8204 136.83 54.5635C136.623 55.2886 136.306 55.9679 135.897 56.5734C134.968 57.9673 134.972 58.8086 137.006 58.7628C138.284 58.7347 139.256 57.8371 140.037 54.7078C140.266 53.8067 140.713 52.2543 140.903 51.0857C141.529 47.2348 141.702 45.4396 141.526 43.7993V43.8064Z" fill="#FFA8A7"/>
<path d="M134.274 32.8381C134.274 32.8381 131.982 35.1613 136.393 41.8C136.393 41.8 139.068 41.6521 140.307 39.7197L138.529 35.9005C137.741 34.2073 136.129 33.0457 134.274 32.8345V32.8381Z" fill="#E54D38"/>
<path opacity="0.2" d="M134.274 32.8381C134.274 32.8381 131.982 35.1613 136.393 41.8C136.393 41.8 139.068 41.6521 140.307 39.7197L138.529 35.9005C137.741 34.2073 136.129 33.0457 134.274 32.8345V32.8381Z" fill="black"/>
<path d="M137.277 127.333H127.998V137.167C127.998 137.854 128.452 138.54 129.357 139.061C131.17 140.107 134.105 140.107 135.918 139.061C136.823 138.537 137.277 137.854 137.277 137.167V127.333Z" fill="#E54D38"/>
<path opacity="0.4" d="M137.277 127.333H127.998V137.167C127.998 137.854 128.452 138.54 129.357 139.061C131.17 140.107 134.105 140.107 135.918 139.061C136.823 138.537 137.277 137.854 137.277 137.167V127.333Z" fill="black"/>
<path d="M132.634 130.018C135.196 130.018 137.273 128.819 137.273 127.34C137.273 125.86 135.196 124.661 132.634 124.661C130.071 124.661 127.994 125.86 127.994 127.34C127.994 128.819 130.071 130.018 132.634 130.018Z" fill="#E54D38"/>
<path d="M140.86 122.376H124.407V126.1C124.407 127.315 125.21 128.533 126.815 129.459C130.029 131.314 135.235 131.314 138.449 129.459C140.054 128.533 140.856 127.315 140.856 126.1V122.376H140.86Z" fill="#E54D38"/>
<path opacity="0.2" d="M140.86 122.376H124.407V126.1C124.407 127.315 125.21 128.533 126.815 129.459C130.029 131.314 135.235 131.314 138.449 129.459C140.054 128.533 140.856 127.315 140.856 126.1V122.376H140.86Z" fill="black"/>
<path d="M138.452 125.745C135.238 127.6 130.032 127.6 126.819 125.745C123.605 123.89 123.605 120.884 126.819 119.029C130.032 117.174 135.238 117.174 138.452 119.029C141.666 120.884 141.666 123.89 138.452 125.745Z" fill="#E54D38"/>
<path d="M137.277 111.056H127.998V120.891C127.998 121.577 128.452 122.264 129.357 122.785C131.17 123.83 134.105 123.83 135.918 122.785C136.823 122.26 137.277 121.577 137.277 120.891V111.056Z" fill="#E54D38"/>
<path opacity="0.2" d="M137.277 111.056H127.998V120.891C127.998 121.577 128.452 122.264 129.357 122.785C131.17 123.83 134.105 123.83 135.918 122.785C136.823 122.26 137.277 121.577 137.277 120.891V111.056Z" fill="black"/>
<path d="M132.634 113.742C135.196 113.742 137.273 112.542 137.273 111.063C137.273 109.584 135.196 108.384 132.634 108.384C130.071 108.384 127.994 109.584 127.994 111.063C127.994 112.542 130.071 113.742 132.634 113.742Z" fill="#E54D38"/>
<path d="M115.913 152.24L103.91 145.309V133.475L109.912 130.046L115.913 140.402V152.24Z" fill="#E54D38"/>
<path opacity="0.2" d="M115.913 152.24L103.91 145.309V133.475L109.912 130.046L115.913 140.402V152.24Z" fill="white"/>
<path d="M115.914 140.402L109.912 130.046L117.843 125.467L123.844 135.823L115.914 140.402Z" fill="#E54D38"/>
<path d="M115.913 152.24V140.402L123.844 135.823V147.661L115.913 152.24Z" fill="#E54D38"/>
<path opacity="0.2" d="M115.913 152.24V140.402L123.844 135.823V147.661L115.913 152.24Z" fill="black"/>
<path d="M82.8675 117.462L54.6758 90.1261L59.4911 71.0125L87.6828 98.3488L82.8675 117.462Z" fill="#E54D38"/>
<path d="M117.536 89.8514L87.6826 98.3487L82.8672 117.462L112.72 108.965L117.536 89.8514Z" fill="#E54D38"/>
<path opacity="0.2" d="M117.536 89.8514L87.6826 98.3487L82.8672 117.462L112.72 108.965L117.536 89.8514Z" fill="black"/>
<path d="M89.3443 62.5187L59.4912 71.0124L87.6829 98.3488L117.536 89.8515L89.3443 62.5187Z" fill="#E54D38"/>
<path opacity="0.2" d="M89.3443 62.5187L59.4912 71.0124L87.6829 98.3488L117.536 89.8515L89.3443 62.5187Z" fill="white"/>
<path d="M104.842 71.4489L78.3932 64.7855L75.3765 76.7641C74.8837 78.7177 75.6828 80.9986 77.8898 83.1388C82.3039 87.4226 90.678 89.5311 96.5916 87.8521C99.5484 87.0108 101.333 85.3845 101.826 83.4274L104.842 71.4489Z" fill="#E54D38"/>
<path opacity="0.2" d="M104.842 71.4489L78.3932 64.7855L75.3765 76.7641C74.8837 78.7177 75.6828 80.9986 77.8898 83.1388C82.3039 87.4226 90.678 89.5311 96.5916 87.8521C99.5484 87.0108 101.333 85.3845 101.826 83.4274L104.842 71.4489Z" fill="black"/>
<path d="M104.837 71.4701C105.899 67.253 100.84 62.3429 93.5373 60.5031C86.2343 58.6633 79.4528 60.5904 78.3904 64.8075C77.328 69.0246 82.3871 73.9346 89.6901 75.7745C96.9931 77.6143 103.775 75.6871 104.837 71.4701Z" fill="#E54D38"/>
</svg>
