<svg width="136" height="120" viewBox="0 0 136 120" fill="none" xmlns="http://www.w3.org/2000/svg">
<g clip-path="url(#clip0_124_146572)">
<path opacity="0.1" d="M132.693 69.5637C132.693 69.6548 132.693 69.746 132.693 69.8356C132.678 71.4077 132.592 72.9757 132.434 74.5398C132.435 74.5493 132.435 74.5588 132.434 74.5682C132.422 74.6982 132.408 74.8267 132.394 74.9567C132.37 75.1764 132.346 75.3946 132.318 75.6143C131.995 78.2881 131.462 80.9273 130.722 83.5029C129.732 86.9832 128.333 90.3119 126.558 93.4074C126.012 94.3538 125.43 95.2698 124.813 96.1554C124.483 96.6247 124.147 97.0834 123.8 97.5347C123.556 97.8505 123.308 98.1613 123.056 98.4672L122.898 98.6555C121.568 100.232 120.134 101.704 118.608 103.058C116.118 105.287 113.436 107.227 110.712 109.026C110.557 109.129 110.4 109.231 110.244 109.325C110.233 109.334 110.222 109.341 110.209 109.347C106.507 111.765 102.667 113.947 98.7112 115.694C94.3803 117.611 89.9082 119.005 85.3199 119.615C78.9246 120.464 72.4518 119.773 66.0952 118.587C60.8085 117.606 55.5859 116.258 50.4597 114.552L49.6156 114.267C49.1784 114.116 48.7416 113.963 48.3053 113.807C45.6698 112.865 43.0639 111.819 40.4875 110.668C34.0168 107.79 27.8352 104.206 22.039 99.9705C21.301 99.4345 20.5737 98.8866 19.8569 98.3267C18.8551 97.5477 17.8653 96.7457 16.8876 95.9208L16.2843 95.4157C13.7254 93.2518 11.3279 90.8739 9.11407 88.3042C6.1364 84.8044 3.59182 80.8564 1.91896 76.3495C1.65514 75.6411 1.41346 74.9194 1.19391 74.1842L1.17316 74.1109C1.06246 73.7374 0.960071 73.3638 0.865981 72.9753C0.727614 72.4193 0.606312 71.8565 0.502075 71.2866C0.479936 71.1776 0.460565 71.0685 0.442577 70.9579C0.111863 69.0402 -0.0342009 67.0906 0.00671941 65.1404C0.0413258 63.4317 0.226654 61.7304 0.560189 60.0597C0.901572 58.3277 1.42765 56.6443 2.12789 55.0432C2.7607 53.6034 3.56699 52.2603 4.5258 51.0488C5.19955 50.2018 5.95726 49.4371 6.78534 48.7684C8.28663 47.561 9.95119 46.7197 11.6766 46.0547C12.4875 45.7409 13.3094 45.4659 14.1354 45.2104C14.7207 45.0281 15.3088 44.8548 15.8941 44.6844L17.6209 44.1808C18.7278 43.855 19.8348 43.5203 20.9251 43.1587C23.8972 42.1784 26.8099 40.9919 29.5039 39.2226C29.9301 38.9431 30.3645 38.6368 30.799 38.308C31.3525 37.8926 31.8977 37.4413 32.4373 36.9542C32.9825 36.461 33.5166 35.9335 34.0257 35.3747C34.1046 35.288 34.1821 35.2013 34.2596 35.1131C34.6747 34.6409 35.0773 34.1463 35.4509 33.6323C35.6336 33.3812 35.8107 33.1257 35.9795 32.8657C36.2133 32.5055 36.4347 32.1394 36.6395 31.7628C37.6662 29.88 38.2999 27.8028 38.2252 25.6136C38.2143 25.2529 38.1842 24.8932 38.1353 24.5362C37.9554 23.2167 37.7824 21.9286 37.6551 20.6689C37.121 15.4581 37.3466 10.733 40.9676 6.2933C45.4701 0.774704 52.5365 -0.350534 58.9692 0.0902964C77.5672 1.36049 94.4979 12.8281 109.377 26.4803C110.663 27.6599 111.934 28.8553 113.19 30.0668C113.506 30.3716 113.823 30.6784 114.141 30.9873C116.493 33.2751 118.809 35.6481 120.966 38.19C121.141 38.3962 121.315 38.6024 121.486 38.8101C121.592 38.9387 121.698 39.0657 121.802 39.1957C122.474 40.0176 123.127 40.8594 123.76 41.7211C125.455 44.0088 126.952 46.4599 128.232 49.0434C130.192 53.0978 131.518 57.4738 132.159 61.9948C132.399 63.6366 132.558 65.2913 132.633 66.9516C132.657 67.4402 132.672 67.9304 132.68 68.419C132.68 68.5759 132.68 68.7313 132.68 68.8882C132.694 69.1154 132.694 69.3365 132.693 69.5637Z" fill="#9CD8DF"/>
<path d="M54.5147 67.0587L52.3008 109.616L54.5147 109.647L56.3134 66.4609L54.5147 67.0587Z" fill="#3F3D56"/>
<path d="M46.3499 88.6172H18.9531V95.0429H46.3499V88.6172Z" fill="#9CD8DF"/>
<path d="M48.1486 94.2969V98.3316H19.8483C18.8465 97.5526 17.8567 96.7506 16.8789 95.9257V94.2969H48.1486Z" fill="#3F3D56"/>
<path d="M53.7991 85.1138C53.7216 85.5008 53.6206 85.8834 53.514 86.2644C53.1999 87.3658 52.8222 88.4522 52.7488 89.5968C52.6506 91.1091 53.0256 92.8679 52.057 93.9663C51.8079 94.2502 51.4828 94.4624 51.26 94.7657C51.2257 94.8133 51.1943 94.8632 51.1659 94.9152C50.9667 95.2708 50.9431 95.7042 50.9404 96.1107C50.9427 96.9775 50.9949 97.8434 51.0967 98.7033C51.4247 101.662 52.0722 104.627 51.2213 107.42C51.0671 107.904 50.8874 108.379 50.683 108.841C50.2679 109.827 49.8155 110.8 49.6799 111.868C49.5802 112.66 49.6107 113.476 49.6051 114.282C49.1679 114.131 48.7311 113.978 48.2948 113.822C45.6594 112.88 43.0534 111.834 40.477 110.683C40.484 110.643 40.4909 110.601 40.4964 110.561C40.6943 109.231 40.4231 107.871 40.0938 106.574C39.4019 103.826 38.4223 101.105 37.8425 98.3372C37.609 97.2563 37.4559 96.1569 37.3845 95.0497C37.3679 94.8016 37.3582 94.5521 37.3568 94.3025C37.3499 93.9767 37.3568 93.651 37.3693 93.3222C37.3984 92.6662 37.4246 91.8876 36.939 91.4887C36.6719 91.272 36.3191 91.2346 36.0078 91.1031C35.4073 90.8506 34.9963 90.2648 34.5203 89.7956C34.2933 89.5577 34.016 89.3831 33.7125 89.2867C33.409 89.1904 33.0884 89.1753 32.7783 89.2427C29.6678 90.0122 27.3819 92.862 24.4873 94.3025C24.3752 94.3593 24.2631 94.4131 24.1497 94.4639C23.7752 94.612 23.4189 94.8087 23.0884 95.0497C22.8562 95.2237 22.6878 95.4802 22.6124 95.7744C22.5391 96.0912 22.6027 96.423 22.6387 96.7487C22.6969 97.2784 22.6759 97.8147 22.5764 98.3372C22.5389 98.5397 22.4895 98.7393 22.4284 98.9349C22.3177 99.2891 22.1696 99.6358 22.0285 99.981C21.2905 99.445 20.5632 98.8971 19.8464 98.3372C18.8447 97.5582 17.8549 96.7562 16.8771 95.9313L16.2835 95.4158C13.7246 93.2518 11.3271 90.874 9.11328 88.3042C9.408 87.4076 9.83418 86.5738 10.039 85.6548C10.1552 85.1273 10.1981 84.5788 10.3586 84.0663C10.5437 83.5349 10.8011 83.0363 11.1224 82.5869C12.299 80.8148 13.7357 79.2621 15.3758 77.9903C17.0902 76.6633 19.0702 75.5993 20.613 74.093C21.2391 73.5011 21.7788 72.8104 22.2139 72.0443C22.2402 71.998 22.2651 71.9487 22.2872 71.8949C22.4077 71.6244 22.4911 71.3365 22.5349 71.0401C22.6456 70.3707 22.629 69.6354 22.6844 68.9929C24.5638 69.3442 26.4798 69.4066 28.3754 69.1782C30.5824 68.9107 32.7409 68.2487 34.9479 67.9917C35.1139 67.9707 35.2813 67.9543 35.4488 67.9394C36.1558 67.8781 36.8643 67.8646 37.5741 67.8736C38.1677 67.8736 38.7613 67.902 39.3549 67.9229L45.89 68.162C46.6136 68.1889 47.3525 68.2188 48.0264 68.5042C48.8261 68.8434 49.4668 69.5189 49.9801 70.2616C50.0451 70.3572 50.1102 70.4528 50.1711 70.5515C50.5935 71.2169 50.9322 71.94 51.1784 72.7018C51.2047 72.7795 51.2296 72.8513 51.2531 72.9364C51.3154 73.1441 51.3693 73.3534 51.4177 73.5656C51.4551 73.7314 51.4883 73.8973 51.5188 74.0647C51.671 74.8925 51.7609 75.7383 52.0017 76.5378C52.0183 76.5961 52.0362 76.6544 52.0556 76.7111C52.3448 77.5868 52.825 78.3713 53.1875 79.2127C53.4489 79.8217 53.6483 80.4595 53.7825 81.1149C54.0535 82.4312 54.0591 83.795 53.7991 85.1138Z" fill="#35323E"/>
<path d="M33.9376 31.6374C33.3537 31.1353 32.5069 31.5029 31.8234 31.8272C31.2503 32.1005 30.6604 32.3307 30.0578 32.5161C29.9345 32.5673 29.8008 32.5823 29.6704 32.5594C29.3937 32.4877 29.2774 32.1335 29.0713 31.9183C28.7129 31.5462 28.1262 31.6344 27.6641 31.8361C27.2019 32.0379 26.7453 32.3293 26.25 32.2844C25.7214 32.2396 25.262 31.8182 24.7279 31.8048C23.787 31.7809 22.9969 33.0331 22.1072 32.7014C21.5648 32.4996 21.1387 31.7375 20.6046 31.9542C20.1895 32.1245 20.1521 32.7447 19.9016 33.1497C19.6069 33.6219 19.0327 33.7549 18.5415 33.9641C16.9932 34.6246 15.9679 36.488 16.1699 38.2723C16.282 39.257 16.7233 40.1596 17.0153 41.0996C17.8815 43.8327 17.584 46.9155 18.6757 49.5515C18.8141 49.4111 18.8916 49.3588 19.0258 49.2198C18.6806 49.993 18.614 50.8772 18.839 51.7004C18.9538 52.1143 19.1406 52.4999 19.2818 52.9049C19.4284 53.3591 19.5467 53.8233 19.636 54.2946L20.8398 60.0299C21.3102 62.2714 21.7821 64.5129 21.8637 66.8082C21.9145 68.3007 21.8087 69.7946 21.5482 71.2613C23.7289 70.8713 25.7242 69.8268 27.9339 69.8402C28.7447 69.8402 29.5486 69.9896 30.3525 70.1092C32.6964 70.4634 35.0606 70.6367 37.4273 70.6277C37.7954 70.6503 38.164 70.5945 38.5121 70.4633C38.8165 70.3229 39.0656 70.0733 39.3534 69.8925C39.9165 69.5339 40.5987 69.4442 41.2476 69.4442C44.2073 69.3859 47.059 70.556 49.9994 70.9684C51.1603 68.3369 51.2294 65.1838 50.3383 62.4328C50.0741 61.6154 49.7185 60.8189 49.6133 59.9596C49.5711 59.4314 49.56 58.9009 49.5801 58.3711C49.5755 57.015 49.3492 55.6704 48.9118 54.3992C48.7402 53.9016 48.534 53.395 48.552 52.8645C48.57 52.334 48.8122 51.8394 49.0501 51.3702C49.5331 50.4138 50.0187 49.4484 50.7009 48.6415C51.3996 47.8077 52.2741 47.1726 53.1389 46.5494L55.2739 45.0013C54.982 43.0093 54.6056 40.9113 53.8238 39.0792C53.042 37.2471 51.8728 35.563 50.2913 34.4916C49.7581 34.1452 49.2001 33.8453 48.6226 33.595C47.8145 33.2274 46.9733 32.9031 46.0974 32.8478C45.1011 32.7865 44.1201 33.075 43.1363 33.2543C40.0397 33.8176 36.3951 33.7489 33.9376 31.6374Z" fill="#9CD8DF"/>
<path d="M57.2823 66.2046L56.2667 67.5899L54.3517 70.2005L52.1378 73.2176L51.5193 74.0604H50.3196L20.6135 74.0977L2.01 74.1202H1.1798C1.0691 73.7466 0.966713 73.373 0.872623 72.9845C0.734255 72.4286 0.612954 71.8657 0.508717 71.2959C0.486578 71.1868 0.467207 71.0777 0.449219 70.9671L7.19878 66.2016L9.73644 66.1867L17.4989 66.1389L21.8339 66.112H22.6254H23.1221L26.0112 66.0955L48.031 65.9595L49.1573 65.9521H49.6458L50.9395 65.9446L55.7533 65.9147L56.6776 65.5352L56.7454 65.6129L57.2823 66.2046Z" fill="#3F3D56"/>
<path d="M56.8661 65.4563L56.7512 65.6058L55.9957 66.5666L54.4405 68.5496L51.1792 72.7024L22.288 71.9059L0.502075 71.3082C0.479936 71.1991 0.460565 71.09 0.442577 70.9794C0.111863 69.0617 -0.0342009 67.1122 0.00671941 65.162L2.42262 63.826L2.97609 63.5182L7.28346 61.1272L11.0637 59.0352L20.9237 60.4189L23.1072 60.7253L24.0951 60.8627L25.5411 61.066L25.6628 61.0839L48.3371 64.2594L50.8429 64.6106L52.3138 64.8168L56.8467 65.4534L56.8661 65.4563Z" fill="#504F60"/>
<path d="M52.1603 72.6289L52.1368 73.2162L51.9984 76.5321L51.254 94.7631L51.0963 98.7037L50.6812 108.841L50.4474 114.568L49.6033 114.282C49.1661 114.132 48.7293 113.978 48.293 113.822L50.3173 74.0724L50.3602 73.2386L51.2513 72.9397L52.1603 72.6289Z" fill="#3F3D56"/>
<path d="M2.07375 72.582L2.01149 74.1167L1.92016 76.3582C1.65634 75.6499 1.41466 74.9281 1.19512 74.1929L1.17436 74.1197C1.06367 73.7461 0.961277 73.3725 0.867188 72.984L2.07375 72.582Z" fill="#3F3D56"/>
<path d="M38.2555 49.9908C41.7708 49.9908 44.6204 45.8427 44.6204 40.7259C44.6204 35.609 41.7708 31.4609 38.2555 31.4609C34.7403 31.4609 31.8906 35.609 31.8906 40.7259C31.8906 45.8427 34.7403 49.9908 38.2555 49.9908Z" fill="#A1616A"/>
<path opacity="0.1" d="M38.2555 49.9908C41.7708 49.9908 44.6204 45.8427 44.6204 40.7259C44.6204 35.609 41.7708 31.4609 38.2555 31.4609C34.7403 31.4609 31.8906 35.609 31.8906 40.7259C31.8906 45.8427 34.7403 49.9908 38.2555 49.9908Z" fill="black"/>
<path d="M39.1563 44.6861C44.0471 44.6861 48.0118 40.4043 48.0118 35.1224C48.0118 29.8404 44.0471 25.5586 39.1563 25.5586C34.2655 25.5586 30.3008 29.8404 30.3008 35.1224C30.3008 40.4043 34.2655 44.6861 39.1563 44.6861Z" fill="#A1616A"/>
<path d="M39.3317 20.3808C38.7911 20.4274 38.2542 20.5158 37.7253 20.6453C36.325 21.0129 35.1143 21.8288 33.9354 22.6298C33.4068 22.9899 32.863 23.365 32.5351 23.894C31.9457 24.8429 32.174 26.0503 31.8433 27.1038C31.6717 27.6448 31.3562 28.1305 31.0892 28.634C30.3544 30.0148 29.9698 31.5316 29.592 33.0334C29.5146 33.3442 29.4924 33.7656 29.8065 33.8852C29.9874 33.9257 30.1755 33.9027 30.3434 33.8194C31.3355 33.4653 32.596 33.3636 33.3321 34.0824C34.0682 34.8012 34.006 36.0759 34.8818 36.6228C35.885 37.2549 37.4513 36.4913 38.3618 37.237C38.752 37.5568 38.8931 38.0693 39.2127 38.4549C39.9571 39.3515 41.3892 39.3081 42.5806 39.1273C43.2641 39.0227 44.1026 38.9525 44.5177 39.471C44.717 39.7161 44.7737 40.0523 45.0048 40.2735C45.4199 40.6739 46.1795 40.4707 46.5849 40.0598C46.9904 39.6488 47.1841 39.0929 47.5217 38.6312C48.1789 37.7346 49.3343 37.2459 50.0123 36.3598C50.5796 35.6126 50.7512 34.6772 50.9062 33.7746L51.4832 30.4288C51.717 29.0719 51.9301 27.5895 51.223 26.394C50.9712 25.9637 50.6101 25.5931 50.3928 25.1478C50.2475 24.8489 50.1659 24.5336 49.9971 24.2511C49.7969 23.9569 49.5577 23.6961 49.2873 23.4771L47.9216 22.2562C47.4546 21.8148 46.9553 21.415 46.4286 21.0607C44.479 19.8339 41.5594 20.1567 39.3317 20.3808Z" fill="#464353"/>
<path d="M10.1624 45.0159C9.83448 45.3925 9.53146 45.799 9.18 46.1516C8.87084 46.4486 8.54754 46.7279 8.21143 46.9885C7.66903 47.4268 7.13862 47.8806 6.62021 48.3498C6.07935 48.8116 5.58995 49.3397 5.16181 49.9233C4.42293 50.9948 4.07286 52.3277 3.38102 53.435C2.76944 54.4168 1.90741 55.1924 1.28614 56.1667C1.01359 56.5763 0.811146 57.0354 0.688393 57.5221C0.596767 57.9931 0.555448 58.4739 0.565246 58.9551C0.552793 59.7441 0.541724 60.5421 0.691161 61.3147C0.840598 62.0873 1.16853 62.8464 1.7303 63.353C2.25195 63.8237 2.9258 64.0404 3.58581 64.2197C3.92619 64.3109 4.29425 64.396 4.61803 64.2511C4.85495 64.1218 5.0606 63.9345 5.21854 63.7041L6.90248 61.6121C8.02879 60.2074 9.19938 58.7728 10.7449 57.9509C11.2292 57.6954 11.7398 57.5026 12.2255 57.2546C14.2844 56.1831 15.74 53.9894 16.3045 51.5985C16.4429 51.0142 16.5315 50.418 16.6214 49.8217L16.8649 48.1869C16.8836 48.105 16.8836 48.0193 16.8649 47.9374C16.8268 47.8452 16.7654 47.7665 16.6878 47.7102C15.5149 46.6872 14.4167 45.5681 13.403 44.3629C13.1622 44.076 12.9367 43.683 12.6586 43.4424C12.3099 43.1435 12.3362 43.1659 11.9169 43.4424C11.272 43.8834 10.6823 44.4123 10.1624 45.0159Z" fill="#A1616A"/>
<path d="M21.6842 55.8953C21.6702 55.8606 21.6498 55.8293 21.6243 55.8033C21.5989 55.7773 21.5688 55.7571 21.5359 55.744C21.503 55.7309 21.468 55.725 21.433 55.7269C21.398 55.7287 21.3637 55.7382 21.3321 55.7547C21.3006 55.7713 21.2725 55.7945 21.2495 55.8231C21.2265 55.8516 21.209 55.8849 21.1982 55.9209C21.1874 55.9569 21.1835 55.995 21.1866 56.0327C21.1897 56.0704 21.1999 56.107 21.2165 56.1404L21.0781 56.2136L25.2042 65.347L25.95 64.954L21.8239 55.8146L21.6842 55.8953Z" fill="#3F3D56"/>
<path opacity="0.04" d="M10.1624 45.0159C9.83448 45.3925 9.53146 45.799 9.18 46.1516C8.87084 46.4486 8.54754 46.7279 8.21143 46.9885C7.66903 47.4268 7.13862 47.8806 6.62021 48.3498C6.07935 48.8116 5.58995 49.3397 5.16181 49.9233C4.42293 50.9948 4.07286 52.3277 3.38102 53.435C2.76944 54.4168 1.90741 55.1924 1.28614 56.1667C1.01359 56.5763 0.811146 57.0354 0.688393 57.5221C0.596767 57.9931 0.555448 58.4739 0.565246 58.9551C0.552793 59.7441 0.541724 60.5421 0.691161 61.3147C0.840598 62.0873 1.16853 62.8464 1.7303 63.353C2.25195 63.8237 2.9258 64.0404 3.58581 64.2197C3.92619 64.3109 4.29425 64.396 4.61803 64.2511C4.85495 64.1218 5.0606 63.9345 5.21854 63.7041L6.90248 61.6121C8.02879 60.2074 9.19938 58.7728 10.7449 57.9509C11.2292 57.6954 11.7398 57.5026 12.2255 57.2546C14.2844 56.1831 15.74 53.9894 16.3045 51.5985C16.4429 51.0142 16.5315 50.418 16.6214 49.8217L16.8649 48.1869C16.8836 48.105 16.8836 48.0193 16.8649 47.9374C16.8268 47.8452 16.7654 47.7665 16.6878 47.7102C15.5149 46.6872 14.4167 45.5681 13.403 44.3629C13.1622 44.076 12.9367 43.683 12.6586 43.4424C12.3099 43.1435 12.3362 43.1659 11.9169 43.4424C11.272 43.8834 10.6823 44.4123 10.1624 45.0159Z" fill="black"/>
<path d="M57.8659 61.8491C57.852 62.8025 57.8175 63.7842 57.4508 64.654C57.293 65.0305 57.0481 65.4011 56.6815 65.5252C56.4596 65.5805 56.2299 65.5896 56.0048 65.5521C53.2902 65.2944 50.5548 65.5287 47.9117 66.2454C48.6174 64.7212 48.212 62.8936 48.4071 61.202C48.461 60.7403 48.5593 60.286 48.5966 59.8228C48.735 58.179 48.0833 56.583 47.7844 54.9602C47.525 53.5554 47.525 52.1091 47.7844 50.7043C47.8353 50.3427 47.9504 49.9951 48.1234 49.6807C48.3261 49.3747 48.5925 49.1244 48.9011 48.9499C50.0218 48.2611 51.3432 48.1819 52.6024 48.273C53.4506 48.3343 55.1511 48.2476 55.8582 48.811C56.6316 49.4281 56.8766 51.5008 57.0855 52.4587C57.3983 53.9277 57.6111 55.4196 57.722 56.9222C57.8576 58.56 57.8866 60.2053 57.8659 61.8491Z" fill="#A1616A"/>
<path d="M8.29688 65.1562L13.2781 68.7427L35.6936 67.8461L20.8883 65.1562H8.29688Z" fill="white"/>
<path d="M14.8682 36.6621C14.0505 37.4406 13.3573 38.3581 12.5824 39.1875C11.5197 40.3262 10.3118 41.2945 9.10938 42.2584C9.5405 42.3885 9.93293 42.6373 10.2482 42.9805C10.5636 43.3237 10.791 43.7494 10.9082 44.216C10.9607 44.4356 10.987 44.6643 11.0465 44.8794C11.1849 45.389 11.4893 45.8283 11.8158 46.2243C13.2189 47.9324 15.1823 49.1966 16.0098 51.3051C16.0368 51.4077 16.0953 51.4973 16.1758 51.5591C16.2431 51.5913 16.3179 51.6007 16.3903 51.586C17.1388 51.5009 17.7117 50.8493 18.189 50.2157C19.1853 48.8708 20.0501 47.3854 20.5413 45.7447C21.0325 44.1039 21.1114 42.2897 20.5759 40.6639C20.3088 39.854 19.8965 39.1098 19.4869 38.3731C19.1281 37.7285 18.7702 37.085 18.4132 36.4424C18.2264 36.1032 17.9884 35.4143 17.6217 35.2469C16.8303 34.8793 15.376 36.1136 14.8682 36.6621Z" fill="#9CD8DF"/>
<path d="M55.6219 46.3215L56.7994 49.3102C55.5175 48.8264 54.1475 48.6792 52.8025 48.8806C51.4576 49.082 50.1763 49.6262 49.0647 50.4683C48.3936 50.9868 47.7778 51.6383 47.4748 52.4662C47.3253 52.4969 47.1707 52.4814 47.029 52.4213C46.8872 52.3613 46.7641 52.2593 46.6737 52.127C46.4966 51.8587 46.3939 51.5415 46.3776 51.2125C46.2683 50.0648 46.6709 48.9396 47.0694 47.8666C47.2548 47.3645 47.4458 46.852 47.7751 46.444C48.1044 46.0361 48.5416 45.7671 48.9789 45.513C50.3738 44.6799 51.8347 43.9827 53.3444 43.4299C53.9808 43.2073 54.6478 43.2118 55.0048 43.8543C55.4185 44.6209 55.2981 45.5056 55.6219 46.3215Z" fill="#9CD8DF"/>
<path d="M8.32839 55.2875C8.62311 55.5416 8.88186 55.8419 9.18488 56.084C9.50535 56.3243 9.84636 56.531 10.2033 56.7012L11.5676 57.4095C11.9903 57.6468 12.4327 57.8409 12.889 57.9893C13.4729 58.1582 14.0859 58.1746 14.6725 58.3315C15.4128 58.5288 16.0894 58.9397 16.8186 59.1773C17.5478 59.4149 18.4015 59.4538 19.0104 58.9591C19.3909 58.6498 19.6787 58.1387 20.1505 58.0625C20.4549 58.0192 20.7483 58.1776 21.0195 58.3315L24.57 60.3474C25.0487 60.6193 25.5551 60.9212 25.8056 61.4397C26.056 61.9583 25.8872 62.7458 25.36 62.8803C25.1763 62.9031 24.9915 62.9146 24.8066 62.9147C24.6239 62.9386 24.4247 63.0551 24.3998 63.2539C24.3988 63.3773 24.429 63.4987 24.4869 63.605C24.6461 63.9995 24.6931 64.4718 24.5077 64.8543C24.3223 65.2369 23.8671 65.4745 23.5032 65.3026C23.5654 65.8809 22.9829 66.2859 22.464 66.4398C21.1551 66.8268 19.7672 66.5892 18.4292 66.3442C17.9034 66.2485 17.3693 66.1499 16.8906 65.8959C16.6609 65.7748 16.4478 65.6194 16.2153 65.5073C15.5775 65.201 14.8524 65.2413 14.155 65.2548C10.9297 65.3161 7.73203 64.6705 4.56064 64.0279C3.97258 63.9084 3.36792 63.7814 2.86564 63.4302C1.89707 62.7488 1.53731 61.3501 1.69644 60.1128C1.85556 58.8755 2.4367 57.7547 3.00816 56.6668L3.74843 55.2577C3.8452 55.0418 3.98064 54.8488 4.14693 54.6898C5.23588 53.7917 7.39579 54.4776 8.32839 55.2875Z" fill="#A1616A"/>
<path opacity="0.04" d="M8.32839 55.2875C8.62311 55.5416 8.88186 55.8419 9.18488 56.084C9.50535 56.3243 9.84636 56.531 10.2033 56.7012L11.5676 57.4095C11.9903 57.6468 12.4327 57.8409 12.889 57.9893C13.4729 58.1582 14.0859 58.1746 14.6725 58.3315C15.4128 58.5288 16.0894 58.9397 16.8186 59.1773C17.5478 59.4149 18.4015 59.4538 19.0104 58.9591C19.3909 58.6498 19.6787 58.1387 20.1505 58.0625C20.4549 58.0192 20.7483 58.1776 21.0195 58.3315L24.57 60.3474C25.0487 60.6193 25.5551 60.9212 25.8056 61.4397C26.056 61.9583 25.8872 62.7458 25.36 62.8803C25.1763 62.9031 24.9915 62.9146 24.8066 62.9147C24.6239 62.9386 24.4247 63.0551 24.3998 63.2539C24.3988 63.3773 24.429 63.4987 24.4869 63.605C24.6461 63.9995 24.6931 64.4718 24.5077 64.8543C24.3223 65.2369 23.8671 65.4745 23.5032 65.3026C23.5654 65.8809 22.9829 66.2859 22.464 66.4398C21.1551 66.8268 19.7672 66.5892 18.4292 66.3442C17.9034 66.2485 17.3693 66.1499 16.8906 65.8959C16.6609 65.7748 16.4478 65.6194 16.2153 65.5073C15.5775 65.201 14.8524 65.2413 14.155 65.2548C10.9297 65.3161 7.73203 64.6705 4.56064 64.0279C3.97258 63.9084 3.36792 63.7814 2.86564 63.4302C1.89707 62.7488 1.53731 61.3501 1.69644 60.1128C1.85556 58.8755 2.4367 57.7547 3.00816 56.6668L3.74843 55.2577C3.8452 55.0418 3.98064 54.8488 4.14693 54.6898C5.23588 53.7917 7.39579 54.4776 8.32839 55.2875Z" fill="black"/>
<path d="M50.5676 57.87C49.8467 58.2376 49.0192 58.2735 48.2665 58.5559C47.5138 58.8383 46.8745 59.3464 46.1841 59.7603C44.3853 60.8452 42.3098 61.2547 40.2716 61.6447C39.036 61.8838 37.781 62.1229 36.5357 62.0661C34.8504 61.9884 33.2315 61.3817 31.5988 60.9244C29.966 60.4672 28.224 60.1593 26.6065 60.6734C25.7618 60.9511 24.9897 61.4399 24.3526 62.1002C23.7155 62.7604 23.2315 63.5735 22.9397 64.4735C22.6007 65.5479 22.5537 66.706 22.6187 67.8387C22.9591 68.1092 23.4351 67.7341 23.6205 67.3232C23.8059 66.9122 23.9069 66.4086 24.2667 66.1696C24.8907 66.3982 25.0429 67.2963 25.5576 67.7401C25.8787 68.018 26.3076 68.0913 26.7158 68.154L28.819 68.4768C29.3254 68.5545 29.9135 68.6068 30.2801 68.2213C30.4586 68.0345 30.5569 67.773 30.7201 67.5727C31.055 67.1723 31.614 67.1035 32.1121 67.1573C33.6674 67.3247 35.1258 68.414 36.6699 68.1555C37.2013 68.0674 37.6952 67.8223 38.2017 67.6295C41.2029 66.4849 44.5375 67.1812 47.6605 66.5252C48.8518 66.2757 49.9989 65.8333 51.1321 65.3671C51.7478 65.1146 52.3705 64.8501 52.8963 64.4227C53.3944 64.009 53.7873 63.4656 54.038 62.8433C54.2887 62.2211 54.3891 61.5403 54.3298 60.8646C54.2139 59.835 53.7383 58.8921 53.0001 58.2286C52.7565 58.0045 52.4369 57.5756 52.145 57.4351C51.5873 57.1706 51.0408 57.6294 50.5676 57.87Z" fill="#A1616A"/>
<g opacity="0.1">
<path opacity="0.1" d="M46.5208 38.7804C46.2897 38.5592 46.233 38.223 46.0337 37.9779C45.6186 37.4594 44.7801 37.5296 44.0966 37.6342C42.9052 37.815 41.4676 37.8569 40.7287 36.9618C40.4091 36.5762 40.2679 36.0652 39.8777 35.7439C38.9673 34.9967 37.401 35.7618 36.3978 35.1297C35.5219 34.5783 35.5787 33.2992 34.8481 32.5893C34.1175 31.8795 32.8514 31.9722 31.8593 32.3263C31.6915 32.4096 31.5033 32.4327 31.3225 32.3921C31.0084 32.2725 31.0305 31.8511 31.108 31.5403C31.4858 30.0385 31.8704 28.5217 32.6051 27.141C32.8722 26.6374 33.1877 26.1517 33.3593 25.6108C33.6595 24.6634 33.5059 23.5919 33.9003 22.6953C33.4769 22.9942 33.0701 23.3199 32.8085 23.7414C32.2191 24.6903 32.4474 25.8977 32.1167 26.9512C31.9451 27.4921 31.6297 27.9778 31.3626 28.4814C30.6279 29.8622 30.2432 31.3789 29.8655 32.8807C29.788 33.1916 29.7658 33.613 30.0799 33.7325C30.2608 33.7731 30.4489 33.75 30.6168 33.6668C31.6089 33.3126 32.8694 33.211 33.6055 33.9298C34.3417 34.6485 34.2794 35.9232 35.1553 36.4701C36.1584 37.1023 37.7247 36.3386 38.6352 37.0843C39.0254 37.4041 39.1665 37.9167 39.4862 38.3022C40.2306 39.1988 41.6627 39.1555 42.854 38.9747C43.5376 38.8701 44.3761 38.7998 44.7912 39.3184C44.9904 39.5634 45.0471 39.8997 45.2782 40.1208C45.6933 40.5213 46.453 40.3181 46.8584 39.9071C47.1183 39.6148 47.3408 39.2861 47.5198 38.9298C47.16 39.0479 46.7767 39.0299 46.5208 38.7804Z" fill="black"/>
<path opacity="0.1" d="M49.0406 37.1381C48.9515 37.2621 48.8688 37.3913 48.793 37.5251C49.3243 37.1157 49.8874 36.7331 50.2846 36.2116C50.3876 36.0766 50.4802 35.9327 50.5613 35.7812C50.0092 36.2086 49.4336 36.6016 49.0406 37.1381Z" fill="black"/>
</g>
<path d="M77 66.7266L77.4151 109.614L79.3523 109.315L78.9372 66.7266H77Z" fill="#3F3D56"/>
<path d="M88.6211 74.4961L89.0362 117.384L90.9733 117.085L90.5582 74.4961H88.6211Z" fill="#3F3D56"/>
<path d="M124.809 96.164L124.801 95.3406V94.8505L124.728 87.3071L124.613 75.5137L124.593 74.4961H122.656L122.666 75.4764L122.727 81.793L122.753 84.5276L122.775 86.7422L122.811 90.5707L122.833 92.8287V93.0678L122.862 96.0355L122.887 98.6521L123.045 98.4638C123.299 98.158 123.547 97.8472 123.789 97.5314L124.809 96.164Z" fill="#3F3D56"/>
<path d="M86.478 81.4453L85.3711 83.2325L86.478 91.3752L95.887 94.1562H111.107L120.24 94.7524L124.59 91.5366L123.837 86.0135L120.516 81.4453H86.478Z" fill="#9CD8DF"/>
<path d="M85.3717 83.2344L84.8183 88.1986C84.8183 88.1986 81.9125 97.9312 105.297 97.335C128.681 96.7387 124.668 94.7528 124.668 94.7528L124.53 88.9936C124.53 88.9936 125.345 91.7192 113.46 91.3501C101.576 90.981 90.4913 89.7886 90.4913 89.7886C90.4913 89.7886 86.3403 90.5821 85.3717 83.2344Z" fill="#3F3D56"/>
<path d="M104.85 38.7377C103.516 39.3937 102.506 40.6654 101.829 42.0715C101.153 43.4777 100.772 45.0214 100.397 46.5546C100.001 48.1714 99.6042 49.7928 99.3994 51.45C99.0341 54.3969 99.3081 57.4946 100.562 60.1411C101.815 62.7876 104.132 64.923 106.844 65.4326C107.891 65.6313 108.968 65.591 110.026 65.4729C111.939 65.2541 113.824 64.8055 115.645 64.1355C117.548 63.4406 119.528 62.3707 120.375 60.3996C120.866 59.2565 120.907 57.9534 120.884 56.6952C120.818 53.2658 120.339 49.8603 119.457 46.565C119.201 45.6086 118.904 44.6448 118.361 43.8393C117.819 43.0339 117.077 42.4436 116.32 41.8967C113.084 39.5431 108.831 36.7831 104.85 38.7377Z" fill="#FBBEBE"/>
<path opacity="0.05" d="M104.85 38.7377C103.516 39.3937 102.506 40.6654 101.829 42.0715C101.153 43.4777 100.772 45.0214 100.397 46.5546C100.001 48.1714 99.6042 49.7928 99.3994 51.45C99.0341 54.3969 99.3081 57.4946 100.562 60.1411C101.815 62.7876 104.132 64.923 106.844 65.4326C107.891 65.6313 108.968 65.591 110.026 65.4729C111.939 65.2541 113.824 64.8055 115.645 64.1355C117.548 63.4406 119.528 62.3707 120.375 60.3996C120.866 59.2565 120.907 57.9534 120.884 56.6952C120.818 53.2658 120.339 49.8603 119.457 46.565C119.201 45.6086 118.904 44.6448 118.361 43.8393C117.819 43.0339 117.077 42.4436 116.32 41.8967C113.084 39.5431 108.831 36.7831 104.85 38.7377Z" fill="black"/>
<path d="M103.354 57.5456C103.74 58.1187 104.207 58.6229 104.737 59.0399C106.055 60.0232 107.746 60.1562 109.345 60.21C110.629 60.2518 112.101 60.1726 112.907 59.0907C113.269 58.6036 113.432 57.9819 113.579 57.3767C114.484 53.6604 115.127 49.8754 115.502 46.0541L119.166 46.0675C120.752 53.4003 120.622 61.0229 120.484 68.5529L120.283 79.5333L117.922 79.2628C112.317 78.6218 106.704 77.9807 101.068 77.8701C97.7658 77.8045 94.4628 77.9222 91.1719 78.2228L96.3122 61.7163C96.9792 59.5704 97.653 57.3961 97.8094 55.1412C98.0349 51.8701 97.1853 48.4167 98.3628 45.3906C98.4569 45.147 98.5759 44.8945 98.7904 44.7675C99.0049 44.6405 99.2761 44.6718 99.5224 44.7062C99.9873 44.7735 101.408 44.7062 101.746 45.0275C102.244 45.4937 101.915 45.564 101.739 46.3156C101.425 47.6605 101.127 48.9053 101.132 50.307C101.136 52.8519 101.866 55.5387 103.354 57.5456Z" fill="#9CD8DF"/>
<path d="M124.809 96.1659C125.426 95.2813 126.008 94.3652 126.554 93.4178C126.277 92.7782 125.973 92.1536 125.73 91.5006C125.36 90.4994 125.146 89.4384 124.936 88.3849C124.864 88.0262 124.793 87.6676 124.722 87.3089C123.947 83.4072 123.219 79.4502 123.068 75.4947C123.054 75.1659 123.046 74.8372 123.042 74.5084C123.042 74.4606 123.042 74.4143 123.042 74.359C123.042 73.9989 123.042 73.6387 123.042 73.2801C123.058 72.3835 123.111 71.4794 123.207 70.5798C123.225 70.4035 123.245 70.2271 123.267 70.0508C123.267 70.012 123.276 69.9746 123.281 69.9357L132.69 69.5651L133.482 69.5338C134.026 69.5129 134.601 69.48 135.049 69.1467C135.804 68.5879 135.892 67.4417 135.88 66.4569C135.834 63.9679 135.573 61.4889 135.099 59.0525C134.742 57.2204 134.233 55.348 133.09 53.9403C132.152 52.7837 130.793 51.9424 130.305 50.5033C130.124 49.9684 130.078 49.3811 129.843 48.87C129.607 48.359 129.219 47.9839 128.852 47.5894C127.561 46.2084 126.491 44.6069 125.683 42.8493C125.123 41.63 124.516 40.285 123.784 39.4422C123.748 39.3989 123.712 39.3586 123.674 39.3197C123.052 38.6547 122.339 38.3633 121.495 38.8161C121.343 38.8984 121.199 38.9954 121.063 39.106C120.762 39.3542 120.487 39.6368 120.243 39.9488C119.39 41.0075 118.642 42.1594 118.011 43.3858C117.567 44.2492 117.186 45.1485 116.871 46.0756C116.622 46.8081 116.416 47.5567 116.255 48.3171C116.136 48.8805 116.042 49.4498 115.967 50.0207C115.69 52.1666 115.69 54.3543 115.729 56.527C115.771 58.5235 115.852 60.5244 116.02 62.5134C116.061 62.9945 116.107 63.4752 116.158 63.9554C116.26 64.9048 116.385 65.8512 116.534 66.7946C116.594 67.1548 116.655 67.5149 116.723 67.8736C116.739 67.9692 116.757 68.0648 116.775 68.159L116.784 68.1993C116.966 69.033 117.108 69.8764 117.208 70.7263C117.219 70.8329 117.228 70.9389 117.233 71.0446C117.257 71.533 117.253 72.0225 117.222 72.5105C117.19 73.0873 117.141 73.6626 117.116 74.2395C117.116 74.3411 117.116 74.4412 117.106 74.5383C117.099 74.8297 117.106 75.1211 117.106 75.4125C117.134 76.1096 117.211 76.8035 117.336 77.4881C117.569 78.7616 117.972 79.9918 118.532 81.1403C118.585 81.2479 118.639 81.354 118.693 81.4586C119.395 82.8125 120.28 84.0543 120.929 85.4395C121.489 86.6861 121.907 88.0012 122.174 89.3562C122.267 89.8035 122.354 90.2518 122.437 90.7011C122.566 91.4184 122.681 92.1416 122.798 92.8649C122.809 92.9366 122.822 93.0143 122.834 93.0801C122.991 94.0395 123.155 94.9943 123.367 95.9313C123.49 96.4767 123.629 97.0147 123.79 97.5437L124.809 96.1659Z" fill="#464353"/>
<path d="M122.958 84.3836C122.958 84.5181 122.95 84.6526 122.944 84.7886C122.92 85.4443 122.864 86.0982 122.777 86.7477C122.662 87.6342 122.462 88.5053 122.178 89.3464C121.99 89.8994 121.751 90.4306 121.464 90.9318C121.21 91.3769 120.912 91.7912 120.576 92.1677C119.745 93.1001 118.55 93.3975 117.393 93.7905C116.861 93.9569 116.347 94.1838 115.859 94.4675C115.771 94.5198 115.686 94.5765 115.603 94.6363L114.155 95.6719C113.704 95.9932 113.244 96.3264 112.934 96.8031C112.883 96.8842 112.837 96.9685 112.795 97.0557C112.599 97.4945 112.456 97.9585 112.369 98.4364C111.616 101.823 110.862 105.212 110.346 108.649C110.311 108.876 110.278 109.105 110.242 109.333L110.23 109.405C110.224 109.388 110.216 109.371 110.208 109.356C106.505 111.773 102.665 113.955 98.7094 115.702L97.8501 107.931C97.7606 107.3 97.7309 106.66 97.7616 106.022C97.8432 105.016 98.2223 104.063 98.3247 103.06C98.4217 102.078 98.25 101.087 97.8307 100.21C97.6675 99.8695 97.4627 99.5348 97.4253 99.1537C97.388 98.7727 97.5914 98.4245 97.9456 98.3856C98.2223 98.0539 98.2445 97.6011 98.1628 97.1528C98.1195 96.9188 98.0546 96.69 97.9691 96.4699C97.7339 95.8452 97.4364 95.1653 97.6384 94.5272C97.6918 94.4116 97.7157 94.2826 97.7076 94.1536C97.7091 94.1458 97.7091 94.1376 97.7076 94.1297C97.6606 93.9624 97.4765 93.8892 97.381 93.7472C97.2012 93.4827 97.3811 93.1225 97.4917 92.8177C97.5994 92.4901 97.6619 92.1473 97.6772 91.8001C97.6924 91.6073 97.7034 91.413 97.7228 91.2217C97.7498 90.9629 97.7928 90.7063 97.8515 90.4537C98.1876 89.0222 98.996 87.7724 100.125 86.939C100.663 86.5475 101.262 86.262 101.812 85.8929C102.374 85.4833 102.911 85.034 103.419 84.548C104.638 83.4522 105.905 82.4191 107.22 81.4488C108.635 80.4055 110.1 79.4448 111.609 78.5707C111.932 78.3824 112.255 78.1991 112.578 78.0207C112.929 77.8215 113.283 77.6327 113.639 77.4544C114.779 76.8671 116.073 77.0868 117.334 77.4783C117.862 77.6412 118.384 77.8354 118.888 78.0118C119.379 78.1845 119.853 78.4139 120.299 78.6962C121.415 79.4045 122.338 80.4505 122.722 81.7715C122.722 81.78 122.722 81.7885 122.722 81.7969C122.965 82.6248 122.98 83.5124 122.958 84.3836Z" fill="#F86D70"/>
<path opacity="0.1" d="M122.958 84.3836C122.958 84.5181 122.95 84.6526 122.944 84.7886C122.92 85.4443 122.864 86.0982 122.777 86.7477C122.662 87.6342 122.462 88.5053 122.178 89.3464C121.99 89.8994 121.751 90.4306 121.464 90.9318C121.21 91.3769 120.912 91.7912 120.576 92.1677C119.745 93.1001 118.55 93.3975 117.393 93.7905C116.861 93.9569 116.347 94.1838 115.859 94.4675C115.771 94.5198 115.686 94.5765 115.603 94.6363L114.155 95.6719C113.704 95.9932 113.244 96.3264 112.934 96.8031C112.883 96.8842 112.837 96.9685 112.795 97.0557C112.599 97.4945 112.456 97.9585 112.369 98.4364C111.616 101.823 110.862 105.212 110.346 108.649C110.311 108.876 110.278 109.105 110.242 109.333L110.23 109.405C110.224 109.388 110.216 109.371 110.208 109.356C106.505 111.773 102.665 113.955 98.7094 115.702L97.8501 107.931C97.7606 107.3 97.7309 106.66 97.7616 106.022C97.8432 105.016 98.2223 104.063 98.3247 103.06C98.4217 102.078 98.25 101.087 97.8307 100.21C97.6675 99.8695 97.4627 99.5348 97.4253 99.1537C97.388 98.7727 97.5914 98.4245 97.9456 98.3856C98.2223 98.0539 98.2445 97.6011 98.1628 97.1528C98.1195 96.9188 98.0546 96.69 97.9691 96.4699C97.7339 95.8452 97.4364 95.1653 97.6384 94.5272C97.6918 94.4116 97.7157 94.2826 97.7076 94.1536C97.7091 94.1458 97.7091 94.1376 97.7076 94.1297C97.6606 93.9624 97.4765 93.8892 97.381 93.7472C97.2012 93.4827 97.3811 93.1225 97.4917 92.8177C97.5994 92.4901 97.6619 92.1473 97.6772 91.8001C97.6924 91.6073 97.7034 91.413 97.7228 91.2217C97.7498 90.9629 97.7928 90.7063 97.8515 90.4537C98.1876 89.0222 98.996 87.7724 100.125 86.939C100.663 86.5475 101.262 86.262 101.812 85.8929C102.374 85.4833 102.911 85.034 103.419 84.548C104.638 83.4522 105.905 82.4191 107.22 81.4488C108.635 80.4055 110.1 79.4448 111.609 78.5707C111.932 78.3824 112.255 78.1991 112.578 78.0207C112.929 77.8215 113.283 77.6327 113.639 77.4544C114.779 76.8671 116.073 77.0868 117.334 77.4783C117.862 77.6412 118.384 77.8354 118.888 78.0118C119.379 78.1845 119.853 78.4139 120.299 78.6962C121.415 79.4045 122.338 80.4505 122.722 81.7715C122.722 81.78 122.722 81.7885 122.722 81.7969C122.965 82.6248 122.98 83.5124 122.958 84.3836Z" fill="black"/>
<path d="M109.821 59.6297C109.807 59.595 109.787 59.5637 109.761 59.5377C109.736 59.5117 109.705 59.4915 109.673 59.4784C109.64 59.4652 109.605 59.4594 109.57 59.4613C109.535 59.4631 109.5 59.4726 109.469 59.4891C109.437 59.5056 109.409 59.5289 109.386 59.5574C109.363 59.586 109.346 59.6193 109.335 59.6553C109.324 59.6913 109.32 59.7293 109.323 59.767C109.326 59.8047 109.337 59.8414 109.353 59.8747L109.215 59.948L113.341 69.0814L114.087 68.6884L109.961 59.549L109.821 59.6297Z" fill="#3F3D56"/>
<path d="M114.981 50.065C119.871 50.065 123.836 45.7832 123.836 40.5013C123.836 35.2193 119.871 30.9375 114.981 30.9375C110.09 30.9375 106.125 35.2193 106.125 40.5013C106.125 45.7832 110.09 50.065 114.981 50.065Z" fill="#FBBEBE"/>
<path d="M126.669 34.5785C126.628 33.8182 126.523 33.0635 126.357 32.3235C125.836 29.9072 124.886 27.5282 123.249 25.7932C123.148 25.3691 123.027 24.9506 122.888 24.5395C122.885 24.5293 122.882 24.5193 122.878 24.5096C122.39 23.0613 121.684 21.7097 120.789 20.5093C120.27 19.8129 119.597 19.1255 118.77 19.0986C118.537 19.0896 118.291 19.133 118.078 19.0179C117.921 18.9085 117.789 18.7624 117.692 18.5905C117.282 18.0313 116.739 17.6036 116.12 17.3537C115.502 17.1038 114.832 17.0411 114.183 17.1724L114.097 17.1918C114.049 17.2023 114 17.2142 113.959 17.2277C113.917 17.2411 113.843 17.2635 113.784 17.283C113.848 17.3965 113.91 17.5116 113.971 17.6282C114.135 17.944 114.288 18.2667 114.428 18.5965C114.544 18.8715 114.652 19.1509 114.75 19.4348C113.333 19.6097 112.179 20.696 111.125 21.7301L108.643 24.1629C108.638 24.167 108.634 24.1715 108.63 24.1764L108.558 24.2511C108.54 24.2705 108.522 24.2899 108.506 24.3109C108.499 24.3171 108.493 24.3241 108.488 24.3318C108.467 24.3557 108.448 24.3811 108.428 24.4065C108.394 24.4536 108.363 24.5035 108.336 24.5559C108.322 24.5784 108.31 24.6018 108.3 24.6262C108.296 24.6333 108.293 24.6408 108.29 24.6486C108.281 24.669 108.273 24.6899 108.266 24.7113C108.266 24.7143 108.266 24.7173 108.266 24.7203C108.263 24.7326 108.259 24.745 108.257 24.7577C108.228 24.8628 108.237 24.9755 108.28 25.0745L109.917 25.0939H110.109C110.118 25.33 110.125 25.5676 110.133 25.8037C109.873 26.0137 109.624 26.2381 109.386 26.4762C109.126 26.7356 108.883 27.0132 108.657 27.307C107.18 29.2332 106.41 31.7213 106.332 34.2258C106.332 34.3035 106.332 34.3752 106.332 34.4559C106.332 34.6846 106.332 34.9132 106.332 35.1403C106.332 35.2898 106.344 35.4392 106.356 35.5886C106.356 35.7833 106.404 35.9744 106.494 36.143C106.506 36.1619 106.519 36.1798 106.533 36.1968C106.616 36.2941 106.715 36.3733 106.826 36.43L106.945 36.4927C107.004 36.5241 107.061 36.554 107.117 36.5884C107.638 36.9066 107.947 37.5208 108.421 37.9153C108.449 37.9377 108.477 37.9602 108.504 37.9796L108.567 38.0244L108.605 38.0513L108.658 38.0842C108.692 38.1066 108.728 38.1271 108.765 38.1455L108.831 38.1813H108.842C108.897 38.2082 108.953 38.2336 109.009 38.256L109.088 38.2859L109.112 38.2949C109.134 38.3024 109.157 38.3113 109.181 38.3173C109.228 38.3322 109.274 38.3457 109.319 38.3576L109.458 38.3905C109.512 38.401 109.567 38.4114 109.622 38.4189L109.704 38.4309L109.787 38.4398C109.919 38.4528 110.052 38.4603 110.186 38.4623C110.605 38.4595 111.024 38.428 111.441 38.3681L114.972 37.9198C115.773 37.8197 116.591 37.7196 117.381 37.8959C118.05 38.0453 118.667 38.389 119.318 38.6326C119.464 38.6879 119.611 38.7387 119.759 38.782C119.813 38.7985 119.869 38.8164 119.924 38.8314L120 38.8523L120.177 38.8986C120.241 38.915 120.304 38.9315 120.368 38.9449C120.458 38.9658 120.547 38.9838 120.636 39.0017C120.697 39.0152 120.76 39.0256 120.822 39.0376H120.834L121.011 39.0675H121.054L121.186 39.0869C121.249 39.0973 121.313 39.1063 121.378 39.1138C121.519 39.1327 121.66 39.1491 121.802 39.1631C122.03 39.187 122.26 39.2049 122.493 39.2199L122.723 39.2348L122.953 39.2468L123.645 39.2797H123.675H123.772C124.059 39.3013 124.348 39.2853 124.633 39.2318C124.682 39.2214 124.731 39.2094 124.779 39.1945C124.828 39.1795 124.868 39.1646 124.918 39.1467C125.436 38.9315 125.816 38.4368 126.078 37.9079C126.134 37.7958 126.185 37.6837 126.232 37.5686C126.279 37.4536 126.322 37.337 126.361 37.2205C126.409 37.071 126.451 36.9291 126.487 36.7796C126.498 36.7393 126.507 36.6989 126.516 36.6571C126.524 36.6152 126.543 36.5331 126.554 36.4703C126.589 36.2984 126.615 36.1251 126.635 35.9503C126.635 35.895 126.647 35.8382 126.653 35.7829C126.665 35.6335 126.675 35.4945 126.68 35.348C126.68 35.2375 126.68 35.1254 126.68 35.0133C126.679 34.8923 126.669 34.7324 126.669 34.5785ZM123.122 25.6573C123.009 25.5437 122.895 25.4346 122.778 25.3315C122.908 25.4196 123.023 25.5296 123.12 25.6573H123.122Z" fill="#464353"/>
<path d="M97.9865 39.9764C96.9446 39.8374 95.911 39.3443 94.883 39.5863C94.2396 39.7358 93.6861 40.1676 93.1714 40.6115C91.2558 42.2695 89.6271 44.2805 88.3603 46.5515C88.1455 46.891 87.9946 47.2728 87.9162 47.6752C87.8497 48.1414 87.9674 48.6151 88.1071 49.062C89.0535 52.082 91.0779 54.6045 91.9994 57.6335C92.968 60.8194 92.6317 64.3012 91.9177 67.5649C91.0327 71.5939 89.5943 75.4572 87.6505 79.0265C87.3866 79.5572 87.056 80.046 86.6681 80.479C86.1644 81.002 85.4878 81.3756 85.1889 82.06C85.0506 82.3588 85.0104 82.6996 84.9122 83.0193C84.6355 83.9159 83.9658 84.684 83.9007 85.63C83.8523 86.3517 84.1692 87.0346 84.3615 87.722C84.6858 88.903 84.6514 90.1651 84.2633 91.3234C83.5617 93.4005 81.727 95.2894 82.2597 97.4248C83.4483 97.0557 84.7655 96.576 85.3259 95.385C85.5238 94.9636 85.622 94.4615 85.9555 94.1537C86.621 93.5425 87.7543 94.0954 88.4613 93.5335C88.9954 93.1061 89.0148 92.2305 88.7768 91.558C88.5388 90.8856 88.1292 90.2938 87.9466 89.6019C87.6284 88.3541 88.1376 87.0346 88.0435 85.745C87.9992 85.1473 87.829 84.575 87.8165 83.9802C87.793 82.8251 88.3852 81.7387 89.1725 80.9542C89.9598 80.1696 90.9326 79.6496 91.8901 79.1371L95.5098 77.1944C96.8229 76.4921 98.2619 75.6358 98.6922 74.1235C98.8555 73.5572 98.8569 72.9535 98.8652 72.3617C98.9883 63.3195 101.086 54.4595 103.171 45.7012C103.495 44.3443 103.824 42.9815 104.306 41.6784C104.787 40.3754 105.73 39.3293 106.21 38.1189C103.424 37.7662 100.88 40.3679 97.9865 39.9764Z" fill="#464353"/>
<path d="M117.941 96.7016C118.261 98.7937 118.456 100.931 118.608 103.057C116.117 105.287 113.436 107.226 110.711 109.025C110.556 109.129 110.4 109.23 110.244 109.324L110.231 109.396C110.225 109.379 110.218 109.363 110.209 109.347C109.998 108.853 109.628 108.46 109.169 108.238C108.147 105.922 107.127 103.605 106.108 101.289C105.554 100.038 105.001 98.7757 104.724 97.4263C104.724 97.398 104.712 97.3681 104.708 97.3397C104.497 96.2936 104.449 95.2072 104.309 94.1478C104.238 93.541 104.112 92.9433 103.931 92.3635C103.765 91.848 103.537 91.3474 103.335 90.8438C103.086 90.2221 102.877 89.593 102.867 88.922C102.867 88.7084 102.88 88.4737 102.783 88.2944C102.679 88.14 102.552 88.0065 102.405 87.8999C102.223 87.725 102.084 87.5028 102.003 87.2542C101.921 87.0056 101.9 86.7388 101.94 86.4788C101.11 86.5251 100.642 87.489 100.309 88.3064C100.006 89.1058 99.6077 89.8593 99.1245 90.5479C98.7724 91.0398 98.3246 91.4422 97.8128 91.7269C97.7672 91.7508 97.7215 91.7747 97.6745 91.7957C96.5191 92.3456 95.17 92.1513 93.9178 91.9033C92.8233 91.6866 91.6915 91.4176 90.8114 90.6824L90.7173 90.6017C90.4568 90.3679 90.2244 90.0998 90.0255 89.8037C89.288 88.7158 88.9615 87.2828 88.7802 85.9184C88.7636 85.7899 88.747 85.6614 88.7318 85.5329C88.606 84.5689 88.5712 83.5935 88.628 82.6219C88.6446 82.3828 88.6681 82.1437 88.6972 81.9061C88.7166 81.7567 88.7373 81.5953 88.7608 81.4399C88.7602 81.4354 88.7602 81.4309 88.7608 81.4264C88.7968 81.1799 88.8356 80.9318 88.8743 80.6793C89.0127 79.832 89.151 78.9623 89.5661 78.233C89.8393 77.7793 90.184 77.3807 90.5845 77.0555C90.734 76.9285 90.8875 76.8074 91.0425 76.6909C91.2943 76.5026 91.5531 76.3233 91.816 76.1544C92.4774 75.7268 93.1718 75.3618 93.8915 75.0635C94.0631 74.9918 94.2374 74.9246 94.4118 74.8603C95.0895 74.6 95.8188 74.5376 96.526 74.6795C97.1527 74.7774 97.7859 74.8174 98.4189 74.799C100.042 74.7647 101.672 74.4299 103.292 74.2132C105.542 73.9144 107.959 73.8785 109.921 75.1099C110.015 75.1681 110.107 75.2294 110.198 75.2937C111.167 75.9781 111.947 76.9374 112.577 78.0089C112.715 78.2345 112.835 78.4661 112.954 78.7008C113.229 79.2393 113.477 79.793 113.697 80.3595C113.828 80.6377 113.899 80.9442 113.904 81.2561C113.9 81.3154 113.893 81.3743 113.881 81.4324C113.844 81.6446 113.769 81.8508 113.743 82.066C113.656 82.8804 114.297 83.5603 114.536 84.3359C114.691 84.841 114.674 85.382 114.761 85.9139C114.887 86.6611 115.226 87.3336 115.531 88.006C116.012 89.0885 116.423 90.2054 116.762 91.3489C117.003 92.1453 117.209 92.9538 117.39 93.7697C117.449 94.0317 117.505 94.2942 117.558 94.5572C117.709 95.2805 117.832 95.9888 117.941 96.7016Z" fill="#F86D70"/>
<path d="M132.691 74.5704V75.6165L132.513 75.6135L132.313 75.6105L130.088 75.5806L124.606 75.5029L123.068 75.482L122.669 75.476L120.36 75.4446L117.105 75.3983L110.201 75.3012L98.2197 75.1338L93.8957 75.074L92.1606 75.0501L90.5638 75.0277L89.569 75.0128L88.6267 74.9993L81.6405 74.9022L79.7034 74.8753L79.2813 74.8693L79.0074 74.1057L77.0163 68.5602L76.6523 67.547L76.9291 66.3516L78.1744 67.2482L78.9409 67.3513L91.5614 69.0459L93.9303 69.3642L98.953 70.0396L103.873 70.7001L105.802 70.9586L117.216 72.4918L120.406 72.9207L123.046 73.2748L132.432 74.5361L132.691 74.5704Z" fill="#3F3D56"/>
<path d="M76.9297 66.3516L79.4203 73.375L132.692 74.5704V66.9493L76.9297 66.3516Z" fill="#504F60"/>
<path d="M79.6953 74.125L80.1104 117.013L82.0476 116.714L81.6325 74.125H79.6953Z" fill="#3F3D56"/>
<path d="M132.513 75.6133H132.314C131.991 78.2871 131.457 80.9263 130.718 83.5019L130.089 75.5819L130.062 75.2442L132.39 74.9543L132.467 74.9453L132.513 75.6133Z" fill="#3F3D56"/>
<path d="M124.942 70.5385L104.671 70.9868L98.375 68.7453L115.256 67.6992L124.942 70.5385Z" fill="white"/>
<path d="M99.516 61.8214C99.3011 61.9105 99.1106 62.057 98.9625 62.2473C98.8467 62.4535 98.7762 62.6856 98.7564 62.9258L98.416 65.118C98.3641 65.3185 98.3733 65.5317 98.4423 65.7262C98.5308 65.91 98.7882 66.0056 98.9169 65.8532C98.9003 66.282 98.9349 66.7393 99.1659 67.089C99.397 67.4387 99.8813 67.6225 100.208 67.3789C100.259 67.469 100.328 67.546 100.409 67.6046C100.491 67.6632 100.583 67.7019 100.68 67.7181C100.777 67.7343 100.875 67.7276 100.97 67.6984C101.064 67.6693 101.151 67.6184 101.225 67.5492C101.028 67.621 101.015 67.9452 101.154 68.1096C101.311 68.2588 101.51 68.3449 101.719 68.3532C104.15 68.7233 106.629 68.3865 108.9 67.3774C109.115 67.2818 108.55 64.4261 108.493 64.1332C108.355 63.4443 108.286 62.603 107.747 62.1397C106.461 61.0309 104.175 60.8128 102.607 60.9443C101.536 61.0318 100.489 61.329 99.516 61.8214Z" fill="#FBBEBE"/>
<path opacity="0.1" d="M120.141 62.1563C115.136 62.2594 110.028 62.3476 105.251 60.7292C105.708 62.6387 105.676 64.6461 105.16 66.5377L128.561 68.6298C129.553 68.718 133.667 69.2201 134.634 68.9675C135.601 68.715 126.519 65.4842 126.885 64.4845C127.894 61.7305 131.273 60.1166 128.839 60.0135C125.767 59.8819 123.236 62.0936 120.141 62.1563Z" fill="black"/>
<path d="M120.278 62.4532C115.273 62.5563 110.165 62.6445 105.388 61.0261C105.844 62.9356 105.813 64.943 105.297 66.8346L128.698 68.9267C129.69 69.0149 133.803 69.5244 134.771 69.2644C135.738 69.0044 135.511 67.7238 135.877 66.724C136.886 63.97 131.41 60.4134 128.976 60.3103C125.904 60.1788 123.373 62.3905 120.278 62.4532Z" fill="#464353"/>
<path d="M112.322 62.8683C112.537 62.9572 112.727 63.1038 112.875 63.2942C112.991 63.5006 113.062 63.7325 113.083 63.9726L113.423 66.1648C113.474 66.3654 113.465 66.5784 113.397 66.773C113.308 66.9568 113.05 67.0525 112.922 66.9C112.938 67.3289 112.904 67.7862 112.673 68.1359C112.442 68.4855 111.958 68.6693 111.63 68.4258C111.579 68.5159 111.51 68.5929 111.428 68.6515C111.347 68.71 111.255 68.7488 111.158 68.765C111.061 68.7812 110.962 68.7745 110.868 68.7453C110.774 68.7161 110.687 68.6652 110.613 68.5961C110.809 68.6678 110.825 68.9921 110.685 69.1565C110.528 69.3057 110.328 69.3917 110.119 69.4001C107.688 69.7702 105.209 69.4334 102.939 68.4243C102.725 68.3286 103.288 65.4729 103.346 65.1801C103.484 64.4912 103.553 63.6499 104.092 63.1866C105.377 62.0778 107.664 61.8596 109.232 61.9911C110.303 62.0788 111.35 62.3761 112.322 62.8683Z" fill="#FBBEBE"/>
<path d="M79.2508 58.111C78.7914 58.7505 78.3306 59.4036 78.0345 60.1492C77.4686 61.5718 77.5516 63.1827 77.6457 64.7279C77.672 65.1762 77.7052 65.6335 77.9224 66.0056C78.1103 66.2866 78.358 66.5147 78.6447 66.6705C79.843 67.4057 81.246 67.6254 82.6159 67.7898C84.7135 68.0408 86.8186 68.1938 88.931 68.2486C94.164 68.386 99.4774 67.9243 104.575 69.2049C103.944 68.1694 103.945 66.799 104.298 65.6185C104.651 64.438 105.33 63.4099 105.996 62.3982C103.663 61.6002 101.161 62.8465 98.7177 62.7225C96.2091 62.5955 93.8873 61.0294 91.3759 61.0309C90.8363 61.0309 90.287 61.1041 89.7626 60.9636C89.2382 60.8232 88.7303 60.3958 88.6819 59.8145C89.3516 59.9774 89.9867 59.3587 90.2635 58.6803C90.5402 58.0019 90.59 57.2353 90.8584 56.5524C91.5267 54.8533 93.3324 54.0658 94.456 52.6671C94.6331 52.4459 94.8005 52.1844 94.795 51.8915C94.7686 51.6434 94.672 51.4101 94.5183 51.2235C93.5843 49.8786 92.1771 49.1315 91.0079 48.0854C90.6011 47.7208 89.7805 46.346 89.3239 46.219C88.4771 45.9844 87.759 47.3054 87.2083 47.9494C84.428 51.2121 81.7755 54.5993 79.2508 58.111Z" fill="#464353"/>
<path opacity="0.07" d="M107.074 57.7305C107.425 58.0114 107.737 58.345 108 58.7212C108.131 58.9102 108.224 59.1265 108.274 59.3564C108.324 59.5864 108.329 59.825 108.289 60.0572C108.246 59.624 108.336 59.1877 108.544 58.8145C108.752 58.4414 109.067 58.152 109.442 57.9905L107.074 57.7305Z" fill="black"/>
<g opacity="0.1">
<path opacity="0.1" d="M114.747 18.5392C114.584 18.0721 114.397 17.6156 114.185 17.1719C114.049 17.2002 113.914 17.2377 113.781 17.284C114.019 17.7098 114.233 18.1504 114.422 18.6035C114.528 18.5736 114.636 18.5526 114.747 18.5392Z" fill="black"/>
<path opacity="0.1" d="M122.777 24.4297C122.815 24.4628 122.851 24.5004 122.887 24.535C122.885 24.5253 122.881 24.5157 122.878 24.5064C122.846 24.4813 122.813 24.4558 122.777 24.4297Z" fill="black"/>
<path opacity="0.1" d="M109.916 25.0873C109.988 25.0261 110.054 24.9618 110.131 24.902L110.109 24.1922L108.632 24.1758C108.392 24.4134 108.138 24.7541 108.279 25.0724L109.916 25.0873Z" fill="black"/>
<path opacity="0.1" d="M126.07 37.0389C125.808 37.5679 125.428 38.064 124.91 38.2777C124.51 38.4421 124.07 38.4272 123.642 38.4062C122.184 38.342 120.7 38.2717 119.322 37.7502C118.677 37.5051 118.06 37.1629 117.385 37.012C116.595 36.8357 115.777 36.9358 114.976 37.0374L111.445 37.4857C110.403 37.6172 109.242 37.7158 108.411 37.0255C107.935 36.631 107.627 36.0168 107.106 35.7C106.886 35.5655 106.624 35.4788 106.482 35.2517C106.392 35.083 106.344 34.8919 106.343 34.6973C106.332 34.5404 106.325 34.3835 106.32 34.2266C106.305 34.6825 106.313 35.1389 106.343 35.5939C106.344 35.7885 106.392 35.9796 106.482 36.1483C106.62 36.3739 106.886 36.4606 107.106 36.5966C107.627 36.9134 107.936 37.5276 108.411 37.9221C109.241 38.6124 110.403 38.5198 111.445 38.3823L114.976 37.934C115.777 37.8324 116.595 37.7323 117.385 37.9086C118.055 38.058 118.672 38.4017 119.322 38.6468C120.706 39.1683 122.184 39.2446 123.642 39.3028C124.07 39.3223 124.51 39.3387 124.91 39.1743C125.428 38.9606 125.808 38.4645 126.07 37.9355C126.58 36.9119 126.722 35.7508 126.668 34.5807C126.639 35.4376 126.434 36.2769 126.07 37.0389Z" fill="black"/>
</g>
<path opacity="0.1" d="M114.707 19.5039L116.644 21.4466C116.644 21.4466 114.984 20.6994 114.707 19.5039Z" fill="black"/>
</g>
<defs>
<clipPath id="clip0_124_146572">
<rect width="136" height="120" fill="white"/>
</clipPath>
</defs>
</svg>
