<svg width="210" height="164" viewBox="0 0 210 164" fill="none" xmlns="http://www.w3.org/2000/svg">
<path d="M102.624 162.359L5.45326 105.39C2.36074 103.674 -0.293851 100.837 2.72298 98.9811L100.24 43.203C101.705 42.302 103.927 41.712 105.414 42.5701L207.386 101.32C210.479 103.1 211.036 108.077 207.927 109.863L115.432 162.268C111.48 164.543 106.61 164.578 102.624 162.359Z" fill="#EDEDED"/>
<path d="M127.816 87.2695L117.489 92.1598C116.698 92.536 116.182 93.31 116.146 94.1731C116.111 95.0363 116.562 95.8484 117.32 96.2858L141.813 110.331C142.914 110.963 144.325 110.631 145.015 109.578L150.967 100.492" fill="#D7D7D7"/>
<path d="M179.582 60.9576L95.6958 12.8943C94.854 12.3924 93.8049 12.3838 92.955 12.8718C92.1051 13.3599 91.5879 14.2679 91.6039 15.2439V66.3237C91.6042 67.0717 92.0061 67.7626 92.6579 68.1357L181.944 119.404C182.259 119.584 182.647 119.584 182.961 119.403C183.275 119.223 183.469 118.889 183.469 118.527V67.641C183.467 64.8823 181.986 62.3341 179.582 60.9576Z" fill="#DCDEE0"/>
<path d="M97.0566 17.6995L176.688 63.0762C178.419 64.062 179.487 65.8881 179.488 67.8654V104.372C179.489 105.084 179.106 105.742 178.484 106.099C177.862 106.456 177.095 106.458 176.471 106.104L95.2635 59.9817C94.6345 59.6287 94.2486 58.9653 94.256 58.2495V19.3084C94.2542 18.647 94.6091 18.035 95.1869 17.703C95.7647 17.3711 96.4775 17.3697 97.0566 17.6995Z" fill="white" stroke="#473F47" stroke-width="0.994929"/>
<ellipse rx="0.865403" ry="0.164948" transform="matrix(0.982204 -0.187815 0.190384 0.98171 131.46 86.39)" fill="#AB643C"/>
<path d="M97.9766 43.3288L117.239 53.5763C118.163 54.0686 118.99 52.6673 118.06 52.175L98.8032 41.9275C97.8787 41.4351 97.0521 42.8365 97.9821 43.3288H97.9766Z" fill="#CDCDCD"/>
<path d="M126.468 29.0543L121.84 28.1626L121.771 28.341C121.503 28.1854 121.214 28.0682 120.913 27.9928C119.994 27.7377 119.032 28.2318 118.715 29.1223C118.583 29.467 118.583 29.8476 118.715 30.1923C118.417 30.4966 118.256 30.907 118.268 31.3303C118.266 31.7784 118.439 32.21 118.749 32.5363C118.449 33.0656 118.54 33.7276 118.972 34.1583C119.529 34.616 120.204 34.9102 120.921 35.0076C122.14 37.3685 125.094 40.4852 125.995 39.9927C127.172 39.3472 128.88 36.2984 128.88 36.2984L126.468 29.0543Z" fill="#E89C89"/>
<path d="M124.92 30.6094L103.716 0L102.879 0.358504L125.696 36.8833" fill="#935A4E"/>
<path d="M130.472 35.7504C130.472 35.7504 129.663 29.3358 128.442 28.609C127.22 27.8822 123.22 26.2595 122.471 27.1131C121.723 27.9667 121.034 29.6485 121.757 30.3161C122.48 30.9838 123.873 29.3358 123.873 29.3358L125.086 30.1809C125.086 30.1809 123.503 31.5247 123.598 34.7278C123.705 36.7227 124.546 38.6116 125.964 40.0437L130.472 35.7504Z" fill="#FBBEBE"/>
<path d="M194.206 35.2064L194.728 34.2725C194.358 34.0523 194.206 33.5962 194.371 33.2004C194.815 32.1887 195.285 31.1943 195.755 30.1913C195.727 30.0691 195.727 29.9418 195.755 29.8195C196.371 27.5672 196.629 25.2335 196.522 22.9022C196.321 21.0345 195.755 19.2447 195.573 17.377C195.503 16.7112 196.278 16.5123 196.774 16.6939C197.202 16.8988 197.54 17.2526 197.723 17.6883C198.305 18.5293 198.678 19.4953 198.811 20.5071C198.854 20.0725 198.962 19.6469 199.133 19.2447C199.261 18.7374 199.386 18.2301 199.508 17.7229C199.687 16.9176 199.955 16.1346 200.309 15.3883C200.666 14.6879 201.467 14.368 201.867 14.8262C202.477 15.518 201.867 16.7717 201.771 17.5759C201.676 18.38 201.528 19.089 201.319 19.9018C201.632 19.1496 202.276 17.8353 202.694 16.9274C203.016 16.227 203.93 13.9443 204.94 14.2556C205.95 14.5668 205.471 16.1232 205.193 16.8495L204.401 18.968C204.165 19.5992 203.904 20.4206 203.634 20.9999C203.634 20.9999 204.697 19.4608 205.228 18.6394C205.654 17.9909 206.098 17.0484 207.065 17.3338C207.683 17.524 207.639 18.4319 207.352 18.9766C206.586 20.4206 205.733 21.8041 204.845 23.1616C205.419 22.6342 205.968 22.0894 206.586 21.5793C206.849 21.4024 207.188 21.382 207.471 21.526C207.754 21.67 207.935 21.9555 207.944 22.271C207.952 22.4217 207.909 22.5707 207.822 22.6947L200.474 33.1831C199.755 34.8511 198.744 36.3792 197.488 37.6966C196.783 38.4316 195.651 37.3162 196.365 36.5812L196.461 36.4688C196.434 36.4306 196.411 36.3901 196.391 36.3477C196.15 36.2926 195.945 36.1386 195.825 35.9241H195.773C195.696 35.9758 195.61 36.0138 195.52 36.0365C195.26 36.3138 194.838 36.3674 194.516 36.164C194.194 35.9607 194.063 35.5581 194.206 35.2064Z" fill="#FBBEBE"/>
<path d="M178.372 89.8842C176.337 83.1107 173.853 76.119 170.558 69.8555L148.222 70.2836C147.741 73.2609 147.076 75.9644 146.543 78.9845C145.969 82.1935 145.755 85.4561 145.906 88.7121C152.105 92.1856 160.248 96.8997 166.137 100.271L175.614 105.476C175.76 105.476 179.113 106.775 179.301 104.719C179.488 102.664 179.301 100.055 179.301 96.6597C179.301 94.202 178.872 91.6475 178.372 89.8842Z" fill="#F86D70"/>
<path d="M171.86 50.5697C171.534 45.771 171.077 40.9779 170.489 36.1905C167.703 32.8056 163.878 30.192 159.677 29.6436C155.476 29.0952 149.354 30.1749 146.49 33.4912C143.782 36.6532 144.236 41.2035 144.402 44.9997C144.498 47.3134 144.621 49.6271 144.752 51.9408C145.983 58.1535 147.765 64.2463 148.14 70.5876C154.332 73.4326 163.677 71.9758 170.673 70.1248C171.083 63.6036 171.581 57.091 171.86 50.5697Z" fill="#2F2E41"/>
<path d="M159.656 30.2775C162.987 30.4432 166.221 31.4376 169.059 33.1687C171.217 34.5627 172.452 36.8171 174.783 37.9702C177.915 39.5276 182.508 39.5104 185.082 36.886C186.472 35.3821 187.779 33.8051 188.997 32.1619C189.962 30.9401 193.929 24.5725 196.016 25.3555C198.461 26.2677 201.984 29.6579 202.106 31.594C202.227 33.5301 191.911 53.6911 182.768 55.1109C177.067 55.8634 171.28 54.5954 166.432 51.5313" fill="#2F2E41"/>
<path d="M162.31 26.8711V32.6641C160.064 33.3706 157.659 33.3706 155.412 32.6641V27.4236" fill="#FBBEBE"/>
<path d="M144.837 53.3808C144.837 53.3808 132.23 35.4055 130.694 35.8357C129.158 36.266 124.292 38.6667 124.654 40.6114C125.016 42.556 134.957 71.1411 148.513 69.4803" fill="#2F2E41"/>
<path d="M149.824 13.7707C149.416 13.8733 146.84 30.9478 154.03 31.0846C161.22 31.2213 162.608 25.6494 162.825 24.2479C163.042 22.8464 160.752 18.488 160.049 16.8643C159.347 15.2406 151.584 13.3007 149.824 13.7707Z" fill="#FBBEBE"/>
<path d="M149.498 12.0958C151.653 8.25962 159.998 7.38352 165.8 12.6401C167.299 14.1967 168.138 16.2599 168.145 18.4071C167.839 22.7339 165.207 26.5675 161.248 28.4525C161.248 28.4525 161.248 28.4525 161.248 28.3844C161.248 28.3164 161.248 28.1718 161.309 28.0697C161.369 27.9676 161.309 27.9166 161.352 27.84C161.964 24.8715 161.826 21.1289 160.403 18.4836C158.981 15.8383 156.093 15.0813 153.291 14.6135C152.383 14.3785 151.444 14.2867 150.507 14.3413L149.584 18.7048C148.186 16.7271 148.152 14.1082 149.498 12.0958Z" fill="#2F2E41"/>
<ellipse rx="5.48091" ry="5.52226" transform="matrix(0.0698966 -0.997554 0.997622 0.0689233 170.681 14.0615)" fill="#2F2E41"/>
<path d="M149.043 17.1356H155.855L156.488 15.0903L157.077 17.6296L159.018 17.7509C159.018 17.7509 159.114 28.2115 160.604 28.4454C162.095 28.6794 164.184 24.1815 164.409 21.5122C164.634 18.8429 163.187 13.2183 158.273 11.693C152.085 9.82105 149.329 12.291 149.043 17.1356Z" fill="#2F2E41"/>
<path d="M147.452 66.3924L145.334 35.832C144.44 36.5803 141.49 53.8948 140.023 65.6785C142.509 65.8076 144.976 66.0914 147.452 66.3924Z" fill="#2F2E41"/>
<path d="M162.277 29.5078C161.831 30.5832 161.192 31.5678 160.39 32.4125C159.543 33.3667 158.324 33.0543 157.004 33.1303L157.901 40.0459L163.902 31.6019L162.277 29.5078Z" fill="#2F2E41"/>
<path d="M157.003 33.0104L153.791 39.519L153.289 33.4472L155.434 29.5078C155.434 29.5078 154.719 32.8306 157.003 33.0104Z" fill="#2F2E41"/>
<path d="M97.9766 50.2429L117.239 60.4903C118.163 60.9827 118.99 59.5814 118.06 59.089L98.8032 48.8416C97.8787 48.3492 97.0521 49.7505 97.9821 50.2429H97.9766Z" fill="#CDCDCD"/>
<path d="M97.9766 56.4968L117.239 66.7442C118.163 67.2366 118.99 65.8353 118.06 65.3429L98.8032 55.0955C97.8787 54.6031 97.0521 56.0044 97.9821 56.4968H97.9766Z" fill="#CDCDCD"/>
<path fill-rule="evenodd" clip-rule="evenodd" d="M157.661 48.0211C157.661 47.851 157.662 47.6809 157.662 47.5108L157.661 45.9758C157.661 45.7019 157.661 45.5661 157.593 45.5019C157.525 45.4377 157.389 45.4451 157.118 45.4577C157 45.4632 156.969 45.5014 156.972 45.616C156.974 45.7218 156.973 45.8278 156.972 45.9339C156.971 46.0838 156.969 46.2337 156.977 46.3832C156.986 46.5439 156.928 46.5789 156.786 46.5699C156.601 46.5582 156.415 46.5631 156.23 46.5679C155.699 46.5816 155.408 46.8608 155.369 47.3979C155.334 47.8668 155.335 48.3379 155.373 48.8066C155.411 49.2586 155.673 49.5433 156.112 49.5712C156.37 49.5874 156.628 49.5884 156.886 49.5894C157.079 49.5902 157.272 49.591 157.465 49.5981C157.626 49.604 157.667 49.5533 157.665 49.3922C157.659 48.9352 157.66 48.4781 157.661 48.0211ZM156.975 47.8855V48.1075C156.975 48.1647 156.974 48.2219 156.974 48.2792C156.972 48.4191 156.971 48.5594 156.977 48.6998C156.983 48.8249 156.95 48.8709 156.818 48.8692C156.408 48.8642 156.214 48.8872 156.124 48.8014C156.036 48.7177 156.046 48.5306 156.049 48.113C156.049 47.9979 156.049 47.8827 156.049 47.7675C156.049 47.7099 156.049 47.6523 156.049 47.5947C156.047 47.4055 156.14 47.312 156.324 47.2922C156.648 47.2573 156.811 47.2392 156.892 47.312C156.975 47.3854 156.975 47.5513 156.975 47.8855Z" fill="white"/>
<path fill-rule="evenodd" clip-rule="evenodd" d="M154.417 49.4044V47.5198L154.417 45.9572C154.417 45.696 154.417 45.567 154.353 45.5047C154.288 45.4422 154.159 45.4467 153.9 45.4521C153.751 45.4551 153.726 45.5137 153.73 45.6431C153.733 45.7579 153.732 45.8728 153.731 45.9877C153.73 46.1208 153.729 46.254 153.734 46.3868C153.74 46.5317 153.687 46.5725 153.553 46.5664C153.351 46.5574 153.147 46.5564 152.945 46.5664C152.428 46.5919 152.131 46.8802 152.109 47.4043C152.091 47.8498 152.091 48.2972 152.108 48.743C152.126 49.2489 152.394 49.5409 152.892 49.5743C153.177 49.5936 153.463 49.5937 153.75 49.5938C153.925 49.5939 154.101 49.594 154.276 49.5985C154.419 49.602 154.418 49.5206 154.417 49.4282C154.417 49.4203 154.417 49.4124 154.417 49.4044ZM153.731 47.8829V48.0561C153.731 48.1176 153.73 48.1792 153.73 48.2407C153.729 48.3936 153.727 48.5464 153.733 48.699C153.738 48.8286 153.693 48.8693 153.566 48.8675C153.164 48.8617 152.968 48.8886 152.874 48.8032C152.783 48.7205 152.788 48.5326 152.794 48.1079C152.795 48.018 152.794 47.9281 152.794 47.8382C152.793 47.7549 152.793 47.6716 152.794 47.5884C152.796 47.4003 152.888 47.3057 153.074 47.288C153.403 47.2567 153.567 47.2405 153.649 47.3149C153.731 47.3892 153.731 47.5535 153.731 47.8829Z" fill="white"/>
<path fill-rule="evenodd" clip-rule="evenodd" d="M151.629 48.6488C151.629 48.554 151.629 48.4591 151.629 48.3642L151.62 48.3645C151.62 48.2506 151.622 48.1366 151.623 48.0226C151.626 47.7678 151.628 47.5131 151.617 47.2591C151.593 46.7151 151.306 46.401 150.811 46.3794C150.569 46.3688 150.328 46.3707 150.086 46.3726C149.935 46.3738 149.785 46.375 149.634 46.3731C149.535 46.3719 149.499 46.401 149.491 46.5185C149.469 46.8419 149.458 46.9978 149.53 47.0728C149.597 47.1427 149.737 47.1427 150.008 47.1427H150.128C150.188 47.1432 150.248 47.1429 150.308 47.1427C150.449 47.1422 150.589 47.1416 150.728 47.1508C150.924 47.1637 150.971 47.3158 150.968 47.503C150.966 47.6711 150.875 47.6568 150.792 47.6436C150.767 47.6396 150.742 47.6357 150.721 47.637C150.596 47.6448 150.471 47.6468 150.345 47.6488C150.183 47.6515 150.02 47.6541 149.858 47.6691C149.558 47.6968 149.373 47.8934 149.333 48.2186C149.302 48.47 149.297 48.7269 149.34 48.9784C149.407 49.3652 149.577 49.5561 149.937 49.5738C150.253 49.5902 150.57 49.5913 150.887 49.5923C151.09 49.5929 151.293 49.5936 151.497 49.5983C151.631 49.6015 151.631 49.524 151.63 49.4177C151.628 49.1614 151.628 48.9051 151.629 48.6488ZM150.157 48.2424H150.515C150.535 48.2419 150.554 48.2428 150.573 48.2437C150.611 48.2454 150.648 48.247 150.683 48.2392C150.939 48.183 150.973 48.3177 150.977 48.5659C150.981 48.8253 150.91 48.9079 150.682 48.8747C150.59 48.8614 150.496 48.8648 150.402 48.8681C150.36 48.8697 150.318 48.8712 150.276 48.8712C149.989 48.8701 149.859 48.6368 149.982 48.3488C150.018 48.2644 150.08 48.2424 150.157 48.2424Z" fill="white"/>
<path fill-rule="evenodd" clip-rule="evenodd" d="M160.449 48.6739C160.449 48.5609 160.45 48.4435 160.45 48.3198C160.443 48.191 160.445 48.0523 160.449 47.9074C160.454 47.6596 160.459 47.3939 160.416 47.1298C160.344 46.6771 160.115 46.4182 159.696 46.3891C159.399 46.3683 159.101 46.3703 158.804 46.3722C158.676 46.3731 158.548 46.3739 158.42 46.3729C158.353 46.3724 158.289 46.3779 158.292 46.4811C158.294 46.5449 158.29 46.6119 158.287 46.6788C158.278 46.8308 158.27 46.9827 158.326 47.0979C158.366 47.1814 158.484 47.1661 158.605 47.1505C158.666 47.1427 158.727 47.1348 158.779 47.1392C158.84 47.1442 158.901 47.143 158.962 47.1417C158.997 47.141 159.033 47.1403 159.068 47.1408C159.117 47.1416 159.166 47.1413 159.214 47.1409C159.334 47.1401 159.455 47.1392 159.573 47.1559C159.754 47.1812 159.784 47.3364 159.782 47.5106C159.78 47.6676 159.7 47.6539 159.624 47.641C159.6 47.6368 159.575 47.6327 159.555 47.6348C159.459 47.6444 159.363 47.6423 159.267 47.6402C159.227 47.6394 159.186 47.6385 159.146 47.6385C158.253 47.6385 158.117 47.7898 158.132 48.7698C158.14 49.3184 158.36 49.5761 158.866 49.5917C159.143 49.6002 159.42 49.5987 159.697 49.5972C159.894 49.5961 160.09 49.5951 160.287 49.5976C160.411 49.5992 160.456 49.5589 160.452 49.4184C160.447 49.1786 160.448 48.9385 160.449 48.6739ZM159.2 48.2386C159.237 48.2385 159.274 48.2383 159.311 48.2383H159.312C159.33 48.2383 159.349 48.2392 159.367 48.2401C159.405 48.242 159.443 48.2439 159.479 48.2374C159.726 48.1906 159.794 48.294 159.792 48.5672C159.789 48.8222 159.73 48.9042 159.5 48.8742C159.383 48.8589 159.265 48.8625 159.146 48.8661C159.089 48.8679 159.031 48.8696 158.974 48.8692C158.768 48.8679 158.768 48.7153 158.768 48.557C158.768 48.5513 158.768 48.5456 158.768 48.5399C158.767 48.3756 158.782 48.2362 158.976 48.2383C159.051 48.239 159.125 48.2388 159.2 48.2386Z" fill="white"/>
<path d="M162.538 49.5956C162.223 49.5956 161.908 49.5896 161.593 49.5981C161.441 49.6022 161.375 49.5625 161.381 49.4066C161.392 49.1339 161.379 48.8603 161.386 48.5878C161.398 48.0848 161.737 47.7701 162.265 47.764C162.367 47.7628 162.469 47.764 162.57 47.764C162.98 47.764 163.164 47.4927 163.001 47.1344C162.949 47.02 162.849 47.0228 162.746 47.023C162.422 47.023 162.097 47.0154 161.773 47.0264C161.601 47.0321 161.53 46.9974 161.531 46.8128C161.537 46.3737 161.526 46.3735 161.979 46.3737C162.275 46.3737 162.572 46.3667 162.868 46.3756C163.348 46.3899 163.665 46.7158 163.695 47.1684C163.761 48.1693 163.397 48.4801 162.423 48.4144C162.221 48.4007 162.06 48.4144 162.057 48.68C162.053 48.8915 162.122 48.9507 162.337 48.9416C162.716 48.9258 163.097 48.945 163.476 48.9336C163.65 48.9287 163.699 48.9856 163.694 49.1455C163.678 49.6953 163.761 49.5849 163.232 49.596C163.001 49.5997 162.769 49.5956 162.538 49.5956Z" fill="#EE2250"/>
<path d="M166.019 47.9736C166.019 48.441 166.012 48.9086 166.023 49.3756C166.027 49.5516 165.978 49.6032 165.82 49.598C165.344 49.5827 165.439 49.6466 165.43 49.1849C165.426 48.9647 165.416 48.7428 165.434 48.5241C165.45 48.314 165.373 48.2635 165.199 48.2811C165.055 48.2955 164.909 48.2875 164.764 48.2832C164.404 48.2729 164.175 48.025 164.171 47.6358C164.167 47.283 164.178 46.9301 164.166 46.5777C164.161 46.4089 164.217 46.3728 164.361 46.3726C164.759 46.3726 164.759 46.3648 164.759 46.7976C164.759 46.9739 164.767 47.1509 164.757 47.3265C164.745 47.5427 164.828 47.6306 165.025 47.6262C165.522 47.6153 165.42 47.6696 165.429 47.2004C165.433 46.9889 165.438 46.7766 165.427 46.5656C165.42 46.412 165.474 46.3749 165.607 46.3728C166.019 46.3658 166.019 46.3594 166.019 46.8097V47.9736Z" fill="#EE2250"/>
<path fill-rule="evenodd" clip-rule="evenodd" d="M167.019 47.2356C167.05 47.2367 167.08 47.2379 167.11 47.2379L167.451 47.2376C167.807 47.238 167.874 47.2997 167.874 47.6339C167.874 47.7835 167.874 47.9331 167.875 48.0827C167.876 48.5139 167.877 48.9451 167.87 49.3762C167.867 49.5438 167.917 49.6167 168.103 49.5926C168.164 49.5845 168.226 49.5845 168.286 49.5926C168.489 49.6216 168.537 49.5407 168.534 49.3629C168.527 49.0289 168.527 48.6946 168.528 48.3603C168.529 48.13 168.529 47.8997 168.527 47.6694C168.526 47.5204 168.549 47.3999 168.667 47.277C168.875 47.061 168.846 46.7471 168.641 46.5507C168.435 46.3543 168.095 46.3001 167.882 46.4835C167.696 46.6427 167.502 46.6491 167.284 46.6442C167.228 46.6428 167.171 46.6444 167.114 46.6459C167.022 46.6486 166.929 46.6512 166.838 46.6404C166.574 46.6095 166.486 46.6849 166.488 46.9454C166.491 47.1924 166.561 47.2786 166.822 47.2402C166.887 47.2305 166.953 47.2331 167.019 47.2356ZM167.938 46.9261C167.94 46.7854 168.048 46.6988 168.209 46.6875C168.371 46.6976 168.478 46.7795 168.482 46.9245C168.485 47.0766 168.386 47.1833 168.21 47.1854C168.032 47.187 167.935 47.075 167.938 46.9261Z" fill="#EE2250"/>
<path fill-rule="evenodd" clip-rule="evenodd" d="M108.578 38.1087C108.692 37.8961 108.807 37.6834 108.921 37.4705L109.948 35.5483C110.129 35.2116 110.22 35.0416 110.179 34.9145C110.136 34.7827 109.951 34.697 109.575 34.5194C109.415 34.4434 109.348 34.4694 109.275 34.6149C109.207 34.7491 109.135 34.8811 109.062 35.0131C108.96 35.1998 108.858 35.3865 108.768 35.5794C108.673 35.787 108.572 35.7901 108.389 35.6791C108.152 35.5351 107.902 35.4108 107.653 35.2869C106.939 34.9321 106.365 35.0776 105.954 35.7231C105.593 36.2853 105.279 36.8758 105.015 37.489C104.762 38.0813 104.919 38.6215 105.483 38.9641C105.814 39.1647 106.156 39.3468 106.498 39.529C106.754 39.6654 107.009 39.8017 107.261 39.9458C107.47 40.0658 107.559 40.0315 107.664 39.8282C107.962 39.2516 108.27 38.6801 108.578 38.1087ZM107.756 37.4582L107.608 37.7362C107.569 37.8078 107.53 37.879 107.491 37.9504C107.396 38.1246 107.3 38.2993 107.214 38.4796C107.138 38.64 107.063 38.6743 106.889 38.5801C106.34 38.2818 106.068 38.1762 106.011 38.0008C105.957 37.835 106.096 37.6068 106.375 37.0944C106.453 36.9506 106.53 36.8063 106.607 36.662C106.646 36.5899 106.684 36.5177 106.723 36.4456C106.848 36.2077 107.033 36.1555 107.291 36.2596C107.752 36.4462 107.98 36.5375 108.035 36.6906C108.088 36.8396 107.977 37.0472 107.756 37.4582Z" fill="black"/>
<path fill-rule="evenodd" clip-rule="evenodd" d="M104.014 37.9176L105.275 35.562L106.322 33.609C106.493 33.2881 106.58 33.1269 106.541 33.0049C106.502 32.8784 106.328 32.7939 105.977 32.6173C105.778 32.5172 105.706 32.5729 105.624 32.7372C105.551 32.8829 105.473 33.0259 105.395 33.1688C105.305 33.3345 105.214 33.5002 105.132 33.6701C105.043 33.8552 104.946 33.8691 104.772 33.7677C104.511 33.6156 104.244 33.4725 103.97 33.3442C103.27 33.0158 102.684 33.1686 102.305 33.8086C101.983 34.353 101.684 34.9122 101.407 35.4808C101.093 36.1258 101.251 36.6775 101.887 37.0669C102.25 37.2898 102.628 37.4894 103.006 37.6892C103.238 37.8116 103.47 37.9342 103.698 38.0621C103.885 38.1661 103.938 38.0637 103.998 37.9475C104.004 37.9376 104.009 37.9276 104.014 37.9176ZM104.128 35.5371L104.012 35.7535C103.971 35.8305 103.929 35.9071 103.887 35.9837C103.783 36.174 103.68 36.3642 103.585 36.559C103.505 36.7244 103.417 36.7435 103.252 36.6529C102.717 36.3614 102.44 36.2595 102.378 36.0826C102.32 35.9163 102.452 35.6838 102.74 35.165C102.801 35.0532 102.861 34.9406 102.921 34.828C102.976 34.7236 103.031 34.6192 103.088 34.5156C103.216 34.282 103.401 34.2279 103.658 34.3355C104.121 34.5288 104.349 34.6231 104.403 34.7777C104.455 34.9269 104.345 35.1322 104.128 35.5371Z" fill="black"/>
<path fill-rule="evenodd" clip-rule="evenodd" d="M100.86 35.129C100.92 35.0175 100.98 34.9059 101.04 34.7943L101.028 34.7887C101.1 34.6546 101.174 34.5214 101.247 34.3881C101.411 34.0904 101.576 33.7927 101.721 33.486C102.031 32.8288 101.845 32.2566 101.197 31.8818C100.881 31.6992 100.557 31.531 100.233 31.3627C100.031 31.2578 99.8289 31.1529 99.6288 31.0445C99.4968 30.9729 99.4312 30.9822 99.3464 31.1147C99.3434 31.1193 99.3405 31.1239 99.3376 31.1285C98.8966 31.8192 98.8966 31.8192 99.644 32.2138L99.8046 32.2986C99.8845 32.3416 99.9649 32.3836 100.045 32.4257C100.233 32.5239 100.42 32.6221 100.601 32.7314C100.855 32.885 100.822 33.0971 100.7 33.3152C100.59 33.511 100.479 33.4306 100.376 33.3564C100.345 33.3339 100.315 33.3119 100.285 33.2985C100.113 33.2193 99.9442 33.1331 99.7753 33.047C99.5564 32.9354 99.3376 32.8239 99.1122 32.7275C98.6932 32.5481 98.3218 32.6486 98.0635 33.0031C97.864 33.2771 97.6954 33.5758 97.5953 33.9025C97.441 34.4047 97.5472 34.7489 98.0172 35.0238C98.4295 35.2663 98.8524 35.4911 99.2754 35.716C99.5464 35.86 99.8174 36.0041 100.086 36.1529C100.263 36.2514 100.312 36.1602 100.378 36.0345C100.537 35.7316 100.699 35.4303 100.86 35.129ZM99.1507 33.6122L99.63 33.8652C99.656 33.8782 99.6814 33.8929 99.7068 33.9077C99.7553 33.9358 99.8038 33.9639 99.8563 33.9799C100.233 34.0941 100.195 34.277 100.043 34.5716C99.8852 34.8796 99.7386 34.9268 99.4549 34.727C99.3404 34.6464 99.2126 34.5841 99.0849 34.5217C99.0274 34.4936 98.97 34.4656 98.9137 34.4359C98.5316 34.2326 98.5046 33.8662 98.8497 33.6137C98.9512 33.54 99.0488 33.5584 99.1507 33.6122Z" fill="black"/>
<path fill-rule="evenodd" clip-rule="evenodd" d="M111.745 40.9158C111.817 40.7833 111.891 40.6457 111.969 40.5001C112.041 40.3438 112.132 40.1827 112.227 40.0145C112.39 39.7268 112.565 39.4184 112.674 39.0774C112.863 38.4944 112.721 38.029 112.181 37.6998C111.799 37.4669 111.401 37.2598 111.003 37.0526C110.832 36.9638 110.661 36.8749 110.492 36.784C110.402 36.7358 110.314 36.6975 110.253 36.8209C110.215 36.8972 110.168 36.9733 110.121 37.0494C110.014 37.2223 109.908 37.3951 109.909 37.5696C109.911 37.6964 110.078 37.7616 110.249 37.8282C110.334 37.8616 110.421 37.8953 110.488 37.9373C110.565 37.9858 110.647 38.0271 110.729 38.0685C110.777 38.0927 110.825 38.1168 110.872 38.1424C110.936 38.1775 111.001 38.2114 111.066 38.2452C111.227 38.3288 111.387 38.4123 111.534 38.5151C111.759 38.6721 111.702 38.8758 111.589 39.0789C111.487 39.2621 111.389 39.1896 111.297 39.1217C111.267 39.0993 111.237 39.0774 111.208 39.0653C111.076 39.0096 110.949 38.9396 110.822 38.8695C110.768 38.84 110.715 38.8104 110.661 38.782C109.472 38.1543 109.196 38.2368 108.599 39.3992C108.264 40.0499 108.394 40.5074 109.059 40.8821C109.423 41.0869 109.793 41.28 110.163 41.4732C110.425 41.6101 110.688 41.747 110.948 41.888C111.112 41.977 111.197 41.9613 111.281 41.7938C111.424 41.5078 111.577 41.2262 111.745 40.9158ZM110.353 39.5251C110.403 39.5511 110.453 39.5771 110.502 39.6033L110.503 39.6035C110.527 39.6164 110.551 39.6305 110.575 39.6447C110.625 39.6735 110.674 39.7023 110.727 39.7205C111.084 39.8386 111.11 40.0081 110.935 40.3278C110.771 40.6259 110.64 40.6806 110.353 40.4836C110.207 40.3837 110.047 40.3045 109.887 40.2253C109.809 40.1869 109.731 40.1485 109.655 40.1077C109.382 39.9616 109.478 39.782 109.577 39.5956C109.581 39.5889 109.584 39.5822 109.588 39.5754C109.69 39.3818 109.798 39.2283 110.056 39.3676C110.154 39.4209 110.254 39.473 110.353 39.5251Z" fill="black"/>
<path d="M113.816 43.4049C113.453 43.213 113.093 43.0138 112.724 42.832C112.546 42.7441 112.495 42.6575 112.6 42.4787C112.784 42.1659 112.94 41.8372 113.119 41.522C113.448 40.9401 114.038 40.7782 114.65 41.0925C114.769 41.1532 114.885 41.2168 115.003 41.2789C115.476 41.5285 115.858 41.3226 115.895 40.8034C115.906 40.6376 115.79 40.5804 115.67 40.5175C115.296 40.3199 114.926 40.1132 114.546 39.9287C114.344 39.8308 114.283 39.7465 114.401 39.5312C114.682 39.02 114.67 39.0132 115.192 39.2891C115.534 39.4698 115.881 39.6424 116.217 39.8333C116.762 40.1425 116.924 40.7177 116.674 41.2662C116.123 42.4791 115.508 42.6217 114.425 41.951C114.201 41.8121 114.006 41.7301 113.835 42.0389C113.699 42.2846 113.741 42.3959 113.995 42.5164C114.442 42.7289 114.87 42.9834 115.315 43.2013C115.519 43.3015 115.539 43.398 115.433 43.5823C115.069 44.2164 115.235 44.1381 114.617 43.8281C114.348 43.6921 114.083 43.5461 113.816 43.4049Z" fill="#EE2250"/>
<path d="M119.193 43.8071C118.899 44.3546 118.596 44.897 118.318 45.4519C118.214 45.661 118.116 45.6869 117.91 45.5703C117.288 45.2189 117.375 45.3608 117.652 44.8137C117.785 44.5528 117.91 44.2857 118.071 44.042C118.224 43.8074 118.154 43.6942 117.912 43.5932C117.713 43.5094 117.524 43.3976 117.334 43.2911C116.863 43.0271 116.715 42.5765 116.953 42.1174C117.169 41.7014 117.405 41.2959 117.611 40.8751C117.71 40.6736 117.807 40.6706 117.997 40.7708C118.526 41.05 118.531 41.0408 118.259 41.5478C118.149 41.7543 118.048 41.967 117.925 42.1658C117.774 42.4106 117.828 42.5712 118.093 42.7044C118.758 43.0395 118.588 43.0313 118.895 42.4883C119.033 42.2437 119.172 41.9981 119.291 41.7436C119.377 41.5583 119.472 41.5527 119.65 41.6438C120.201 41.9242 120.205 41.9166 119.922 42.444L119.193 43.8071Z" fill="#EE2250"/>
<path fill-rule="evenodd" clip-rule="evenodd" d="M121.006 43.3291C121.042 43.3502 121.079 43.3712 121.115 43.3907L121.533 43.6104C121.968 43.841 122.007 43.9629 121.778 44.3908C121.675 44.5825 121.573 44.7744 121.471 44.9663C121.177 45.5195 120.883 46.0726 120.578 46.6198C120.459 46.8325 120.47 46.9582 120.715 47.0478C120.795 47.0766 120.87 47.1163 120.939 47.166C121.167 47.3341 121.281 47.2615 121.399 47.0314C121.619 46.5991 121.849 46.1715 122.08 45.7438C122.238 45.4492 122.397 45.1545 122.552 44.8582C122.653 44.6668 122.764 44.5273 122.993 44.4462C123.396 44.304 123.575 43.8829 123.459 43.4988C123.342 43.1147 122.963 42.8258 122.576 42.9225C122.24 43.0067 121.998 42.8894 121.735 42.7424C121.667 42.7042 121.597 42.6697 121.527 42.6353C121.411 42.5787 121.296 42.5222 121.192 42.4498C120.891 42.2397 120.731 42.2792 120.555 42.6145C120.389 42.9325 120.416 43.0881 120.761 43.2074C120.847 43.2368 120.926 43.283 121.006 43.3291ZM122.34 43.5243C122.44 43.3457 122.631 43.3046 122.836 43.3943C123.027 43.5114 123.103 43.6859 123.007 43.8737C122.907 44.0707 122.713 44.1432 122.496 44.0325C122.277 43.9192 122.235 43.7133 122.34 43.5243Z" fill="#EE2250"/>
<path d="M75.1237 128.244C75.1237 128.244 74.8654 130.236 75.1622 130.356C75.6993 130.678 76.3333 130.803 76.954 130.71C77.8395 130.425 78.7405 130.191 79.6527 130.007C80.7519 129.85 83.599 130.182 84.0881 129.43C84.5773 128.679 84.0881 127.117 84.0881 127.117" fill="#FFE0DE"/>
<path d="M84.3013 127.501C84.0817 126.288 82.2698 126.794 81.4187 126.245C79.8539 125.244 79.7715 123.043 79.9143 121.395L76.4332 120.199L75.7469 124.157L75.3516 128.637C75.7084 129.135 76.2891 129.427 76.9054 129.42L79.228 128.909C80.705 128.773 84.4551 128.349 84.3013 127.501Z" fill="#2F2E41"/>
<path d="M80.0983 130.877C80.0983 130.877 79.84 132.869 80.1368 132.989C80.6739 133.31 81.3079 133.436 81.9286 133.342C82.8141 133.058 83.7151 132.824 84.6273 132.64C85.7265 132.482 88.5736 132.814 89.0627 132.063C89.5519 131.312 89.0627 129.75 89.0627 129.75" fill="#FFE0DE"/>
<path d="M88.9439 129.805C88.7243 128.593 86.9124 129.099 86.0613 128.55C84.4965 127.549 84.4141 125.347 84.5569 123.7L81.0758 122.504L80.3895 126.462L79.9941 130.942C80.3509 131.439 80.9317 131.732 81.548 131.725L83.8705 131.214C85.3475 131.078 89.0977 130.659 88.9439 129.805Z" fill="#2F2E41"/>
<path d="M74.9132 117.629L74.0254 122.271C74.0254 122.271 75.3819 123.644 79.9532 123.481C84.5244 123.318 79.9532 115.262 79.9532 115.262" fill="#473F47"/>
<ellipse cx="69.3813" cy="128.43" rx="6.30122" ry="2.3052" fill="#BFBFBF"/>
<path d="M68.3867 117.895L68.6167 127.445H70.3766V117.895" fill="#BFBFBF"/>
<path d="M81.5911 104.219C79.6688 104.622 77.7301 104.933 75.775 105.152C75.6876 105.16 75.6072 105.201 75.552 105.267C75.3271 104.62 75.1349 103.962 74.9753 103.291C74.8882 102.911 74.2789 103.072 74.3659 103.453C74.7258 104.973 75.2604 106.45 75.96 107.857C76.1341 108.211 76.6782 107.904 76.5041 107.549C76.2157 106.96 75.96 106.366 75.7261 105.756H75.7696C77.779 105.531 79.7739 105.211 81.7544 104.797C82.157 104.719 81.9883 104.136 81.5911 104.219Z" fill="#008074"/>
<path d="M76.4204 108.502C75.9054 109.37 75.2435 110.14 74.465 110.776C74.1483 111.036 74.6016 111.49 74.9129 111.23C75.7307 110.557 76.4258 109.744 76.9665 108.828C77.0555 108.675 77.0054 108.479 76.8546 108.388C76.7037 108.298 76.5093 108.349 76.4204 108.502Z" fill="#008074"/>
<path d="M72.3672 106.57C72.3672 106.57 77.4086 102.599 80.755 102.128C84.1014 101.657 85.851 105.227 85.6111 107.614C85.3713 110.001 77.3596 111.307 77.3596 111.307" fill="#EDBAB9"/>
<path d="M75.0599 107.916C75.7142 107.322 84.2753 103.393 87.2908 105.189C90.3063 106.984 90.1154 108.308 89.7337 110.494C89.352 112.681 86.462 124.428 86.462 124.428C84.273 125.254 81.8713 125.365 79.6131 124.744L80.4583 116.003L69.0508 109.883" fill="#473F47"/>
<path d="M68.8406 93.856C69.289 94.1802 73.1625 94.6373 73.9729 96.3965C74.7832 98.1557 76.015 107.207 76.015 107.207C76.015 107.207 73.6919 110.614 69.6672 109.402C68.4732 109.041 62.2821 97.9059 62.1038 96.7526C61.6825 93.7444 68.8406 93.856 68.8406 93.856Z" fill="#9CD8DF"/>
<path d="M61.5029 113.645C61.3078 113.183 61.1475 112.707 61.0234 112.221C60.0754 108.519 59.456 94.6193 65.7205 95.1889C72.5938 95.8068 70.2722 112.974 77.237 112.447C84.2018 111.92 87.0567 113.726 84.2072 116.418C78.5136 121.796 64.9933 121.92 61.5029 113.645Z" fill="#BFBFBF"/>
<path d="M71.2363 88.7082C71.2785 88.9929 71.7637 93.0503 70.6087 93.9647C69.4536 94.8791 66.8535 92.7217 66.7902 91.6485C66.7269 90.5753 65.8461 88.3632 66.9537 87.7828C68.0612 87.2024 70.9251 86.7041 71.2363 88.7082Z" fill="#FFE0DE"/>
<path d="M70.2199 86.235L70.0867 86.1501C68.5888 85.2752 66.1208 85.4926 64.8788 86.7493C64.5445 87.1096 64.2546 87.5084 64.0153 87.937C63.8336 88.2548 63.6324 88.5611 63.4129 88.8544C63.3865 90.4336 63.9903 91.9589 65.092 93.0963C66.1643 93.772 67.4 94.1475 68.6688 94.1833C69.1592 92.7251 68.4502 91.0655 69.1485 89.602C69.4873 88.9464 70.0345 88.4207 70.705 88.1067C70.7342 87.4487 70.5653 86.7969 70.2199 86.235Z" fill="#2F2E41"/>
<path d="M70.028 91.6961C69.867 91.2386 69.5181 90.8702 69.0678 90.6824C68.6603 90.5163 68.1021 90.4664 67.8564 90.9095C67.2982 91.89 68.6491 92.5714 69.3637 92.8483C69.6986 92.9757 69.8438 92.4384 69.5144 92.2944L69.3972 92.2501H69.4363C69.5067 92.2548 69.5759 92.2298 69.6269 92.1813C69.6779 92.1329 69.7059 92.0653 69.7042 91.9953C69.8884 92.0617 70.1117 91.9288 70.028 91.6961Z" fill="#FFE0DE"/>
<path d="M89.99 95.8647C90.9542 96.467 91.4274 97.6167 91.1667 98.7233L89.7533 104.722L79.332 97.6221L80.2282 91.4124C80.3308 90.7011 81.1306 90.33 81.74 90.7107L89.99 95.8647Z" fill="#C0C0C0" stroke="black" stroke-width="0.349098"/>
<path d="M79.2772 97.4766C79.2772 97.4766 73.6243 100.331 73.694 100.402C73.7637 100.473 83.6804 108.015 83.6804 108.015L89.6122 104.654L79.2772 97.4766Z" fill="#6E6E6E" stroke="black" stroke-width="0.349098"/>
<path d="M81.9844 103.492C81.9844 103.492 83.4759 102.208 83.6997 102.105C84.0476 102.041 84.4065 102.138 84.6692 102.366C84.9089 102.581 85.2445 102.504 85.5109 102.78C85.7772 103.057 86.4538 104.029 86.262 104.284C86.0702 104.54 85.5322 103.921 85.3511 103.773C85.17 103.625 85.3511 104.284 85.0954 104.678C84.8397 105.072 83.2895 105.446 82.874 105.369" fill="#FFE0DE"/>
<path d="M74.4447 97.4766C74.4447 97.4766 76.3227 103.844 77.4232 103.865C78.5237 103.887 81.9785 102.729 81.9785 102.729C81.9785 102.729 83.4677 104.241 83.2979 105.198C83.1282 106.154 77.0071 109.547 74.4502 108.927C71.8933 108.308 70.656 99.5319 70.7107 99.3633C70.7655 99.1947 74.4447 97.4766 74.4447 97.4766Z" fill="#9CD8DF"/>
<path d="M80.785 99.6415C80.4902 99.4181 80.1809 99.2148 79.859 99.033C79.5774 98.9026 79.3175 98.756 79.0684 98.6147C78.8447 98.4722 78.5722 98.4289 78.3156 98.4952C77.7703 98.8988 77.2461 99.3303 76.7452 99.7881C76.442 100.005 76.1333 100.217 75.8138 100.418C75.6986 100.489 75.6524 100.633 75.7055 100.757C75.7586 100.882 75.8948 100.948 76.025 100.913C76.182 100.875 76.3336 100.826 76.4853 100.771C76.4787 100.867 76.4787 100.964 76.4853 101.059C76.4247 101.39 76.4863 101.732 76.6586 102.021C76.6764 102.057 76.7023 102.089 76.7344 102.113L76.534 102.189C76.2091 102.309 76.3499 102.836 76.6802 102.733L78.5431 102.048C78.9955 101.931 79.4086 101.694 79.7399 101.364C79.8304 101.277 79.8497 101.139 79.7866 101.03C79.7235 100.922 79.5944 100.871 79.4745 100.907C79.3391 100.94 79.2092 100.983 79.0792 101.027C79.377 100.619 79.8319 100.13 79.989 100.266C80.3534 100.543 80.8518 100.56 81.2345 100.31C81.5269 100.016 81.007 99.7881 80.785 99.6415Z" fill="#FFE0DE"/>
<path d="M76.7914 100.113C76.7914 100.113 74.8255 100.362 73.3552 100.399C72.7549 101.181 72.2097 101.985 71.7031 102.831C71.8133 103.36 71.8573 103.888 71.9785 104.417C71.993 104.519 71.993 104.622 71.9785 104.724C74.5942 104.311 77.3806 103.275 77.6064 102.72C77.9588 101.832 76.7914 100.113 76.7914 100.113Z" fill="#9CD8DF"/>
<path d="M66.3326 87.5904C66.2247 87.1408 65.8602 86.7914 65.3954 86.6921C64.0283 86.3392 62.2258 87.1466 61.8179 88.5154C61.4843 90.0419 62.4882 91.5421 64.0614 91.868C64.8258 91.9336 65.5838 91.687 66.153 91.1877C66.7221 90.6884 67.0509 89.9816 67.0602 89.2373C67.0553 88.6159 66.7931 88.0224 66.3326 87.5904Z" fill="#2F2E41"/>
<path fill-rule="evenodd" clip-rule="evenodd" d="M85.013 96.9384C85.0586 96.8664 85.1041 96.7944 85.1495 96.7223L85.5588 96.0712C85.6319 95.9549 85.6682 95.8973 85.6564 95.8522C85.6447 95.8072 85.5852 95.7747 85.4668 95.7087C85.4152 95.6799 85.3919 95.6879 85.3625 95.7373C85.3353 95.7828 85.3066 95.8275 85.2779 95.8722C85.2373 95.9354 85.1966 95.9986 85.1603 96.0641C85.1212 96.1347 85.0873 96.1342 85.0293 96.093C84.9541 96.0394 84.874 95.9925 84.794 95.9458C84.5653 95.8119 84.3673 95.8537 84.2077 96.0713C84.0676 96.2609 83.9424 96.4609 83.8333 96.6696C83.7287 96.8711 83.764 97.0609 83.9428 97.1883C84.0476 97.2628 84.1567 97.3312 84.2659 97.3995C84.3476 97.4507 84.4293 97.5019 84.5092 97.5556C84.5759 97.6004 84.607 97.5899 84.649 97.521C84.7682 97.3255 84.8906 97.132 85.013 96.9384ZM84.7582 96.7004L84.6989 96.7947C84.6836 96.8189 84.6681 96.8431 84.6526 96.8672C84.6146 96.9263 84.5766 96.9855 84.5418 97.0468C84.5107 97.1013 84.4843 97.1121 84.429 97.0768C84.2566 96.9668 84.1683 96.9256 84.1527 96.8655C84.1374 96.8067 84.1917 96.73 84.3047 96.5533C84.3357 96.5046 84.3663 96.4556 84.397 96.4067C84.4124 96.3822 84.4277 96.3577 84.4431 96.3333C84.493 96.2526 84.5573 96.2373 84.6406 96.2773C84.7872 96.3476 84.861 96.3828 84.8764 96.435C84.8919 96.4879 84.8476 96.5583 84.7582 96.7004Z" fill="white"/>
<path fill-rule="evenodd" clip-rule="evenodd" d="M83.2687 96.6667L83.7716 95.8676L84.1886 95.205C84.2584 95.0941 84.2928 95.0395 84.282 94.9961C84.2712 94.9527 84.2152 94.9206 84.1042 94.8549C84.0403 94.817 84.014 94.8352 83.9809 94.891C83.9517 94.9405 83.9207 94.989 83.8896 95.0375C83.8536 95.0937 83.8176 95.1498 83.7845 95.2076C83.7484 95.2706 83.7149 95.2739 83.6595 95.2359C83.5763 95.1789 83.4903 95.125 83.402 95.0761C83.1761 94.951 82.9729 94.9949 82.8239 95.2115C82.6975 95.3957 82.5781 95.5854 82.4661 95.7787C82.3388 95.998 82.3744 96.1923 82.577 96.3376C82.6926 96.4208 82.8139 96.4961 82.9352 96.5715C83.0097 96.6177 83.0841 96.6639 83.1572 96.712C83.2169 96.751 83.2382 96.7163 83.2624 96.6768C83.2645 96.6735 83.2666 96.6701 83.2687 96.6667ZM83.3831 95.843L83.3368 95.9166C83.3204 95.9427 83.3037 95.9687 83.2871 95.9947C83.2457 96.0593 83.2044 96.1239 83.1662 96.1902C83.1336 96.2465 83.1034 96.2518 83.0502 96.2177C82.8815 96.1096 82.7913 96.0694 82.774 96.0086C82.7573 95.9495 82.8094 95.8709 82.9255 95.692C82.9498 95.654 82.9737 95.6157 82.9975 95.5775C83.0196 95.542 83.0417 95.5066 83.0643 95.4714C83.1154 95.3921 83.1797 95.3762 83.2633 95.4176C83.411 95.4908 83.485 95.5271 83.5 95.5802C83.5151 95.6332 83.4712 95.703 83.3831 95.843Z" fill="white"/>
<path fill-rule="evenodd" clip-rule="evenodd" d="M82.2881 95.6192C82.3134 95.579 82.3388 95.5388 82.3641 95.4985L82.3604 95.4964C82.3908 95.4481 82.4218 95.4001 82.4527 95.3521C82.5219 95.2448 82.591 95.1375 82.6541 95.0269C82.789 94.7899 82.751 94.5811 82.5468 94.4416C82.4473 94.3737 82.3443 94.3109 82.2414 94.2481C82.1771 94.209 82.1129 94.1699 82.0495 94.1294C82.0077 94.1028 81.985 94.1058 81.9502 94.1535C81.8545 94.285 81.808 94.3481 81.8188 94.399C81.8288 94.4461 81.888 94.4829 82.0029 94.5542L82.0538 94.5858C82.0791 94.6018 82.1047 94.6175 82.1302 94.6332C82.1897 94.6699 82.2493 94.7065 82.306 94.7471C82.3858 94.8042 82.3651 94.8811 82.3139 94.9596C82.2678 95.0302 82.2334 95.0004 82.2017 94.9729C82.1921 94.9646 82.1827 94.9565 82.1733 94.9514C82.1182 94.9218 82.0644 94.8896 82.0107 94.8575C81.941 94.8158 81.8714 94.7742 81.7989 94.738C81.6641 94.6707 81.533 94.7053 81.4293 94.8327C81.3492 94.9312 81.2785 95.0388 81.2299 95.1569C81.155 95.3385 81.176 95.4641 81.3239 95.5663C81.4537 95.6565 81.5878 95.7403 81.722 95.8242C81.8079 95.8779 81.8939 95.9316 81.9787 95.987C82.0348 96.0237 82.0555 95.9909 82.0835 95.9455C82.151 95.8363 82.2196 95.7278 82.2881 95.6192ZM81.7732 95.061L81.9253 95.1554C81.9336 95.1603 81.9416 95.1658 81.9496 95.1713C81.9649 95.1817 81.9802 95.1922 81.9974 95.1983C82.1208 95.2417 82.0995 95.308 82.0348 95.4143C81.9672 95.5255 81.9151 95.5419 81.8273 95.4678C81.7918 95.438 81.751 95.4146 81.7102 95.3913C81.6919 95.3808 81.6736 95.3704 81.6557 95.3593C81.5345 95.2834 81.5416 95.1501 81.6705 95.0601C81.7083 95.0338 81.7408 95.041 81.7732 95.061Z" fill="white"/>
<path fill-rule="evenodd" clip-rule="evenodd" d="M86.0207 97.9456C86.051 97.8978 86.0825 97.8482 86.1156 97.7957C86.1469 97.7393 86.1852 97.6812 86.2252 97.6206C86.2935 97.5169 86.3667 97.4057 86.4189 97.2823C86.5091 97.0714 86.4811 96.9014 86.3111 96.7787C86.1909 96.6919 86.0641 96.6144 85.9373 96.5369C85.8829 96.5036 85.8285 96.4703 85.7747 96.4364C85.7461 96.4183 85.7177 96.4039 85.6914 96.4485C85.6751 96.476 85.6557 96.5034 85.6363 96.5308C85.5922 96.5931 85.5481 96.6553 85.541 96.7188C85.5359 96.7649 85.5901 96.7895 85.6455 96.8147C85.6733 96.8273 85.7013 96.84 85.7223 96.8557C85.7466 96.8737 85.7728 96.8892 85.799 96.9047C85.8143 96.9138 85.8295 96.9228 85.8445 96.9324C85.8648 96.9455 85.8856 96.9582 85.9063 96.9708C85.9575 97.0021 86.0087 97.0334 86.0544 97.0716C86.1244 97.1299 86.0957 97.2036 86.0482 97.2768C86.0055 97.3429 85.9752 97.316 85.9468 97.2908C85.9374 97.2825 85.9282 97.2744 85.9189 97.2698C85.8759 97.2488 85.8357 97.2226 85.7955 97.1965C85.7785 97.1854 85.7616 97.1744 85.7444 97.1638C85.366 96.9289 85.2681 96.9574 85.0127 97.3767C84.8698 97.6115 84.8941 97.7785 85.1048 97.9185C85.2199 97.9949 85.3379 98.0672 85.4558 98.1395C85.5394 98.1907 85.623 98.242 85.7056 98.2947C85.7576 98.3279 85.7875 98.3227 85.8235 98.2623C85.8851 98.1591 85.9496 98.0575 86.0207 97.9456ZM85.6059 97.4313C85.6217 97.4411 85.6375 97.4508 85.6533 97.4606L85.6534 97.4607C85.6613 97.4655 85.6689 97.4708 85.6765 97.4761C85.6921 97.4868 85.7076 97.4976 85.7248 97.5045C85.8418 97.5494 85.8431 97.6113 85.7692 97.7267C85.7 97.8342 85.653 97.8535 85.5635 97.7802C85.5181 97.743 85.4668 97.7133 85.4155 97.6836C85.3906 97.6692 85.3658 97.6548 85.3416 97.6396C85.2548 97.5849 85.2954 97.5201 85.3375 97.4528C85.3391 97.4504 85.3406 97.4479 85.3421 97.4455C85.3857 97.3756 85.4292 97.3203 85.5111 97.3724C85.5426 97.3923 85.5742 97.4118 85.6059 97.4313Z" fill="white"/>
<path d="M86.6614 98.8865C86.5278 98.8036 86.3958 98.7181 86.2601 98.6389C86.1945 98.6007 86.1772 98.5665 86.2215 98.5021C86.2989 98.3893 86.3662 98.2698 86.4418 98.156C86.5812 97.946 86.8091 97.9018 87.0343 98.038C87.0779 98.0643 87.1208 98.0917 87.164 98.1185C87.3377 98.2262 87.488 98.1595 87.5144 97.9647C87.5229 97.9025 87.48 97.8776 87.436 97.8504C87.2986 97.7651 87.163 97.6765 87.0227 97.5959C86.9484 97.5532 86.9274 97.5196 86.9773 97.4418C87.0967 97.257 87.0922 97.2541 87.284 97.3732C87.4097 97.4512 87.5373 97.5263 87.6605 97.608C87.8603 97.7403 87.9078 97.962 87.7997 98.1617C87.5606 98.6035 87.3235 98.6396 86.9279 98.3554C86.846 98.2966 86.7742 98.2601 86.7017 98.3716C86.6438 98.4604 86.6571 98.5036 86.7508 98.5564C86.9158 98.6494 87.0721 98.7577 87.236 98.8528C87.3111 98.8964 87.3166 98.9334 87.2719 98.9999C87.1181 99.2287 87.1831 99.2039 86.9555 99.0692C86.8568 99.0101 86.7596 98.9474 86.6614 98.8865Z" fill="#EE2250"/>
<path d="M88.5711 99.1163C88.4464 99.3145 88.3184 99.5108 88.1986 99.7118C88.1534 99.7875 88.1187 99.7964 88.0531 99.7527C87.8553 99.6209 87.8788 99.6732 87.9982 99.475C88.0552 99.3805 88.11 99.2837 88.1759 99.1957C88.2389 99.1109 88.2197 99.0692 88.1413 99.0309C88.0765 98.9992 88.0166 98.9573 87.9563 98.9173C87.8064 98.8183 87.7755 98.653 87.8774 98.4867C87.9698 98.3361 88.0688 98.1894 88.1579 98.0369C88.2007 97.9639 88.2341 97.9634 88.295 98.0011C88.4641 98.106 88.4662 98.1026 88.3506 98.2862C88.3036 98.3609 88.2597 98.438 88.2087 98.5099C88.1459 98.5984 88.1573 98.6573 88.2424 98.7075C88.4559 98.8336 88.3979 98.8296 88.5271 98.6332C88.5854 98.5446 88.6439 98.4557 88.6957 98.3635C88.7335 98.2963 88.7663 98.2949 88.8235 98.3291C89.0001 98.4346 89.0018 98.4318 88.8816 98.6228L88.5711 99.1163Z" fill="#EE2250"/>
<path fill-rule="evenodd" clip-rule="evenodd" d="M89.1918 99.0649C89.2044 99.0734 89.2169 99.0818 89.2297 99.0898L89.3743 99.1793C89.5252 99.2732 89.5369 99.3169 89.4478 99.4586C89.4079 99.522 89.3681 99.5856 89.3284 99.6491C89.2139 99.8323 89.0994 100.016 88.9812 100.196C88.9352 100.267 88.937 100.311 89.0224 100.349C89.0504 100.362 89.0765 100.378 89.1001 100.398C89.1784 100.463 89.2203 100.442 89.2662 100.365C89.3524 100.222 89.4419 100.08 89.5314 99.9387C89.5931 99.8412 89.6548 99.7437 89.7154 99.6455C89.7547 99.5821 89.7966 99.537 89.8795 99.516C90.0254 99.4792 90.0967 99.3384 90.062 99.2011C90.0273 99.0638 89.8977 98.9513 89.7581 98.9728C89.637 98.9916 89.5529 98.9431 89.4617 98.8837C89.4382 98.8683 89.4138 98.8541 89.3895 98.8399C89.3494 98.8166 89.3094 98.7933 89.2737 98.7648C89.1701 98.6823 89.1125 98.691 89.044 98.8021C88.9792 98.9075 88.986 98.9625 89.1068 99.0149C89.1368 99.0278 89.1643 99.0464 89.1918 99.0649ZM89.6627 99.1758C89.7014 99.1165 89.7705 99.1081 89.842 99.1458C89.9078 99.1927 89.9317 99.2559 89.8943 99.3185C89.855 99.3842 89.7843 99.4034 89.7092 99.358C89.6328 99.3116 89.6218 99.2385 89.6627 99.1758Z" fill="#EE2250"/>
<path d="M116.46 139.169C116.46 139.395 116.28 142.094 116.585 142.395C116.89 142.696 117.675 144.233 118.684 144.303C119.692 144.373 120.597 144.174 120.782 145.223C120.967 146.271 115.157 146.626 115.157 146.626C115.157 146.626 114.546 144.228 114.285 144.298C114.023 144.368 114.012 146.975 114.012 146.975L112.922 147.201L111.832 146.492L112.268 141.889L112.971 137.98" fill="#2F2E41"/>
<path d="M120.724 143.116C120.582 144.729 120.664 146.923 122.222 147.912C123.075 148.45 124.874 147.955 125.092 149.154C125.284 150.203 119.456 150.59 119.456 150.59C119.456 150.59 118.827 148.192 118.565 148.267C118.302 148.342 118.329 150.918 118.329 150.918L117.236 151.154L116.143 150.45L116.553 145.848L117.236 141.934" fill="#2F2E41"/>
<path d="M111.04 137.053L110.174 141.7C110.174 141.7 111.53 143.074 116.102 142.911C120.673 142.748 116.102 134.691 116.102 134.691" fill="#473F47"/>
<ellipse cx="105.532" cy="147.86" rx="6.30122" ry="2.3052" fill="#BFBFBF"/>
<path d="M104.535 137.324L104.765 146.874H106.525V137.324" fill="#BFBFBF"/>
<path d="M117.754 123.649C115.828 124.052 113.885 124.363 111.926 124.582C111.839 124.59 111.758 124.631 111.703 124.696C111.478 124.05 111.285 123.392 111.125 122.721C111.038 122.341 110.427 122.502 110.514 122.883C110.875 124.402 111.411 125.879 112.112 127.287C112.286 127.641 112.831 127.333 112.657 126.979C112.368 126.39 112.112 125.796 111.877 125.186H111.921C113.934 124.96 115.934 124.641 117.918 124.227C118.3 124.149 118.131 123.565 117.754 123.649Z" fill="#008074"/>
<path d="M112.569 127.931C112.054 128.8 111.392 129.57 110.613 130.206C110.297 130.466 110.75 130.92 111.061 130.659C111.879 129.987 112.574 129.174 113.115 128.258C113.204 128.105 113.154 127.908 113.003 127.818C112.852 127.728 112.658 127.779 112.569 127.931Z" fill="#008074"/>
<path d="M108.516 126C108.516 126 113.557 122.029 116.903 121.558C120.25 121.087 121.999 124.657 121.76 127.044C121.52 129.431 113.508 130.736 113.508 130.736" fill="#EDBAB9"/>
<path d="M111.239 127.346C111.892 126.751 120.436 122.823 123.445 124.618C126.454 126.414 126.263 127.737 125.883 129.924C125.502 132.11 122.618 143.857 122.618 143.857C120.433 144.684 118.037 144.794 115.783 144.173L116.626 135.454L105.199 129.329" fill="#473F47"/>
<path d="M104.989 113.286C105.438 113.61 109.311 114.067 110.121 115.826C110.932 117.585 112.163 126.637 112.163 126.637C112.163 126.637 109.84 130.043 105.816 128.832C104.622 128.47 98.431 117.336 98.2527 116.182C97.8259 113.169 104.989 113.286 104.989 113.286Z" fill="#9CD8DF"/>
<path d="M97.3193 133.075C97.1242 132.613 96.9639 132.137 96.8399 131.651C95.8918 127.949 95.2724 114.049 101.537 114.619C108.41 115.236 106.089 132.403 113.053 131.877C120.018 131.35 122.873 133.155 120.024 135.847C114.33 141.226 100.81 141.349 97.3193 133.075Z" fill="#BFBFBF"/>
<path d="M107.385 108.138C107.427 108.423 107.912 112.48 106.757 113.394C105.602 114.309 103.002 112.151 102.939 111.078C102.875 110.005 101.995 107.793 103.102 107.213C104.21 106.632 107.074 106.134 107.385 108.138Z" fill="#FFE0DE"/>
<path d="M106.246 105.58C104.746 104.705 102.275 104.922 101.031 106.18C100.696 106.54 100.406 106.939 100.167 107.368C99.9846 107.686 99.7831 107.993 99.5633 108.286C99.5369 109.866 100.142 111.393 101.245 112.531C102.501 113.336 103.988 113.708 105.478 113.592C105.35 113.062 105.237 112.531 105.152 112C105.013 111.135 104.805 110.08 105.451 109.347C105.673 109.075 106.033 108.955 106.374 109.04L106.417 109.013L107.698 109.093C108.166 107.726 107.546 106.225 106.246 105.58Z" fill="#2F2E41"/>
<path d="M100.234 107.773C98.7975 105.192 94.4447 106.461 94.1219 109.192C93.989 110.499 94.3392 111.809 95.1065 112.875C96.1395 114.166 96.1826 117.043 94.3963 119.14C92.61 121.237 94.0681 123.759 96.1395 124.651C98.211 125.544 102.698 125.517 102.542 121.893C102.386 118.269 98.0119 113.639 98.0765 111.139C98.141 108.638 100.659 110.063 100.659 110.063" fill="#2F2E41"/>
<path d="M106.176 111.126C106.015 110.668 105.667 110.3 105.216 110.112C104.809 109.946 104.251 109.896 104.005 110.339C103.447 111.32 104.798 112.001 105.512 112.278C105.847 112.405 105.992 111.868 105.663 111.724L105.546 111.68H105.585C105.655 111.684 105.724 111.66 105.775 111.611C105.826 111.563 105.854 111.495 105.853 111.425C106.037 111.503 106.26 111.37 106.176 111.126Z" fill="#FFE0DE"/>
<path d="M126.945 115.798C127.427 116.099 127.664 116.674 127.533 117.227L125.902 124.151L115.48 117.052L116.449 110.339C116.518 109.865 117.051 109.617 117.457 109.871L126.945 115.798Z" fill="#C0C0C0" stroke="black" stroke-width="0.349098"/>
<path d="M115.426 116.906C115.426 116.906 109.778 119.767 109.842 119.843C109.907 119.919 119.829 127.444 119.829 127.444L125.761 124.077L115.426 116.906Z" fill="#6E6E6E" stroke="black" stroke-width="0.349098"/>
<path d="M117.801 122.921C117.801 122.921 119.292 121.637 119.516 121.535C119.864 121.471 120.223 121.568 120.486 121.796C120.725 122.011 121.061 121.934 121.327 122.21C121.594 122.486 122.27 123.458 122.078 123.714C121.887 123.97 121.349 123.351 121.167 123.203C120.986 123.054 121.167 123.714 120.912 124.108C120.656 124.502 119.106 124.875 118.69 124.799" fill="#FFE0DE"/>
<path d="M110.267 116.906C110.267 116.906 112.145 123.295 113.24 123.295C114.335 123.295 117.795 122.159 117.795 122.159C117.795 122.159 119.284 123.67 119.114 124.627C118.945 125.584 112.823 128.977 110.267 128.357C107.71 127.737 106.472 118.962 106.527 118.793C106.582 118.624 110.267 116.906 110.267 116.906Z" fill="#9CD8DF"/>
<path d="M116.935 119.393C116.641 119.171 116.332 118.969 116.01 118.788C115.729 118.658 115.469 118.512 115.22 118.372C114.996 118.23 114.724 118.187 114.468 118.253C113.92 118.661 113.395 119.098 112.893 119.561C112.59 119.777 112.281 119.988 111.962 120.188C111.847 120.258 111.801 120.402 111.854 120.525C111.907 120.649 112.043 120.715 112.173 120.68C112.33 120.642 112.482 120.593 112.633 120.539C112.627 120.635 112.627 120.73 112.633 120.826C112.573 121.155 112.634 121.495 112.806 121.782C112.824 121.819 112.85 121.85 112.882 121.874L112.682 121.95C112.357 122.069 112.498 122.593 112.828 122.49L114.69 121.809C115.142 121.693 115.554 121.457 115.885 121.128C115.976 121.042 115.995 120.905 115.932 120.797C115.869 120.689 115.74 120.638 115.62 120.674C115.485 120.707 115.355 120.75 115.225 120.793C115.523 120.388 115.977 119.901 116.134 120.037C116.499 120.312 116.997 120.329 117.379 120.08C117.677 119.745 117.168 119.528 116.935 119.393Z" fill="#FFE0DE"/>
<path d="M112.94 119.543C112.94 119.543 110.974 119.791 109.504 119.828C108.903 120.611 108.358 121.415 107.852 122.261C107.962 122.789 108.006 123.318 108.127 123.847C108.141 123.948 108.141 124.052 108.127 124.153C110.743 123.741 113.529 122.705 113.755 122.15C114.107 121.277 112.94 119.543 112.94 119.543Z" fill="#9CD8DF"/>
<path fill-rule="evenodd" clip-rule="evenodd" d="M120.833 116.036C120.879 115.964 120.924 115.892 120.97 115.82L121.379 115.169C121.452 115.053 121.489 114.995 121.477 114.95C121.465 114.905 121.405 114.872 121.287 114.806C121.236 114.778 121.212 114.786 121.183 114.835C121.156 114.88 121.127 114.925 121.098 114.97C121.058 115.033 121.017 115.096 120.981 115.162C120.942 115.232 120.908 115.232 120.85 115.191C120.774 115.137 120.694 115.09 120.614 115.043C120.386 114.91 120.188 114.951 120.028 115.169C119.888 115.359 119.763 115.559 119.654 115.767C119.549 115.969 119.584 116.159 119.763 116.286C119.868 116.36 119.977 116.429 120.086 116.497C120.168 116.548 120.25 116.6 120.33 116.653C120.396 116.698 120.427 116.688 120.469 116.619C120.589 116.423 120.711 116.23 120.833 116.036ZM120.579 115.798L120.519 115.892C120.504 115.917 120.488 115.941 120.473 115.965C120.435 116.024 120.397 116.083 120.362 116.144C120.331 116.199 120.305 116.21 120.249 116.174C120.077 116.064 119.989 116.023 119.973 115.963C119.958 115.904 120.012 115.828 120.125 115.651C120.156 115.602 120.187 115.553 120.217 115.504C120.233 115.48 120.248 115.455 120.263 115.431C120.313 115.35 120.378 115.335 120.461 115.375C120.607 115.445 120.681 115.48 120.697 115.533C120.712 115.586 120.668 115.656 120.579 115.798Z" fill="white"/>
<path fill-rule="evenodd" clip-rule="evenodd" d="M119.087 115.772L119.59 114.973L120.007 114.31C120.077 114.2 120.111 114.145 120.1 114.102C120.09 114.058 120.034 114.026 119.923 113.96C119.859 113.922 119.832 113.941 119.799 113.997C119.77 114.046 119.739 114.094 119.708 114.143C119.672 114.199 119.636 114.255 119.603 114.313C119.567 114.376 119.533 114.379 119.478 114.341C119.395 114.284 119.309 114.23 119.22 114.182C118.994 114.056 118.791 114.1 118.642 114.317C118.516 114.501 118.396 114.691 118.284 114.884C118.157 115.103 118.193 115.298 118.395 115.443C118.511 115.526 118.632 115.602 118.754 115.677C118.828 115.723 118.902 115.769 118.976 115.817C119.035 115.856 119.057 115.822 119.081 115.782C119.083 115.779 119.085 115.776 119.087 115.772ZM119.201 114.949L119.155 115.022C119.139 115.048 119.122 115.074 119.105 115.1C119.064 115.165 119.023 115.229 118.985 115.296C118.952 115.352 118.922 115.357 118.869 115.323C118.7 115.215 118.61 115.175 118.592 115.114C118.576 115.055 118.628 114.976 118.744 114.797C118.768 114.759 118.792 114.721 118.816 114.683C118.838 114.647 118.86 114.612 118.883 114.577C118.934 114.498 118.998 114.482 119.082 114.523C119.229 114.596 119.303 114.633 119.318 114.686C119.333 114.739 119.29 114.808 119.201 114.949Z" fill="white"/>
<path fill-rule="evenodd" clip-rule="evenodd" d="M118.108 114.717C118.134 114.677 118.159 114.636 118.184 114.596L118.181 114.594C118.211 114.546 118.242 114.498 118.273 114.45C118.342 114.342 118.411 114.235 118.474 114.125C118.609 113.888 118.571 113.679 118.367 113.539C118.268 113.471 118.165 113.409 118.062 113.346C117.997 113.307 117.933 113.268 117.87 113.227C117.828 113.2 117.805 113.203 117.77 113.251C117.675 113.383 117.628 113.446 117.639 113.497C117.649 113.544 117.708 113.581 117.823 113.652L117.874 113.683C117.899 113.699 117.925 113.715 117.951 113.731C118.01 113.768 118.07 113.804 118.126 113.845C118.206 113.902 118.185 113.979 118.134 114.057C118.088 114.128 118.054 114.098 118.022 114.071C118.012 114.062 118.003 114.054 117.994 114.049C117.938 114.019 117.885 113.987 117.831 113.955C117.761 113.913 117.692 113.872 117.619 113.836C117.484 113.768 117.353 113.803 117.25 113.93C117.169 114.029 117.099 114.136 117.05 114.255C116.975 114.436 116.996 114.562 117.144 114.664C117.274 114.754 117.408 114.838 117.542 114.922C117.628 114.976 117.714 115.029 117.799 115.085C117.855 115.121 117.876 115.089 117.904 115.043C117.971 114.934 118.04 114.825 118.108 114.717ZM117.593 114.159L117.746 114.253C117.754 114.258 117.762 114.263 117.77 114.269C117.785 114.279 117.801 114.29 117.818 114.296C117.941 114.339 117.92 114.406 117.855 114.512C117.788 114.623 117.735 114.64 117.648 114.565C117.612 114.536 117.571 114.512 117.531 114.489C117.512 114.478 117.494 114.468 117.476 114.457C117.355 114.381 117.362 114.248 117.491 114.158C117.529 114.131 117.561 114.139 117.593 114.159Z" fill="white"/>
<path fill-rule="evenodd" clip-rule="evenodd" d="M121.841 117.051C121.871 117.003 121.903 116.954 121.936 116.901C121.967 116.845 122.006 116.787 122.045 116.726C122.114 116.622 122.187 116.511 122.239 116.388C122.329 116.177 122.301 116.007 122.131 115.884C122.011 115.797 121.884 115.72 121.758 115.642C121.703 115.609 121.649 115.576 121.595 115.542C121.566 115.524 121.538 115.509 121.512 115.554C121.495 115.581 121.476 115.609 121.457 115.636C121.412 115.699 121.368 115.761 121.361 115.824C121.356 115.87 121.41 115.895 121.466 115.92C121.494 115.933 121.522 115.945 121.543 115.961C121.567 115.979 121.593 115.995 121.619 116.01C121.635 116.019 121.65 116.028 121.665 116.038C121.685 116.051 121.706 116.064 121.727 116.076C121.778 116.108 121.829 116.139 121.875 116.177C121.945 116.235 121.916 116.309 121.869 116.382C121.826 116.448 121.796 116.421 121.767 116.396C121.758 116.388 121.749 116.38 121.739 116.375C121.696 116.354 121.656 116.328 121.616 116.302C121.599 116.291 121.582 116.28 121.565 116.269C121.186 116.034 121.088 116.063 120.833 116.482C120.69 116.717 120.714 116.884 120.925 117.024C121.04 117.1 121.158 117.173 121.276 117.245C121.36 117.296 121.443 117.347 121.526 117.4C121.578 117.433 121.608 117.428 121.644 117.368C121.705 117.265 121.77 117.163 121.841 117.051ZM121.426 116.537C121.442 116.547 121.458 116.556 121.474 116.566L121.474 116.566C121.482 116.571 121.489 116.576 121.497 116.582C121.512 116.592 121.528 116.603 121.545 116.61C121.662 116.655 121.663 116.717 121.59 116.832C121.52 116.94 121.473 116.959 121.384 116.886C121.338 116.849 121.287 116.819 121.236 116.789C121.211 116.775 121.186 116.76 121.162 116.745C121.075 116.69 121.116 116.626 121.158 116.558C121.159 116.556 121.161 116.553 121.162 116.551C121.206 116.481 121.25 116.426 121.331 116.478C121.363 116.498 121.395 116.517 121.426 116.537Z" fill="white"/>
<path d="M122.48 117.992C122.346 117.909 122.214 117.824 122.078 117.744C122.013 117.706 121.996 117.672 122.04 117.608C122.117 117.495 122.185 117.375 122.26 117.261C122.4 117.051 122.627 117.007 122.853 117.143C122.896 117.17 122.939 117.197 122.982 117.224C123.156 117.332 123.306 117.265 123.333 117.07C123.341 117.008 123.298 116.983 123.254 116.956C123.117 116.871 122.981 116.782 122.841 116.701C122.767 116.659 122.746 116.625 122.796 116.547C122.915 116.362 122.911 116.36 123.102 116.479C123.228 116.557 123.356 116.632 123.479 116.713C123.679 116.846 123.726 117.067 123.618 117.267C123.379 117.709 123.142 117.745 122.746 117.461C122.664 117.402 122.593 117.366 122.52 117.477C122.462 117.566 122.475 117.609 122.569 117.662C122.734 117.755 122.89 117.863 123.054 117.958C123.129 118.002 123.135 118.039 123.09 118.105C122.936 118.334 123.001 118.309 122.774 118.175C122.675 118.116 122.578 118.053 122.48 117.992Z" fill="#EE2250"/>
<path d="M124.389 118.218C124.265 118.416 124.137 118.612 124.017 118.813C123.972 118.889 123.937 118.898 123.871 118.854C123.674 118.722 123.697 118.775 123.817 118.577C123.874 118.482 123.928 118.385 123.994 118.297C124.057 118.212 124.038 118.171 123.96 118.132C123.895 118.101 123.835 118.059 123.775 118.019C123.625 117.92 123.594 117.755 123.696 117.588C123.788 117.438 123.887 117.291 123.976 117.138C124.019 117.066 124.052 117.065 124.113 117.103C124.282 117.208 124.285 117.204 124.169 117.388C124.122 117.462 124.078 117.54 124.027 117.611C123.964 117.7 123.976 117.759 124.061 117.809C124.274 117.935 124.216 117.931 124.345 117.735C124.404 117.646 124.462 117.557 124.514 117.465C124.552 117.398 124.585 117.396 124.642 117.431C124.818 117.536 124.82 117.533 124.7 117.724L124.389 118.218Z" fill="#EE2250"/>
<path fill-rule="evenodd" clip-rule="evenodd" d="M125.01 118.17C125.023 118.179 125.035 118.187 125.048 118.195L125.193 118.285C125.344 118.379 125.355 118.422 125.266 118.564C125.226 118.627 125.187 118.691 125.147 118.755C125.032 118.938 124.918 119.121 124.8 119.302C124.754 119.372 124.755 119.416 124.841 119.455C124.869 119.468 124.895 119.484 124.918 119.503C124.997 119.569 125.039 119.547 125.085 119.471C125.171 119.327 125.26 119.186 125.35 119.044C125.411 118.947 125.473 118.849 125.534 118.751C125.573 118.688 125.615 118.643 125.698 118.621C125.844 118.585 125.915 118.444 125.88 118.307C125.846 118.169 125.716 118.057 125.576 118.078C125.455 118.097 125.371 118.049 125.28 117.989C125.257 117.974 125.232 117.96 125.208 117.945C125.168 117.922 125.128 117.899 125.092 117.87C124.988 117.788 124.931 117.796 124.862 117.908C124.798 118.013 124.804 118.068 124.925 118.12C124.955 118.133 124.983 118.152 125.01 118.17ZM125.481 118.281C125.52 118.222 125.589 118.214 125.66 118.251C125.726 118.298 125.75 118.361 125.713 118.424C125.673 118.49 125.603 118.509 125.528 118.463C125.451 118.417 125.44 118.344 125.481 118.281Z" fill="#EE2250"/>
<path d="M100.888 108.051C100.888 107.483 100.378 107.023 99.7484 107.023C99.1254 107.037 98.6239 107.489 98.6089 108.051C98.5681 108.463 98.5566 108.876 98.5747 109.289C98.5747 109.857 99.0849 110.317 99.7142 110.317C100.344 110.317 100.854 109.857 100.854 109.289C100.836 108.876 100.847 108.463 100.888 108.051Z" fill="#EF3D56"/>
<path d="M47.4792 101.626C47.4792 101.852 47.2993 104.551 47.6046 104.852C47.9098 105.153 48.6947 106.69 49.7031 106.76C50.7115 106.83 51.6163 106.631 51.8016 107.68C51.9869 108.728 46.1765 109.083 46.1765 109.083C46.1765 109.083 45.566 106.685 45.3044 106.755C45.0427 106.825 45.0318 109.432 45.0318 109.432L43.9417 109.658L42.8516 108.949L43.2876 104.346L43.9908 100.438" fill="#2F2E41"/>
<path d="M51.7436 105.573C51.6014 107.186 51.6835 109.38 53.2416 110.369C54.0945 110.907 55.8932 110.412 56.1119 111.611C56.3032 112.66 50.4752 113.047 50.4752 113.047C50.4752 113.047 49.8465 110.649 49.5841 110.724C49.3216 110.799 49.349 113.375 49.349 113.375L48.2555 113.611L47.1621 112.907L47.5721 108.305L48.2555 104.391" fill="#2F2E41"/>
<path d="M42.0591 99.51L41.1934 104.157C41.1934 104.157 42.5499 105.531 47.1211 105.368C51.6924 105.205 47.1211 97.1484 47.1211 97.1484" fill="#473F47"/>
<ellipse cx="36.5512" cy="110.317" rx="6.30122" ry="2.3052" fill="#BFBFBF"/>
<path d="M35.5547 99.7812L35.7847 109.331H37.5445V99.7812" fill="#BFBFBF"/>
<path d="M48.774 86.1057C46.8476 86.5088 44.905 86.8197 42.9459 87.0386C42.8583 87.0465 42.7777 87.0879 42.7224 87.1533C42.4971 86.507 42.3044 85.8486 42.1445 85.178C42.0573 84.7975 41.4467 84.9591 41.5339 85.3396C41.8945 86.8595 42.4302 88.3365 43.1313 89.7436C43.3057 90.098 43.8509 89.7905 43.6765 89.4361C43.3875 88.8471 43.1313 88.253 42.8969 87.6432H42.9405C44.954 87.4173 46.953 87.0977 48.9375 86.6842C49.3192 86.606 49.1501 86.0223 48.774 86.1057Z" fill="#008074"/>
<path d="M43.5883 90.3885C43.0733 91.257 42.4115 92.0268 41.633 92.6628C41.3162 92.9228 41.7696 93.3766 42.0809 93.1165C42.8987 92.4437 43.5938 91.6309 44.1345 90.715C44.2235 90.5622 44.1734 90.3652 44.0225 90.2751C43.8717 90.1849 43.6773 90.2357 43.5883 90.3885Z" fill="#008074"/>
<path d="M39.5352 88.457C39.5352 88.457 44.5766 84.4859 47.923 84.0149C51.2694 83.544 53.0189 87.1137 52.7791 89.5006C52.5393 91.8876 44.5275 93.1935 44.5275 93.1935" fill="#EDBAB9"/>
<path d="M42.2589 89.8032C42.9119 89.2084 51.4551 85.2802 54.4643 87.0755C57.4735 88.8707 57.283 90.1944 56.9021 92.3809C56.5212 94.5674 53.6372 106.314 53.6372 106.314C51.4527 107.141 49.056 107.251 46.8026 106.63L47.646 97.9114L36.2188 91.786" fill="#473F47"/>
<path d="M36.0088 75.7428C36.4572 76.067 40.3306 76.5241 41.1409 78.2833C41.9512 80.0425 43.1829 89.0936 43.1829 89.0936C43.1829 89.0936 40.86 92.5004 36.8353 91.2887C35.6414 90.9272 29.4505 79.7927 29.2722 78.6394C28.8455 75.6259 36.0088 75.7428 36.0088 75.7428Z" fill="#9CD8DF"/>
<path d="M28.3388 95.5319C28.1437 95.0699 27.9835 94.5939 27.8594 94.1081C26.9114 90.4061 26.2919 76.5061 32.5565 77.0756C39.4297 77.6935 37.1081 94.8603 44.0729 94.3337C51.0377 93.8072 53.8926 95.6125 51.0431 98.3044C45.3495 103.683 31.8293 103.806 28.3388 95.5319Z" fill="#BFBFBF"/>
<path d="M38.4043 70.5949C38.4464 70.8796 38.9317 74.937 37.7766 75.8514C36.6216 76.7658 34.0214 74.6084 33.9581 73.5352C33.8949 72.462 33.0141 70.2499 34.1216 69.6695C35.2292 69.0891 38.0931 68.5909 38.4043 70.5949Z" fill="#FFE0DE"/>
<path d="M37.2659 68.0372C35.7659 67.1617 33.2945 67.3793 32.0508 68.6368C31.716 68.9973 31.4257 69.3963 31.186 69.8253C31.0041 70.1433 30.8026 70.4498 30.5829 70.7432C30.5564 72.3235 31.161 73.8498 32.2643 74.988C33.5204 75.7927 35.0074 76.1655 36.4972 76.0492C36.3691 75.5186 36.257 74.988 36.1716 74.4574C36.0328 73.5925 35.8247 72.5366 36.4705 71.8044C36.6922 71.5324 37.0522 71.4124 37.394 71.4967L37.4367 71.4701L38.7178 71.5497C39.1859 70.1827 38.5656 68.6822 37.2659 68.0372Z" fill="#2F2E41"/>
<path d="M31.2535 70.2297C29.817 67.6488 25.4643 68.9177 25.1414 71.6492C25.0085 72.956 25.3587 74.2661 26.126 75.3325C27.1591 76.623 27.2021 79.4997 25.4158 81.5967C23.6296 83.6937 25.0876 86.2155 27.1591 87.1081C29.2305 88.0007 33.7178 87.9738 33.5617 84.3497C33.4057 80.7256 29.0315 76.096 29.096 73.5957C29.1606 71.0954 31.6786 72.5203 31.6786 72.5203" fill="#2F2E41"/>
<path d="M37.196 73.5829C37.035 73.1253 36.686 72.7569 36.2358 72.5692C35.8283 72.403 35.27 72.3531 35.0244 72.7963C34.4662 73.7767 35.8171 74.4581 36.5317 74.7351C36.8666 74.8625 37.0117 74.3251 36.6824 74.1811L36.5651 74.1368H36.6042C36.6747 74.1415 36.7439 74.1165 36.7949 74.0681C36.8458 74.0196 36.8739 73.952 36.8722 73.882C37.0564 73.9595 37.2797 73.8266 37.196 73.5829Z" fill="#FFE0DE"/>
<path d="M57.9644 78.2552C58.4465 78.5564 58.6831 79.1312 58.5527 79.6845L56.9213 86.6082L46.5 79.5088L47.4688 72.7958C47.5372 72.3216 48.0704 72.0741 48.4767 72.328L57.9644 78.2552Z" fill="#C0C0C0" stroke="black" stroke-width="0.349098"/>
<path d="M46.4451 79.3633C46.4451 79.3633 40.7975 82.2239 40.8619 82.3002C40.9262 82.3765 50.8484 89.9014 50.8484 89.9014L56.7802 86.534L46.4451 79.3633Z" fill="#6E6E6E" stroke="black" stroke-width="0.349098"/>
<path d="M48.8203 85.3783C48.8203 85.3783 50.3119 84.0943 50.5356 83.9919C50.8835 83.9281 51.2425 84.0247 51.5051 84.2528C51.7449 84.4677 52.0805 84.391 52.3468 84.6672C52.6132 84.9435 53.2897 85.9154 53.0979 86.1712C52.9062 86.427 52.3681 85.808 52.187 85.6596C52.0059 85.5113 52.187 86.1712 51.9313 86.5651C51.6756 86.959 50.1254 87.3324 49.7099 87.2557" fill="#FFE0DE"/>
<path d="M41.2861 79.3633C41.2861 79.3633 43.1641 85.7521 44.2591 85.7521C45.3541 85.7521 48.8144 84.6157 48.8144 84.6157C48.8144 84.6157 50.3036 86.1273 50.1339 87.0842C49.9642 88.0412 43.843 91.4341 41.2861 90.8142C38.7293 90.1944 37.4919 81.4186 37.5467 81.25C37.6014 81.0815 41.2861 79.3633 41.2861 79.3633Z" fill="#9CD8DF"/>
<path d="M47.9548 81.8504C47.6603 81.6281 47.3511 81.4259 47.0295 81.245C46.7481 81.1153 46.4883 80.9693 46.2394 80.8288C46.0159 80.687 45.7436 80.644 45.4872 80.7099C44.9399 81.1183 44.4142 81.5549 43.9124 82.0179C43.6094 82.2341 43.3009 82.4449 42.9817 82.6449C42.8665 82.7148 42.8204 82.8587 42.8735 82.9823C42.9265 83.106 43.0626 83.1719 43.1927 83.1368C43.3496 83.099 43.5012 83.0503 43.6527 82.9963C43.6461 83.0916 43.6461 83.1874 43.6527 83.2827C43.5921 83.6121 43.6537 83.9521 43.8259 84.2395C43.8436 84.2755 43.8696 84.307 43.9016 84.3313L43.7014 84.407C43.3767 84.5259 43.5174 85.0502 43.8475 84.9475L45.7091 84.2665C46.1612 84.1496 46.574 83.9145 46.905 83.5854C46.9954 83.499 47.0147 83.3619 46.9517 83.254C46.8886 83.146 46.7597 83.0953 46.6398 83.1314C46.5046 83.1638 46.3747 83.2071 46.2448 83.2503C46.5424 82.8449 46.997 82.3585 47.1539 82.4936C47.5181 82.7689 48.0161 82.7862 48.3986 82.5368C48.6962 82.2017 48.1875 81.9855 47.9548 81.8504Z" fill="#FFE0DE"/>
<path d="M43.9594 82C43.9594 82 41.9934 82.2485 40.5231 82.2855C39.9229 83.068 39.3777 83.8717 38.8711 84.7176C38.9812 85.2463 39.0253 85.775 39.1464 86.3038C39.161 86.4055 39.161 86.5087 39.1464 86.6104C41.7622 86.198 44.5486 85.1617 44.7744 84.6066C45.1268 83.7342 43.9594 82 43.9594 82Z" fill="#9CD8DF"/>
<path fill-rule="evenodd" clip-rule="evenodd" d="M51.8509 78.4931C51.8965 78.4211 51.942 78.3491 51.9874 78.277L52.3966 77.6259C52.4698 77.5096 52.5061 77.452 52.4943 77.4069C52.4826 77.3619 52.4231 77.3294 52.3047 77.2634C52.2531 77.2346 52.2297 77.2426 52.2004 77.2919C52.1732 77.3375 52.1445 77.3822 52.1158 77.4268C52.0751 77.49 52.0345 77.5532 51.9982 77.6188C51.9591 77.6893 51.9252 77.6889 51.8672 77.6476C51.792 77.5941 51.7118 77.5472 51.6319 77.5005C51.4032 77.3666 51.2052 77.4084 51.0456 77.626C50.9055 77.8155 50.7803 78.0156 50.6712 78.2243C50.5666 78.4258 50.6019 78.6156 50.7807 78.743C50.8854 78.8175 50.9946 78.8859 51.1038 78.9542C51.1855 79.0054 51.2672 79.0566 51.3471 79.1103C51.4138 79.1551 51.4449 79.1446 51.4869 79.0757C51.6061 78.8802 51.7285 78.6866 51.8509 78.4931ZM51.5961 78.2551L51.5368 78.3493C51.5215 78.3736 51.506 78.3978 51.4904 78.4219C51.4525 78.481 51.4145 78.5402 51.3797 78.6015C51.3486 78.656 51.3222 78.6668 51.2669 78.6315C51.0945 78.5215 51.0062 78.4803 50.9906 78.4202C50.9753 78.3614 51.0296 78.2847 51.1426 78.108C51.1736 78.0592 51.2042 78.0103 51.2349 77.9614C51.2503 77.9369 51.2656 77.9124 51.281 77.888C51.3309 77.8073 51.3952 77.792 51.4785 77.832C51.6251 77.9023 51.6989 77.9375 51.7143 77.9897C51.7298 78.0426 51.6855 78.113 51.5961 78.2551Z" fill="white"/>
<path fill-rule="evenodd" clip-rule="evenodd" d="M50.1046 78.2292L50.6075 77.4301L51.0245 76.7675C51.0943 76.6566 51.1288 76.602 51.1179 76.5586C51.1071 76.5152 51.0512 76.4831 50.9401 76.4174C50.8762 76.3795 50.8499 76.3977 50.8169 76.4535C50.7876 76.503 50.7566 76.5515 50.7256 76.6C50.6896 76.6562 50.6536 76.7123 50.6204 76.7701C50.5843 76.8331 50.5508 76.8364 50.4955 76.7984C50.4122 76.7414 50.3262 76.6875 50.2379 76.6386C50.012 76.5135 49.8088 76.5574 49.6598 76.774C49.5334 76.9582 49.414 77.1479 49.302 77.3412C49.1747 77.5605 49.2103 77.7548 49.4129 77.9001C49.5286 77.9833 49.6498 78.0586 49.7712 78.134C49.8456 78.1802 49.92 78.2264 49.9932 78.2745C50.0528 78.3135 50.0741 78.2788 50.0984 78.2393C50.1004 78.236 50.1025 78.2326 50.1046 78.2292ZM50.221 77.4055L50.1747 77.4791C50.1582 77.5052 50.1416 77.5312 50.125 77.5572C50.0836 77.6218 50.0423 77.6864 50.0041 77.7527C49.9715 77.809 49.9413 77.8143 49.8881 77.7802C49.7194 77.6721 49.6292 77.6319 49.6119 77.5711C49.5952 77.512 49.6473 77.4334 49.7634 77.2545C49.7877 77.2165 49.8116 77.1782 49.8354 77.14C49.8575 77.1045 49.8796 77.0691 49.9022 77.0339C49.9533 76.9546 50.0176 76.9387 50.1012 76.9801C50.2488 77.0533 50.3228 77.0896 50.3379 77.1427C50.353 77.1957 50.3091 77.2655 50.221 77.4055Z" fill="white"/>
<path fill-rule="evenodd" clip-rule="evenodd" d="M49.126 77.1739C49.1513 77.1337 49.1767 77.0935 49.202 77.0532L49.1983 77.0511C49.2287 77.0028 49.2597 76.9548 49.2906 76.9068C49.3598 76.7995 49.4289 76.6922 49.492 76.5816C49.6268 76.3445 49.5889 76.1358 49.3846 75.9963C49.2852 75.9284 49.1822 75.8656 49.0793 75.8028C49.015 75.7637 48.9508 75.7245 48.8874 75.6841C48.8456 75.6575 48.8229 75.6605 48.7881 75.7082C48.6924 75.8397 48.6459 75.9028 48.6566 75.9536C48.6666 76.0008 48.7259 76.0376 48.8408 76.1089L48.8917 76.1405C48.917 76.1565 48.9426 76.1722 48.9681 76.1879C49.0276 76.2245 49.0872 76.2612 49.1439 76.3018C49.2236 76.3589 49.203 76.4357 49.1517 76.5143C49.1057 76.5848 49.0713 76.5551 49.0396 76.5276C49.0299 76.5193 49.0206 76.5111 49.0112 76.5061C48.9561 76.4764 48.9023 76.4443 48.8486 76.4122C48.7789 76.3705 48.7093 76.3289 48.6368 76.2927C48.502 76.2254 48.3709 76.26 48.2672 76.3874C48.1871 76.4859 48.1164 76.5935 48.0678 76.7116C47.9929 76.8932 48.0139 77.0187 48.1618 77.121C48.2916 77.2112 48.4257 77.295 48.5598 77.3788C48.6458 77.4326 48.7318 77.4863 48.8166 77.5417C48.8727 77.5784 48.8934 77.5455 48.9214 77.5002C48.9889 77.391 49.0575 77.2824 49.126 77.1739ZM48.6111 76.6157L48.7632 76.7101C48.7715 76.715 48.7795 76.7205 48.7875 76.726C48.8028 76.7364 48.8181 76.7469 48.8353 76.753C48.9587 76.7964 48.9374 76.8627 48.8727 76.969C48.8051 77.0802 48.753 77.0966 48.6652 77.0225C48.6297 76.9926 48.5889 76.9693 48.5481 76.946C48.5298 76.9355 48.5115 76.925 48.4936 76.914C48.3724 76.8381 48.3794 76.7048 48.5083 76.6148C48.5462 76.5885 48.5787 76.5956 48.6111 76.6157Z" fill="white"/>
<path fill-rule="evenodd" clip-rule="evenodd" d="M52.8586 79.5042C52.8889 79.4564 52.9204 79.4068 52.9535 79.3543C52.9848 79.2979 53.0231 79.2398 53.063 79.1791C53.1314 79.0755 53.2046 78.9643 53.2568 78.8409C53.347 78.63 53.319 78.46 53.1489 78.3373C53.0288 78.2505 52.902 78.173 52.7752 78.0955C52.7208 78.0622 52.6664 78.0289 52.6126 77.995C52.584 77.9769 52.5556 77.9625 52.5293 78.0071C52.513 78.0346 52.4936 78.062 52.4742 78.0894C52.4301 78.1517 52.386 78.2139 52.3788 78.2773C52.3738 78.3235 52.428 78.3481 52.4834 78.3733C52.5112 78.3859 52.5392 78.3986 52.5602 78.4143C52.5845 78.4323 52.6107 78.4478 52.6369 78.4633C52.6522 78.4724 52.6674 78.4814 52.6823 78.491C52.7027 78.5041 52.7234 78.5168 52.7442 78.5294C52.7954 78.5607 52.8466 78.592 52.8923 78.6301C52.9622 78.6885 52.9336 78.7622 52.8861 78.8354C52.8434 78.9015 52.8131 78.8746 52.7847 78.8494C52.7753 78.8411 52.7661 78.8329 52.7568 78.8284C52.7138 78.8074 52.6736 78.7812 52.6334 78.7551C52.6164 78.744 52.5995 78.733 52.5823 78.7223C52.2039 78.4875 52.106 78.516 51.8506 78.9353C51.7077 79.1701 51.732 79.3371 51.9427 79.4771C52.0578 79.5535 52.1758 79.6258 52.2937 79.6981C52.3773 79.7493 52.4608 79.8006 52.5434 79.8533C52.5955 79.8865 52.6254 79.8813 52.6614 79.8208C52.723 79.7177 52.7875 79.6161 52.8586 79.5042ZM52.4438 78.9899C52.4596 78.9997 52.4754 79.0094 52.4912 79.0192L52.4913 79.0193C52.4992 79.0241 52.5068 79.0294 52.5144 79.0347C52.53 79.0454 52.5455 79.0562 52.5627 79.0631C52.6797 79.108 52.681 79.1699 52.6071 79.2853C52.5379 79.3928 52.4909 79.4121 52.4014 79.3388C52.356 79.3016 52.3047 79.2719 52.2534 79.2422C52.2285 79.2278 52.2037 79.2134 52.1795 79.1982C52.0927 79.1435 52.1333 79.0787 52.1754 79.0114C52.177 79.009 52.1785 79.0065 52.18 79.0041C52.2236 78.9342 52.2671 78.8789 52.349 78.931C52.3805 78.9509 52.4121 78.9704 52.4438 78.9899Z" fill="white"/>
<path d="M53.4973 80.4451C53.3638 80.3622 53.2317 80.2767 53.096 80.1975C53.0304 80.1593 53.0131 80.1251 53.0574 80.0607C53.1348 79.9479 53.2021 79.8284 53.2777 79.7146C53.4172 79.5046 53.645 79.4604 53.8703 79.5966C53.9138 79.6229 53.9567 79.6502 53.9999 79.6771C54.1736 79.7848 54.3239 79.7181 54.3504 79.5233C54.3588 79.4611 54.316 79.4362 54.272 79.409C54.1345 79.3237 53.999 79.2351 53.8587 79.1545C53.7843 79.1117 53.7633 79.0782 53.8132 79.0004C53.9327 78.8156 53.9281 78.8127 54.1199 78.9318C54.2456 79.0098 54.3733 79.0849 54.4964 79.1666C54.6962 79.2989 54.7438 79.5206 54.6356 79.7203C54.3965 80.1621 54.1594 80.1982 53.7638 79.914C53.682 79.8552 53.6101 79.8187 53.5376 79.9302C53.4797 80.019 53.493 80.0622 53.5867 80.115C53.7517 80.208 53.908 80.3163 54.072 80.4113C54.1471 80.455 54.1526 80.492 54.1078 80.5585C53.9541 80.7873 54.019 80.7625 53.7914 80.6278C53.6927 80.5687 53.5955 80.506 53.4973 80.4451Z" fill="#EE2250"/>
<path d="M55.407 80.6749C55.2823 80.8731 55.1544 81.0694 55.0345 81.2704C54.9894 81.3461 54.9547 81.355 54.8891 81.3113C54.6912 81.1794 54.7148 81.2318 54.8342 81.0336C54.8911 80.9391 54.9459 80.8423 55.0118 80.7543C55.0748 80.6695 55.0556 80.6278 54.9773 80.5895C54.9124 80.5578 54.8526 80.5159 54.7922 80.4759C54.6424 80.3769 54.6115 80.2116 54.7134 80.0453C54.8058 79.8947 54.9047 79.748 54.9938 79.5955C55.0366 79.5225 55.0701 79.522 55.1309 79.5596C55.3 79.6646 55.3021 79.6612 55.1866 79.8448C55.1395 79.9195 55.0956 79.9966 55.0446 80.0685C54.9819 80.157 54.9932 80.2159 55.0783 80.2661C55.2919 80.3922 55.2339 80.3882 55.3631 80.1917C55.4214 80.1032 55.4798 80.0143 55.5317 79.9221C55.5694 79.8549 55.6022 79.8535 55.6595 79.8877C55.8361 79.9932 55.8377 79.9904 55.7176 80.1814L55.407 80.6749Z" fill="#EE2250"/>
<path fill-rule="evenodd" clip-rule="evenodd" d="M56.0278 80.6235C56.0403 80.632 56.0529 80.6404 56.0656 80.6484L56.2103 80.7379C56.3612 80.8318 56.3729 80.8755 56.2837 81.0171C56.2438 81.0806 56.2041 81.1442 56.1644 81.2077C56.0499 81.3909 55.9354 81.5741 55.8171 81.7549C55.7711 81.8252 55.7729 81.8693 55.8584 81.9081C55.8863 81.9206 55.9124 81.9368 55.936 81.9563C56.0143 82.0219 56.0563 82.0002 56.1022 81.9239C56.1883 81.7804 56.2778 81.6389 56.3674 81.4973C56.429 81.3998 56.4907 81.3023 56.5513 81.2041C56.5906 81.1407 56.6325 81.0956 56.7155 81.0746C56.8613 81.0378 56.9326 80.8969 56.898 80.7597C56.8633 80.6224 56.7336 80.5099 56.594 80.5314C56.4729 80.5502 56.3888 80.5017 56.2977 80.4423C56.2742 80.4269 56.2498 80.4127 56.2254 80.3985C56.1853 80.3752 56.1454 80.3519 56.1097 80.3234C56.006 80.2409 55.9484 80.2496 55.88 80.3607C55.8151 80.4661 55.8219 80.5211 55.9428 80.5735C55.9728 80.5864 56.0003 80.605 56.0278 80.6235ZM56.4986 80.7344C56.5374 80.6751 56.6064 80.6667 56.6779 80.7044C56.7438 80.7513 56.7677 80.8145 56.7303 80.8771C56.691 80.9428 56.6203 80.962 56.5451 80.9166C56.4688 80.8702 56.4577 80.7971 56.4986 80.7344Z" fill="#EE2250"/>
<path d="M31.9074 70.5119C31.9074 69.9444 31.3973 69.4844 30.7679 69.4844C30.1449 69.4979 29.6434 69.9501 29.6284 70.5119C29.5876 70.9235 29.5762 71.3371 29.5942 71.75C29.5942 72.3175 30.1044 72.7775 30.7337 72.7775C31.3631 72.7775 31.8733 72.3175 31.8733 71.75C31.8552 71.3371 31.8666 70.9235 31.9074 70.5119Z" fill="#EF3D56"/>
<path fill-rule="evenodd" clip-rule="evenodd" d="M30.0268 67.0548C30.1036 67.1825 30.2124 67.2553 30.3265 67.2555C30.3775 67.2554 30.4281 67.2409 30.4756 67.2128C30.6329 67.1215 30.7365 66.8926 30.7357 66.6379V60.1924C30.7361 59.7382 30.9795 59.37 31.28 59.3695H32.153C32.904 59.3682 33.5126 58.4481 33.5134 57.3126V44.3537C33.5126 43.2183 32.904 42.2981 32.153 42.2969H1.36043C0.609436 42.2981 0.00084268 43.2183 0 44.3537V57.3126C0.000842181 58.4481 0.609436 59.3682 1.36043 59.3695H25.1279C25.2804 59.3698 25.4259 59.4665 25.5291 59.6364L30.0268 67.0548ZM0.181641 44.3531C0.182376 43.369 0.709871 42.5714 1.3608 42.5703L32.1533 42.5703C32.8043 42.5714 33.3318 43.369 33.3325 44.3531V57.312C33.3318 58.2961 32.8043 59.0937 32.1533 59.0948H31.2804C30.8798 59.0955 30.5553 59.5862 30.5548 60.1918V66.6372C30.5548 66.7786 30.4974 66.9055 30.4102 66.9568C30.3231 67.0081 30.224 66.9732 30.1608 66.8689L25.6631 59.4505C25.5255 59.2241 25.3316 59.0951 25.1283 59.0948H1.3608C0.709871 59.0937 0.182376 58.2961 0.181641 57.312V44.3531Z" fill="#3F3D56"/>
<ellipse cx="3.83924" cy="47.495" rx="1.74549" ry="1.73324" fill="#3F3D56"/>
<path fill-rule="evenodd" clip-rule="evenodd" d="M25.4589 50.2126L25.3661 50.9454H24.716L24.6476 50.1446C24.6313 49.9958 24.6574 49.8664 24.7258 49.7564C24.7942 49.6464 24.883 49.5437 24.9922 49.4482C25.1013 49.3528 25.2227 49.2598 25.3563 49.1692C25.4899 49.0786 25.6137 48.9775 25.7277 48.8659C25.8418 48.7542 25.9379 48.6281 26.0161 48.4873C26.0943 48.3466 26.1334 48.1792 26.1334 47.985C26.1334 47.8524 26.1073 47.7327 26.0552 47.6259C26.0031 47.5191 25.9314 47.4277 25.8401 47.3517C25.7489 47.2757 25.6414 47.2174 25.5176 47.177C25.3938 47.1366 25.2618 47.1163 25.1217 47.1163C24.9262 47.1163 24.76 47.1398 24.6232 47.1867C24.4863 47.2336 24.3699 47.2846 24.2737 47.3396C24.1776 47.3946 24.0986 47.4455 24.0367 47.4924C23.9748 47.5394 23.9227 47.5628 23.8803 47.5628C23.7858 47.5628 23.7174 47.5224 23.675 47.4415L23.4258 47.0387C23.53 46.9449 23.6441 46.8559 23.7679 46.7718C23.8917 46.6876 24.0269 46.6132 24.1735 46.5485C24.3202 46.4838 24.479 46.4329 24.6501 46.3957C24.8211 46.3584 25.006 46.3398 25.2048 46.3398C25.4687 46.3398 25.7123 46.3771 25.9354 46.4515C26.1586 46.5259 26.3509 46.6326 26.5122 46.7718C26.6734 46.9109 26.7997 47.0783 26.8909 47.2741C26.9822 47.4698 27.0278 47.689 27.0278 47.9316C27.0278 48.1775 26.9911 48.3903 26.9178 48.5698C26.8445 48.7494 26.7525 48.9055 26.6417 49.0381C26.5309 49.1708 26.4095 49.2865 26.2776 49.3851C26.1456 49.4838 26.0218 49.5768 25.9061 49.6642C25.7905 49.7515 25.6911 49.8381 25.608 49.9238C25.5249 50.0096 25.4752 50.1058 25.4589 50.2126ZM25.2645 53.4124C25.1863 53.4447 25.1032 53.4609 25.0152 53.4609C24.924 53.4609 24.8393 53.4447 24.7611 53.4124C24.6829 53.38 24.6153 53.3347 24.5583 53.2765C24.5013 53.2182 24.4565 53.1503 24.4239 53.0727C24.3913 52.995 24.375 52.9109 24.375 52.8203C24.375 52.7329 24.3913 52.6504 24.4239 52.5728C24.4565 52.4951 24.5013 52.4272 24.5583 52.369C24.6153 52.3107 24.6829 52.2646 24.7611 52.2306C24.8393 52.1967 24.924 52.1797 25.0152 52.1797C25.1032 52.1797 25.1863 52.1967 25.2645 52.2306C25.3427 52.2646 25.4111 52.3107 25.4698 52.369C25.5284 52.4272 25.5749 52.4951 25.6091 52.5728C25.6433 52.6504 25.6604 52.7329 25.6604 52.8203C25.6604 52.9109 25.6433 52.995 25.6091 53.0727C25.5749 53.1503 25.5284 53.2182 25.4698 53.2765C25.4111 53.3347 25.3427 53.38 25.2645 53.4124Z" fill="#EF3D56"/>
<path d="M30.7822 56.16H2.72951C2.37839 56.16 2.09375 55.8496 2.09375 55.4667C2.09375 55.0838 2.37839 54.7734 2.72951 54.7734H30.7822C31.1334 54.7734 31.418 55.0838 31.418 55.4667C31.418 55.8496 31.1334 56.16 30.7822 56.16Z" fill="#EF3D56"/>
<path d="M21.703 53.3866H2.73219C2.50419 53.3869 2.29339 53.2548 2.17931 53.0402C2.06523 52.8256 2.06523 52.561 2.17931 52.3464C2.29339 52.1318 2.50419 51.9997 2.73219 52H21.703C21.931 51.9997 22.1418 52.1318 22.2559 52.3464C22.37 52.561 22.37 52.8256 22.2559 53.0402C22.1418 53.2548 21.931 53.3869 21.703 53.3866Z" fill="#EF3D56"/>
</svg>
